<svg class="icon" viewBox="0 0 1024 1024" xmlns="http://www.w3.org/2000/svg" width="200" height="200"><path d="M687.594 14.629c46.365 0 35.16 66.603 3.19 88.554-31.972 21.957-54.112 43.264-69.377 80.844a318.369 318.369 0 0 0-19.317 68.586C768.27 290.26 892.343 438.857 892.343 616.42c0 206.014-167.007 373.028-373.029 373.028S146.286 822.433 146.286 616.42c0-122.91 59.443-231.936 151.142-299.893-22.382-37.45-38.137-76.661-47.28-117.658-14.533-65.156-3.73-120.817 28.446-130.136 32.168-9.318 57.68 24.306 51.214 75.096-6.465 50.79-16.837 60.16-9.742 99.745 3.555 19.851 8.265 36.162 14.124 48.925a367.835 367.835 0 0 1 14.27-7.767c10.569-5.457 28.32-14.892 38.575-26.859 14.483-16.91 24.262-37.96 40.946-42.071 17.854-4.404 31.137 14.957 51.112 23.669 6.466 2.816 17.737 4.535 23.896 4.271a379.443 379.443 0 0 1 59.948 2.173c6.012-58.968 15.462-105.107 28.343-138.43 20.377-52.7 49.941-92.855 96.314-92.855zM843.886 477.44C786.38 348.277 648.52 284.197 535.962 334.314c-112.553 50.103-157.184 195.438-99.672 324.608 57.505 129.156 195.364 193.243 307.924 143.126 112.552-50.117 157.184-195.445 99.672-324.608zm-282.66-122.353c97.791-43.542 219.025 15.404 270.781 131.642 51.756 116.246 14.439 245.782-83.36 289.324-97.793 43.535-219.027-15.404-270.775-131.65-51.771-116.238-14.439-245.774 83.353-289.316z"/></svg>