<svg class="icon" viewBox="0 0 1024 1024" xmlns="http://www.w3.org/2000/svg" width="200" height="200"><path d="M184.31 539.583c111.397-23.9 96.197-156.995 92.797-186.094-5.5-44.899-58.198-123.296-129.796-117.096-90.097 8.1-103.296 138.295-103.296 138.295-12.1 60.198 29.199 188.794 140.295 164.895zm118.197 231.393c-3.3 9.4-10.5 33.299-4.3 54.098 12.4 46.699 52.998 48.799 52.998 48.799h58.298V731.377h-62.398c-27.999 8.4-41.599 30.3-44.598 39.599zm88.397-454.486c61.598 0 111.196-70.798 111.196-158.295C502.1 70.798 452.502 0 390.904 0c-61.398 0-111.197 70.798-111.197 158.195 0 87.497 49.799 158.295 111.197 158.295zm264.892 10.4c82.197 10.7 135.095-77.098 145.495-143.596C811.991 116.996 758.992 39.8 700.794 26.6c-58.298-13.4-131.096 79.998-137.696 140.896-7.9 74.497 10.6 148.795 92.698 159.395zm201.393 390.788S729.993 619.28 655.796 512.984c-100.597-156.795-243.593-92.997-291.391-13.3-47.599 79.698-121.797 130.196-132.296 143.496-10.7 13.2-153.595 90.297-121.896 231.193 31.699 140.795 143.195 138.195 143.195 138.195s82.098 8.1 177.395-13.2c95.297-21.199 177.294 5.3 177.294 5.3s222.593 74.498 283.491-68.997c60.798-143.596-34.399-217.993-34.399-217.993zM476.301 931.27H331.606c-62.498-12.5-87.398-55.098-90.598-62.398-3.1-7.4-20.799-41.699-11.4-99.997 27-87.397 103.998-93.697 103.998-93.697h76.997v-94.697l65.598 1 .1 349.789zm269.592-1H579.298c-64.598-16.6-67.598-62.498-67.598-62.498V683.579l67.598-1.1v165.494c4.1 17.6 26.1 20.9 26.1 20.9h68.597V683.579h71.898V930.27zm235.692-491.785c0-31.799-26.399-127.596-124.396-127.596-98.197 0-111.296 90.397-111.296 154.295 0 60.999 5.2 146.196 127.096 143.396 121.996-2.6 108.596-138.096 108.596-170.095z"/></svg>