<svg class="icon" viewBox="0 0 1248 1024" xmlns="http://www.w3.org/2000/svg" width="200" height="200"><path d="M1213.83 227.544h-200.937V415.43c-3.497 211.62-176.754 382.7-389.212 382.7s-385.693-171.053-389.213-382.7V227.544H1012.893V0H54.864C24.571 0 0 24.545 0 54.838v367.349a583.03 583.03 0 0 0 12.742 121.05c8.213 38.722 20.474 76.824 36.47 113.245 15.662 35.682 35.036 70.118 57.593 102.28 22.267 31.778 47.873 61.64 75.984 88.843a633.46 633.46 0 0 0 51.656 44.565c13.1 10.13 26.58 19.686 40.422 28.761 33.359 21.721 68.991 40.423 105.966 55.51 37.74 15.47 77.228 27.323 117.365 35.249 41.092 8.144 83.31 12.26 125.433 12.26 42.172 0 84.368-4.116 125.46-12.26 40.16-7.926 79.624-19.756 117.364-35.248 36.975-15.088 72.608-33.79 105.966-55.51 13.865-9.076 27.346-18.632 40.422-28.762a625.73 625.73 0 0 0 51.656-44.565c28.16-27.204 53.71-57.065 76.008-88.843 22.533-32.185 41.93-66.598 57.569-102.28a582.623 582.623 0 0 0 36.517-113.245c8.43-39.633 12.692-80.34 12.692-121.05V227.544h-33.455z"/></svg>