<svg class="icon" viewBox="0 0 1024 1024" xmlns="http://www.w3.org/2000/svg" width="200" height="200"><path d="M301.653 460.8v165.419h-52.608V418.304l108.672.085c46.08 0 61.824 32.598 61.824 62.123v145.707h-52.48V480.81c0-12.416-6.357-20.011-21.888-20.011h-43.52zm357.931-2.475c-18.005 0-31.915 9.216-37.76 21.76a54.613 54.613 0 0 0-5.035 22.614h80.982c-.982-22.614-11.222-44.374-38.187-44.374zm-42.795 80.214c0 26.837 16.768 46.72 46.678 46.72 23.21 0 34.773-6.4 48.256-19.883l32.512 31.104c-20.779 20.523-42.71 32.981-81.152 32.981-50.347 0-98.56-27.434-98.56-107.52 0-68.48 42.026-107.178 97.322-107.178 56.107 0 88.534 45.354 88.534 104.746v18.902h-133.59v.128zm-96.768 87.338c-42.837 0-61.098-29.824-61.098-59.349v-204.8h52.565v56.619h39.595v42.496h-39.638v102.4c0 12.117 5.76 18.773 18.304 18.773h21.334v43.819H520.02zM202.197 389.59h-52.992v-50.346h52.992v50.346zm.128 238.72c-39.68-3.754-53.162-27.776-53.162-55.68V418.39h53.077V628.48l.085-.17zm631.68-4.437c-39.637-3.84-53.034-27.819-53.034-55.595v-236.16h53.034v291.84-.085zm185.472-257.621c-48-234.368-503.125-249.216-796.33-70.699v19.712c292.906-150.528 708.437-149.675 746.282 66.133 12.63 71.467-27.562 145.835-99.37 188.672v55.936c86.4-31.658 175.146-134.272 149.418-259.754zM486.315 776.277c-202.326 18.688-413.27-10.709-442.752-168.832-14.379-77.952 21.205-160.64 68.181-211.925v-27.435C26.965 442.453-19.029 536.62 7.467 647.851c33.792 142.72 214.826 223.53 491.05 196.65 109.355-10.624 252.416-45.824 351.872-100.437v-77.483c-90.282 53.803-239.658 98.219-364.074 109.696z"/><path d="M895.317 347.733c0-2.56-1.578-3.37-4.949-3.37h-3.285v7.253l3.285.085c3.37 0 4.95-1.066 4.95-3.584v-.384zm5.12 18.048h-3.882c-.384 0-.768-.17-.896-.512l-5.334-9.088c-.128-.213-.554-.426-.81-.426h-2.39v9.045c0 .512-.384 1.067-.981 1.067h-3.499c-.469 0-.896-.598-.896-1.067v-22.741c0-1.238.512-1.92 1.622-2.048 2.133-.214 4.309-.256 6.485-.256 6.485 0 10.496 1.962 10.496 8.021v.427c0 3.84-1.963 5.76-4.864 6.741l5.547 9.344c0 .256.213.512.213.768.085.299-.17.725-.81.725v.086-.086zm-9.301-30.25a17.45 17.45 0 1 0 .128 34.901 17.493 17.493 0 0 0 17.45-17.323 17.707 17.707 0 0 0-17.578-17.578zm0 38.698a21.12 21.12 0 0 1-.043-42.24h.043a21.163 21.163 0 0 1 0 42.24z"/></svg>