<svg version="1.1" id="图层_1" xmlns="http://www.w3.org/2000/svg" x="0" y="0" viewBox="105.249 331.754 268.276 93.333" style="enable-background:new 105.2490005 331.7544861 268.2756348 93.3325195" xml:space="preserve"><style>.st0{fill:#06f}</style><path class="st0" d="M138.702 359.831c-1.97 5.294-7.066 9.068-13.047 9.068-7.682 0-13.91-6.23-13.912-13.912v-2.97c.001-7.682 6.229-13.912 13.912-13.912 5.973 0 11.065 3.764 13.038 9.049h6.635c-2.178-8.842-10.156-15.4-19.67-15.4-11.19 0-20.26 9.072-20.26 20.263v3.021c.028 11.167 9.087 20.21 20.26 20.21 9.52 0 17.502-6.567 19.675-15.416h-6.63zM253.096 381.593c-11.19 0-20.263 9.073-20.263 20.262v3.022h.001c.03 11.166 9.09 20.21 20.262 20.21 11.19 0 20.262-9.071 20.262-20.263v-2.969c0-11.189-9.072-20.262-20.262-20.262zm13.913 23.23h-.002c0 7.686-6.23 13.914-13.913 13.914-7.684 0-13.912-6.228-13.913-13.914v-2.966c0-7.684 6.229-13.913 13.913-13.913 7.683 0 13.913 6.23 13.913 13.913h.002v2.966zM203.055 331.757h6.347v43.49h-6.347zM209.748 381.594h-7.04l-16.741 43.493h26.906l-2.443-6.348h-15.206l11.003-28.587 13.45 34.935h6.81zM169.349 368.897h6.347v43.493h-6.347zM176.043 418.74h-7.04l-2.445 6.347h11.929zM152.263 362.552h26.907l-2.443-6.35h-15.208l9.412-24.445h-6.817zM174.119 331.757l11.852 30.795h6.812l-11.851-30.795zM139.573 381.595v33.538l-27.807-33.538H105.4v43.492h6.343v-33.576l27.83 33.576h6.345v-43.492z"/><g><path class="st0" d="M344.83 388.345h20.11v10.693l4.346-1.684v-13.356h-12.234v-2.406h-4.348v2.406h-12.23v20.963c0 1.2.974 2.178 2.17 2.178h26.541v17.948l4.34-1.682V402.788h-28.696v-14.443zM295.356 392.632h33.992v4.349h-33.992zM298.068 390.766h4.352v-2.42h19.87v2.42h4.35v-2.42h4.353v-4.347h-4.353v-2.403h-4.35v2.403h-19.87v-2.403h-4.352v2.403h-4.353v4.346h4.353zM298.068 398.846h4.353v6.502h-4.353zM322.29 398.846h4.35v6.502h-4.35zM310.183 398.846h4.344v6.573h-4.344z"/><path class="st0" d="M337.378 420.49h27.502v-4.4h-25.815zM329.328 408.89h-14.801v-1.79h-4.348v1.79h-14.83l-1.674 4.35h5.568l-4.563 11.847h4.663l4.559-11.847h6.277v11.847h4.348V413.24h6.176l4.653 11.847h4.672l-4.652-11.847h5.655zM352.704 390.825h4.348v8.021h-4.348z"/></g></svg>