<svg xmlns="http://www.w3.org/2000/svg" width="168.211" height="96.48"><path style="fill:#d91920;fill-opacity:1;fill-rule:nonzero;stroke:none" d="M414.825 691.194a3.828 3.828 0 0 1-5.413 0c-1.442-1.44-2.707-2.71-2.707-2.71l4.094-4.095-5.149-5.147-4.095 4.097-4.097-4.097-5.15 5.147 4.097 4.095-2.707 2.71a3.83 3.83 0 1 1-5.418-5.415c1.573-1.57 13.22-13.329 13.22-13.329l13.325 13.33a3.825 3.825 0 0 1 0 5.414zm-26.545-42.26a3.83 3.83 0 1 1 5.418-5.415c1.437 1.44 2.707 2.708 2.707 2.708l-4.097 4.097 5.15 5.145 4.097-4.095 4.095 4.095 5.15-5.145-4.095-4.097s1.265-1.268 2.707-2.708a3.826 3.826 0 0 1 5.413 0 3.825 3.825 0 0 1 0 5.415L401.5 662.262s-11.646-11.76-13.219-13.328zm18.42 18.423 13.275-13.273c4.34-4.342 4.34-11.375 0-15.716-4.336-4.339-11.373-4.339-15.712 0-1.705 1.702-2.708 2.707-2.708 2.707s-1.007-1.005-2.707-2.707c-4.344-4.339-11.376-4.339-15.718 0-4.34 4.341-4.34 11.374 0 15.716l13.275 13.273s-12.068 12.068-13.275 13.272c-4.34 4.34-4.34 11.375 0 15.715 4.342 4.34 11.374 4.34 15.718 0l2.707-2.71s1.003 1.009 2.708 2.71c4.339 4.34 11.376 4.34 15.712 0 4.34-4.34 4.34-11.375 0-15.715L406.7 667.357zm29.148 2.707a3.835 3.835 0 0 1-5.418 0 4902.098 4902.098 0 0 0-2.707-2.707l2.707-2.708a3.83 3.83 0 0 1 5.418 5.415zm5.15-10.565c-4.341-4.342-11.379-4.342-15.718 0-1.242 1.244-2.707 2.708-2.707 2.708l-4.096-4.094-5.148 5.146 4.098 4.098-4.098 4.095 5.148 5.147 4.096-4.095 2.707 2.71c4.34 4.339 11.377 4.339 15.718 0a11.08 11.08 0 0 0 3.254-7.857c0-2.847-1.085-5.688-3.254-7.858zm-68.43 10.565a3.835 3.835 0 0 1-5.418 0 3.812 3.812 0 0 1-1.118-2.707c0-.982.37-1.96 1.118-2.708a3.83 3.83 0 0 1 5.418 0l2.707 2.708s-1.492 1.49-2.707 2.707zm11.952 6.535 5.15-5.147-4.1-4.095 4.1-4.098-5.15-5.146-4.095 4.094-2.707-2.708c-4.34-4.342-11.379-4.342-15.718 0a11.077 11.077 0 0 0-3.253 7.858 11.08 11.08 0 0 0 3.253 7.857c4.34 4.339 11.378 4.339 15.718 0a5311.72 5311.72 0 0 0 2.707-2.71l4.095 4.095" transform="translate(-281.04 -630.114)"/><path style="fill:#231f20;fill-opacity:1;fill-rule:nonzero;stroke:none" d="M342.437 699.788c-.682.719-1.575 1.064-2.665 1.064-1.03 0-1.883-.37-2.56-1.102-.663-.73-.992-1.68-.992-2.85 0-1.08.337-1.997 1.013-2.745.687-.738 1.534-1.09 2.557-1.09 1.092 0 1.965.352 2.647 1.085.676.735 1.01 1.684 1.01 2.814 0 1.14-.334 2.081-1.01 2.824zm.837-8.963v1.427c-1.185-1.167-2.527-1.748-4.031-1.748-1.731 0-3.175.615-4.328 1.823-1.152 1.222-1.73 2.763-1.73 4.6 0 1.846.578 3.415 1.73 4.648 1.165 1.23 2.63 1.835 4.414 1.835 1.418 0 2.725-.538 3.945-1.646v1.288h2.999v-12.227h-2.999M302.054 685.294h3.104v6.945s1.159-1.602 3.57-1.602c2.234 0 4.265 1.485 4.265 5.223v7.267h-2.829v-7.472c0-1.282-.517-2.905-2.351-2.905-1.746 0-2.645 1.31-2.655 2.905v7.472h-3.104v-17.833M300.935 700.082a7.903 7.903 0 0 1-2.61 2.358c-1.252.71-2.656 1.075-4.172 1.075-2.241 0-4.15-.8-5.735-2.37-1.586-1.575-2.378-3.476-2.378-5.735 0-2.412.894-4.427 2.685-6.022 1.572-1.414 3.375-2.11 5.414-2.11 1.475 0 2.856.361 4.159 1.092 1.067.607 1.949 1.378 2.632 2.342l-2.662 1.91c-.188-.458-.459-.85-.771-1.224-.887-1.021-2.01-1.533-3.392-1.533-1.34 0-2.456.512-3.355 1.557-.888 1.036-1.333 2.358-1.333 3.975 0 1.67.44 3.006 1.326 4.046.875 1.027 1.991 1.539 3.351 1.539 1.353 0 2.475-.518 3.376-1.57.332-.374.6-.793.798-1.252 0 0 1.979 1.424 2.667 1.922M327.46 690.637c-2.956-.043-3.915 1.602-3.915 1.602l-.146-1.441h-2.665v12.312h3.089v-7.47c.016-1.58.929-2.903 2.664-2.903 1.84 0 2.37 1.63 2.37 2.903v7.47h2.866v-7.25c0-3.75-2.041-5.21-4.264-5.223" transform="translate(-281.04 -630.114)"/><path style="fill:#d91920;fill-opacity:1;fill-rule:nonzero;stroke:none" d="M315.322 703.11h2.896v-12.352h-2.896v12.352zM316.75 689.504c-1.007 0-1.677-.745-1.677-1.63 0-.95.7-1.659 1.702-1.659 1.037 0 1.68.71 1.705 1.66 0 .884-.668 1.63-1.705 1.63h-.026M316.75 707.692c-1.007 0-1.677-.73-1.677-1.614 0-.948.7-1.665 1.702-1.665 1.037 0 1.68.717 1.705 1.665 0 .884-.668 1.614-1.705 1.614h-.026" transform="translate(-281.04 -630.114)"/><path style="fill:#231f20;fill-opacity:1;fill-rule:nonzero;stroke:none" d="M360.633 708.88c-1.838-.04-3.111.717-4.19 1.91-.729-1.322-1.935-1.875-3.204-1.91-2.601-.065-3.741 1.59-3.741 1.59l-.101-1.492h-2.8v12.314h3.118v-7.434c.012-1.58.84-2.876 2.448-2.876 1.679 0 2.164 1.615 2.164 2.892v7.418h2.827v-7.27.016c.007-2.068.973-3.056 2.401-3.056 1.685 0 2.163 1.615 2.163 2.892v7.418h2.829v-7.214c0-3.725-1.875-5.149-3.914-5.198" transform="translate(-281.04 -630.114)"/><path style="fill:#d91920;fill-opacity:1;fill-rule:nonzero;stroke:none" d="M315.322 721.292h2.896v-12.314h-2.896v12.314z" transform="translate(-281.04 -630.114)"/><path style="fill:#231f20;fill-opacity:1;fill-rule:nonzero;stroke:none" d="M338.923 710.85c-.991 0-1.814.404-2.466 1.2-.655.804-.99 1.835-.99 3.09 0 1.277.327 2.327.977 3.12.654.794 1.465 1.193 2.465 1.193 1 0 1.819-.399 2.478-1.206.667-.805.988-1.845.988-3.108 0-1.265-.32-2.296-.97-3.102-.647-.783-1.47-1.188-2.482-1.188zm-.225-2.152a6.5 6.5 0 0 1 3.25.87 6.305 6.305 0 0 1 2.377 2.34c.575.999.862 2.067.862 3.201 0 1.15-.287 2.244-.868 3.246a6.059 6.059 0 0 1-2.339 2.345c-.99.58-2.083.852-3.267.852-1.764 0-3.259-.62-4.5-1.87-1.245-1.24-1.856-2.755-1.856-4.543 0-1.906.705-3.504 2.096-4.772 1.24-1.107 2.645-1.67 4.245-1.67M308.728 708.815c-2.936-.037-3.906 1.594-3.906 1.594l-.15-1.431h-2.664v12.314h3.1v-7.46c.007-1.588.915-2.898 2.661-2.898 1.828 0 2.355 1.615 2.355 2.898v7.46h2.869v-7.24c0-3.754-2.031-5.198-4.265-5.237M292.817 721.457c2.948.04 3.91-1.603 3.91-1.603l.15 1.438h2.667v-12.314h-3.095v7.461c-.012 1.589-.912 2.905-2.662 2.905-1.834 0-2.56-1.625-2.56-2.905v-7.461h-3.094v7.242c0 3.753 2.456 5.21 4.684 5.237M332.13 718.878a6.213 6.213 0 0 1-2.072 1.864c-.998.573-2.108.843-3.315.843-1.766 0-3.28-.61-4.548-1.86-1.258-1.256-1.877-2.77-1.877-4.557 0-1.903.709-3.491 2.132-4.771 1.238-1.108 2.665-1.663 4.288-1.663 1.164 0 2.26.283 3.294.863a6.38 6.38 0 0 1 2.086 1.848l-2.304 1.657a3.471 3.471 0 0 0-.567-.9c-.638-.77-1.454-1.154-2.445-1.154-.977 0-1.777.397-2.43 1.154-.642.77-.97 1.76-.97 2.966 0 1.234.328 2.246.962 3.002.638.772 1.446 1.145 2.426 1.145.974 0 1.788-.373 2.438-1.158.244-.28.44-.587.586-.933l2.315 1.654M423.41 709.255c-1.157-1.527-2.346-2.36-2.346-2.36l-1.159.835 1.947 2.667 1.558-1.142zm7.235 2.338h2.333v.994h-2.333v-.994zm2.333 0zm0 3.406h-2.333v-.995h2.333V715zm-4.343-2.412h-2.33v-.994h2.33v.994zm0 2.412h-2.33v-.995h2.33V715zm.688-5.45c-.955-.649-2.024-1.144-2.024-1.144l-.796 1.017.799.695h-3.008v8.848h.62c.631 0 1.39-.423 1.39-1.33v-1.218h2.331v2.548h.62c.785 0 1.334-.392 1.39-1.333v-1.215h2.333v.593c0 .295-.323.482-.589.482h-.934l.423 1.473h1.454c.977 0 1.768-.79 1.768-1.768v-5.87a1.21 1.21 0 0 0-1.206-1.21h-2.34l3.076-1.857v-1.695h-10.45v1.475h7.64l-2.497 1.51zm-5.285 10.106a.957.957 0 0 1-.958-.957v-7.64h-3.323v1.475h1.106v6.749c0 1.15 1.012 1.848 1.787 1.848h12.68v-1.475h-11.292M415.323 714.79h2.546v-1.477h-2.854v-2.268h2.854v-1.473h-1.851l1.692-2.113-1.602-1.15-2.114 3.263h-1.511l1.232-.89c-1.067-1.47-1.958-2.368-1.958-2.368l-1.183.696 1.514 2.562h-1.854v1.473h2.454v2.268h-2.454v1.476h2.183l-2.583 6.621h1.111c.587 0 1.185-.405 1.428-.936l1.576-3.95 2.183 4.886h2.158l-2.967-6.62zm-8.125-1.116h-1.793v-1.819h1.793v1.82zm-.005 3.273-1.788.5v-2.302h1.793l-.005 1.802zm3.107-.873-.998.28v-8.261c0-.909-.553-1.476-1.244-1.476h-5.256v1.476h4.396v2.289h-1.793v-1.52h-1.993v9.143l-.88.252v1.66l4.66-1.31v2.987h.828c.69 0 1.127-.411 1.282-1.197v-2.378l.998-.281v-1.664M380.222 714.913c0 .53-.43.954-.953.954h-2.975v-6.02h3.928v5.066zm.922-6.543h-4.85v-2.056h-2.514v2.056h-3.157v1.477h3.157v6.02h-3.93v-7.497h-2.516v8.973h6.446v4.251h.41c1.41-.042 2.048-.667 2.104-1.74v-2.511h4.265a2.182 2.182 0 0 0 2.18-2.089v-5.375a1.6 1.6 0 0 0-1.595-1.509M397.082 716.755h-1.117l.735-.91c-1-.902-1.75-1.386-1.75-1.386l-.905.903 1.268 1.393h-1.71v-2.47h3.417v-1.473h-3.417v-1.833h3.417v-1.471h-8.846v1.471h3.104v1.833h-3.104v1.473h3.104v2.47h-3.163v1.477h8.967v-1.477zm1.498-10.19h-10.465v1.475h9.74v10.703a.956.956 0 0 1-.957.955h-9.556v-13.133h-2.327v14.61h13.062a2.105 2.105 0 0 0 2.106-2.106V708.16a1.601 1.601 0 0 0-1.603-1.595" transform="translate(-281.04 -630.114)"/></svg>