<svg xmlns="http://www.w3.org/2000/svg" width="160.2" height="48.57" viewBox="0 0 160.2 48.57">
  <defs>
    <style>
      .cls-1 {
        fill: #4772b7;
      }

      .cls-2 {
        fill: #edb00a;
      }

      .cls-3 {
        fill: #3aaa35;
      }

      .cls-4 {
        fill: #c30017;
      }
    </style>
  </defs>
  <g id="Laag_2" data-name="Laag 2">
    <g id="Laag_1-2" data-name="Laag 1">
      <g>
        <path class="cls-1" d="M35.23,39.62l-9.12,8.72-17.55,0L.05,39.68,0,8.29,8.48,0l18.4,0,8.3,8.76v10l-14.51,0V13H14.52l0,22.43h6.16v-7l14.51,0Zm-4.36-1.87V32.62h-5.8v4.18l-2.76,2.83-9.27,0L10.2,36.83l0-25.59L13,8.8l9.27,0L25,11.24v3.45h5.8V10.17l-6-6-14.65,0L4.36,10.19l0,27.61,5.88,6.36,14.16,0Z"/>
        <path class="cls-2" d="M77.12,39.8l-8.55,8.72-18.2,0-8.43-8.7,0-31.29L50.32.19l18.2,0,8.57,8.77Zm-4.35-1.66,0-27.68L66.79,4.38l-14.13,0-6.4,6.09,0,27.68,5.88,6.15H66.83Zm-5.81-1-2.47,2.7H54.86L52.1,37.14l0-25.56L54.83,9h9.62l2.49,2.62Zm-4.35-1.51,0-22.45H56.42l0,22.44Z"/>
        <path class="cls-3" d="M119.09,39.77l-8.52,8.73-18.18.07-8.45-8.66L83.81,8.66,92.19.28,110.37.2,119,8.94Zm-4.36-1.65-.11-27.65-6-6.05-14.1,0-6.38,6.11.11,27.65,5.9,6.13,14.64-.06Zm-5.8-1-2.47,2.7-9.61,0-2.77-2.68L94,11.65,96.72,9l9.62,0,2.48,2.6Zm-4.36-1.5-.09-22.42-6.15,0,.09,22.41Z"/>
        <path class="cls-4" d="M160.2,48.51H124.93V35.6h3.14V13.17h-3.15V.19h20.52v13h-4.11V35.6H147V28.07H160.2Zm-4-4.21V32.2h-5.7v7.61H137.35V9h4.11V4.4H128.91V9h3.14V39.81h-3.14V44.3Z"/>
      </g>
    </g>
  </g>
</svg>
