<svg width="167px" height="152px" viewBox="0 0 167 152" version="1.1" xmlns="http://www.w3.org/2000/svg"
	xmlns:xlink="http://www.w3.org/1999/xlink">
	<g id="console-LandingPage" stroke="none" stroke-width="1" fill="none" fill-rule="evenodd">
		<g id="DaoCloud" fill-rule="nonzero">
			<g id="编组" transform="translate(37, 0)" fill="#0FD15D">
				<polygon id="路径" points="46.8 21.3 69.7 10 46.7 -1.41553436e-15 23.7 9.9"></polygon>
				<polygon id="路径" points="23.3 52.2 22.2 33.6 38.9 25.3 15.3 13.6 0 20.2 2 38.1"></polygon>
				<polygon id="路径" points="91.4 38 93.6 20.2 78.1 13.6 54.7 25.3 71.6 33.6 70.3 52.2"></polygon>
				<polygon id="路径" points="69.7 61.1 68 85.3 87.4 70.7 90.3 47.2"></polygon>
				<polygon id="路径" points="23.8 61.1 3.1 47.2 5.9 70.8 25.4 85.3"></polygon>
				<polygon id="路径" points="62.4 66 46.9 76.4 31.2 66 32.8 90.8 46.8 101.3 60.6 90.8"></polygon>
			</g>
			<g id="编组" transform="translate(0, 120)" fill="#0F1011">
				<g transform="translate(0, 1)" id="形状">
					<path
						d="M0,30.5441176 L0,0 L10.9720466,0 C17.09857,0 20.8858754,3.81801471 20.8858754,9.97242647 L20.8858754,20.6286765 C20.8858754,26.6691176 17.09857,30.6011029 10.9720466,30.6011029 L0,30.5441176 L0,30.5441176 Z M5.73665379,25.3584559 L10.9720466,25.3584559 C13.6454386,25.3584559 15.093526,23.5919118 15.093526,20.0588235 L15.093526,10.4283088 C15.093526,6.95220588 13.6454386,5.12867647 10.9720466,5.12867647 L5.73665379,5.12867647 L5.73665379,25.3584559 Z">
					</path>
					<path
						d="M47.452709,16.5827206 C47.452709,10.8841912 51.0172317,7.35110294 56.7538855,7.35110294 C62.4905393,7.35110294 65.9993664,10.8272059 65.9993664,16.5827206 L65.9993664,21.7113971 C66.0550621,27.4099265 62.4348436,30.9430147 56.7538855,30.9430147 C51.0172317,30.9430147 47.452709,27.4669118 47.452709,21.7113971 L47.452709,16.5827206 Z M52.9108844,21.2555147 C52.9108844,24.4466912 54.3032761,26.0992647 56.7538855,26.0992647 C59.2044949,26.0992647 60.5411909,24.4466912 60.5411909,21.2555147 L60.5411909,17.0386029 C60.5411909,13.8474265 59.1487992,12.1948529 56.7538855,12.1948529 C54.3032761,12.1948529 52.9665801,13.8474265 52.9665801,17.0386029 L52.9108844,21.2555147 Z">
					</path>
					<path
						d="M42.9413599,30.5441176 L38.2629238,30.5441176 L37.9844455,28.3786765 C36.7034451,29.9172794 34.3085314,31 31.690835,31 C27.4579642,31 24.2833112,27.9227941 24.2833112,24.1617647 C24.2833112,14.53125 37.3160975,14.4172794 37.3160975,14.4172794 C37.3160975,13.6764706 36.2578798,11.3970588 31.5794437,11.3970588 C30.187052,11.4540441 28.8503559,11.6819853 27.5136599,12.1378676 L26.4554422,9.11764706 C28.7389646,7.97794118 31.3009653,7.40808824 33.862966,7.35110294 C39.6553155,7.35110294 42.9970556,9.80147059 42.9970556,15.4430147 L42.9413599,30.5441176 L42.9413599,30.5441176 Z M32.8047484,26.6121324 C34.6427054,26.5551471 36.3692711,25.5863971 37.3717931,23.9908088 L37.3717931,17.7794118 C36.4806624,17.7794118 29.7414866,18.3492647 29.7414866,23.5919118 C29.685791,25.1875 30.9110957,26.4981618 32.4705744,26.5551471 C32.6376614,26.6121324 32.693357,26.6121324 32.8047484,26.6121324 L32.8047484,26.6121324 Z">
					</path>
				</g>
				<path
					d="M81.4047619,32 C75.4107143,32 71,28.2167577 71,22.2313297 L71,10.712204 C71,4.72677596 75.4107143,1 81.4047619,1 C85.1934524,1 87.4553571,2.07285974 90,3.87978142 L87.7946429,7.88888889 C85.6458333,6.70309654 84.2321429,6.02550091 81.4047619,6.02550091 C78.577381,6.02550091 76.7678571,8.00182149 76.7678571,11.276867 L76.7678571,21.7795993 C76.7678571,25.1675774 78.6339286,27.0309654 81.4047619,27.0309654 C84.2321429,27.0309654 85.6458333,26.3533698 87.7946429,25.1675774 L90,29.2331512 C87.4553571,30.9271403 85.1934524,32 81.4047619,32 Z"
					id="路径"></path>
				<path d="M93,31 L93,0 L99,0 L99,31 C98.9381443,31 93,31 93,31 Z" id="路径"></path>
				<path
					d="M104,17.985258 C104,12.3906634 107.457195,9 112.999683,9 C118.542171,9 121.999366,12.3906634 121.999366,17.985258 L121.999366,23.014742 C122.054242,28.6093366 118.542171,32 112.999683,32 C107.402319,32 104,28.6093366 104,23.014742 L104,17.985258 L104,17.985258 Z M109.268107,22.5626536 C109.268107,25.6707617 110.585134,27.3095823 112.999683,27.3095823 C115.359356,27.3095823 116.676383,25.6707617 116.676383,22.5626536 L116.676383,18.4938575 C116.676383,15.3857494 115.359356,13.7469287 112.999683,13.7469287 C110.585134,13.7469287 109.322983,15.3857494 109.322983,18.4938575 L109.268107,22.5626536 Z"
					id="形状"></path>
				<path
					d="M132.778481,32 C127.651899,32 126,29.0225564 126,23.5087719 L126,10 L131.525316,10 L131.525316,23.0676692 C131.525316,26.1553885 132.151899,27.4786967 134.316456,27.4786967 C136.082278,27.4786967 137.677215,26.5413534 138.474684,25.0526316 L138.474684,10 L144,10 L144,31.6140351 L139.21519,31.6140351 L138.759494,29.5739348 C137.107595,31.0626566 135,31.8897243 132.778481,32 Z"
					id="路径"></path>
				<path
					d="M162.333333,29.7142857 C160.722222,31.2195122 158.611111,32 156.444444,32 C151.555556,32 149,28.6550523 149,23.1358885 L149,17.7839721 C149,12.2090592 151.444444,9.31010453 156.277778,9.31010453 C158.111111,9.2543554 159.888889,9.6445993 161.611111,10.3135889 L161.611111,0 L167,0 L167,31.554007 L162.611111,31.554007 L162.333333,29.7142857 Z M161.611111,14.8850174 C160.333333,14.3275261 158.944444,13.9930314 157.5,14.0487805 C155.444444,14.0487805 154.333333,15.3310105 154.333333,18.174216 L154.333333,22.6341463 C154.333333,25.7003484 155.166667,27.3170732 157.611111,27.3170732 C159.277778,27.4285714 160.833333,26.5365854 161.611111,25.087108 L161.611111,14.8850174 L161.611111,14.8850174 Z"
					id="形状"></path>
			</g>
		</g>
	</g>
</svg>