<svg xmlns="http://www.w3.org/2000/svg" width="134.646" height="136.921" viewBox="0 0 35.625 36.227"><defs><path id="g" d="M-1168-188.7h2559.9v609.1H-1168z"/><path id="p" d="M-1134-189.7h2559.9v609.1H-1134z"/><path id="a" d="M-1167-188.7h2559.9v609.1H-1167z"/><path id="b" d="M-1166-188.7h2559.9v609.1H-1166z"/><path id="c" d="M-1167-187.7h2559.9v609.1H-1167z"/><path id="d" d="M-1168-188.7h2559.9v609.1H-1168z"/><path id="e" d="M-1168-188.7h2559.9v609.1H-1168z"/><path id="f" d="M-1168-188.7h2559.9v609.1H-1168z"/><path id="o" d="M-1134-189.7h2559.9v609.1H-1134z"/><path id="h" d="M-1168-188.7h2559.9v609.1H-1168z"/><path id="i" d="M-1168-188.7h2559.9v609.1H-1168z"/><path id="j" d="M-1168-188.7h2559.9v609.1H-1168z"/><path id="k" d="M-1168-188.7h2559.9v609.1H-1168z"/><path id="l" d="M-1168-188.7h2559.9v609.1H-1168z"/><path id="m" d="M-1168-188.7h2559.9v609.1H-1168z"/><path id="n" d="M-1168-188.7h2559.9v609.1H-1168z"/></defs><path style="fill:#232527;fill-opacity:1;fill-rule:nonzero;stroke:none;stroke-width:.61020035" d="M32.008 152.133v3.386c0 .962-.477 1.475-1.344 1.475-.872 0-1.352-.528-1.352-1.516v-3.34h-1.2v3.381c0 1.664.924 2.618 2.536 2.618 1.627 0 2.56-.972 2.56-2.667v-3.337zm4.414 0-2.606 5.911h1.225l.503-1.144.036-.086h2.706l.531 1.23h1.258l-2.581-5.876-.023-.035zm7.133 0-1.343 4.068-1.307-4.065h-1.277l2.061 5.912h.994l1.345-3.883 1.344 3.883h1.002l2.056-5.912h-1.244l-1.31 4.065-1.343-4.068zm11.74 0v5.906h1.183v-5.906zm-33.956 0v5.915h1.2v-2.402h2.71v2.402h1.2v-5.914h-1.2v2.386h-2.71v-2.386zm28.058.005v5.906h4.467v-1.077H50.58v-1.465h2.183v-1.077H50.58v-1.21h3.168v-1.077zM36.93 153.63l.856 1.98h-.003l.058.137h-1.815l.057-.137z" transform="translate(-21.07 -121.91)"/><path d="M36.282 121.91c-.476.042-1.762.334-1.762.334-2.9.75-3.585 3.38-3.585 3.38a5.09 5.09 0 0 0-.225 1.323v.582a7.15 7.15 0 0 0 .238 1.569c.969 4.294 5.73 11.35 6.753 12.831.073.072.131.046.131.046.11-.03.102-.136.102-.136h.002c1.576-15.754-1.654-19.93-1.654-19.93zm5.208 0s-3.245 4.178-1.667 19.94h.002c.012.1.083.122.083.122.106.04.16-.06.16-.06 1.05-1.52 5.784-8.537 6.748-12.814 0 0 .523-2.07.018-3.474 0 0-.716-2.671-3.62-3.377 0 0-.836-.213-1.724-.338zm-14.965 4.729s-2.762 2.622-2.9 5.401h.001v.421l.006.096c.12 2.242 1.805 3.568 1.805 3.568 2.717 2.648 9.295 5.99 10.823 6.749.022.008.1.034.147-.025 0 0 .024-.018.035-.051v-.07c0-.004-.003-.008-.005-.012-4.185-9.145-9.912-16.077-9.912-16.077zm24.715 0s-5.71 6.91-9.893 16.037h.001s-.05.105.03.173c0 0 .025.018.058.026h.058a.11.11 0 0 0 .032-.015v.001c1.57-.78 8.097-4.1 10.801-6.735 0 0 1.712-1.376 1.802-3.583.198-3.066-2.889-5.904-2.889-5.904zm5.139 9.078s-9.308 4.995-14.12 8.242v.001s-.086.057-.056.16c0 0 .046.083.112.083 1.724.003 8.247.01 8.41-.02 0 0 .844-.034 1.886-.434 0 0 2.32-.738 3.526-3.372 0 0 .55-1.101.558-2.649v-.066a6.287 6.287 0 0 0-.316-1.945zm-34.995.024c-.847 2.621.293 4.734.295 4.737 1.188 2.51 3.456 3.271 3.456 3.271a6.7 6.7 0 0 0 2.094.46c.164.03 6.513.003 8.214-.005.072 0 .112-.073.112-.073a.093.093 0 0 0 .011-.023v-.065a.183.183 0 0 0-.051-.075c-4.81-3.246-14.131-8.227-14.131-8.227zm13.865 9.27-10.95.383c1.188 2.117 3.187 3.762 5.27 3.257 1.438-.36 4.695-2.631 5.77-3.399l-.003-.003c.083-.075.053-.135.053-.135-.027-.098-.14-.098-.14-.098zm7.252.007v.004s-.097.013-.124.085c0 0-.023.098.041.147 1.048.753 4.226 2.974 5.757 3.406 0 0 .232.079.62.093h.234c1.026-.036 2.812-.563 4.436-3.353z" style="fill:#cf0a2c;fill-opacity:1;stroke:none;stroke-width:.61020029" transform="translate(-21.07 -121.91)"/></svg>