<svg xmlns="http://www.w3.org/2000/svg" xmlns:xlink="http://www.w3.org/1999/xlink" width="1550.678" height="406.338" viewBox="0 0 410.284 107.51"><defs><linearGradient id="g"><stop style="stop-color:#ee0a3f;stop-opacity:1" offset="0"/><stop style="stop-color:#ee0a3f;stop-opacity:0" offset="1"/></linearGradient><linearGradient id="d"><stop style="stop-color:#6fc4ea;stop-opacity:1" offset="0"/><stop style="stop-color:#bce4f5;stop-opacity:1" offset="1"/></linearGradient><linearGradient id="b"><stop style="stop-color:#4eb745;stop-opacity:1" offset="0"/><stop style="stop-color:#c8db30;stop-opacity:1" offset="1"/></linearGradient><linearGradient id="a"><stop style="stop-color:#f6a51f;stop-opacity:1" offset="0"/><stop style="stop-color:#ffd42a;stop-opacity:1" offset="1"/></linearGradient><linearGradient id="e" y2=".5" x2="1.001" y1=".5" x1="-.001" gradientUnits="userSpaceOnUse"><stop stop-color="#ff9200" offset="0"/><stop stop-color="#f36d00" offset=".29"/><stop stop-color="#f4680b" offset=".32"/><stop stop-color="#f83c72" offset=".57"/><stop stop-color="#fc1cbe" offset=".78"/><stop stop-color="#fe08ed" offset=".93"/><stop stop-color="#f0f" offset="1"/></linearGradient><linearGradient gradientUnits="userSpaceOnUse" x1="-.001" y1=".5" x2="1.001" y2=".5" id="f"><stop style="stop-color:#ffb900;stop-opacity:1" offset="0" stop-color="#ff9200"/><stop style="stop-color:#f38000;stop-opacity:1" offset=".338" stop-color="#f36d00"/><stop offset=".567" stop-color="#f83c72"/><stop offset=".78" stop-color="#fc1cbe"/><stop offset=".93" stop-color="#fe08ed"/><stop offset="1" stop-color="#f0f"/></linearGradient><linearGradient id="h"><stop style="stop-color:#ed6600;stop-opacity:1" offset="0"/><stop style="stop-color:#f98200;stop-opacity:1" offset="1"/></linearGradient><linearGradient id="c"><stop offset="0" style="stop-color:#f8ad1b;stop-opacity:1"/><stop offset="1" style="stop-color:#fec80d;stop-opacity:1"/></linearGradient><linearGradient xlink:href="#e" id="i" gradientUnits="userSpaceOnUse" x1="-.001" y1=".5" x2="1.001" y2=".5"/><linearGradient xlink:href="#f" id="j" gradientUnits="userSpaceOnUse" x1="-.001" y1=".5" x2="66.758" y2="-.017"/><linearGradient xlink:href="#g" id="k" x1="18.754" y1="49.006" x2="86.818" y2="11.32" gradientUnits="userSpaceOnUse"/><linearGradient xlink:href="#h" id="m" x1="41.793" y1="39.349" x2="75.037" y2="12.569" gradientUnits="userSpaceOnUse"/><linearGradient xlink:href="#g" id="l" gradientUnits="userSpaceOnUse" x1="18.754" y1="49.006" x2="86.818" y2="11.32"/><linearGradient xlink:href="#h" id="n" gradientUnits="userSpaceOnUse" x1="41.793" y1="39.349" x2="75.037" y2="12.569"/></defs><g style="fill:#000083;fill-opacity:1;fill-rule:evenodd;stroke:#000;stroke-width:1;stroke-linecap:square;stroke-linejoin:bevel"><g style="fill:#000083;fill-opacity:1;stroke:none"><path style="vector-effect:none;fill:#000083;fill-opacity:1;fill-rule:nonzero" d="M90.447 6.624h6.529V38.04h11.254v6.201H90.474l-.027-37.616" transform="matrix(1.42346 0 0 1.42346 38.935 5.609)"/></g><g style="fill:#000083;fill-opacity:1;stroke:none"><path style="vector-effect:none;fill:#000083;fill-opacity:1;fill-rule:nonzero" d="M123.35 16.049a11.065 11.065 0 0 1 8.865 4.261V16.61h6.091v27.686h-6.091v-3.702a11.065 11.065 0 0 1-8.865 4.262c-7.594 0-13.358-6.488-13.358-14.41s5.764-14.396 13.358-14.396m1.107 5.545c-4.931 0-8.196 3.88-8.196 8.85 0 4.973 3.319 8.865 8.196 8.865 4.876 0 8.195-3.879 8.195-8.864 0-4.985-3.265-8.85-8.195-8.85" transform="matrix(1.42346 0 0 1.42346 38.935 5.609)"/></g><g style="fill:#000083;fill-opacity:1;stroke:none"><path style="vector-effect:none;fill:#000083;fill-opacity:1;fill-rule:nonzero" d="m143.046 39.487 14.519-17.346h-14.301v-5.532h22.168v4.876l-14.464 17.278h14.792v5.532h-22.714v-4.808" transform="matrix(1.42346 0 0 1.42346 38.935 5.609)"/></g><g style="fill:#000083;fill-opacity:1;stroke:none"><path style="vector-effect:none;fill:#000083;fill-opacity:1;fill-rule:nonzero" d="M181.249 16.049a11.063 11.063 0 0 1 8.864 4.261V16.61h6.092v27.686h-6.092v-3.702a11.063 11.063 0 0 1-8.864 4.262c-7.594 0-13.345-6.488-13.345-14.41s5.751-14.396 13.345-14.396m1.106 5.545c-4.931 0-8.195 3.88-8.195 8.85 0 4.973 3.319 8.865 8.195 8.865s8.195-3.879 8.195-8.864c0-4.985-3.264-8.85-8.195-8.85" transform="matrix(1.42346 0 0 1.42346 38.935 5.609)"/></g><g style="fill:#000083;fill-opacity:1;stroke:none"><path style="vector-effect:none;fill:#000083;fill-opacity:1;fill-rule:nonzero" d="M213.606 16.049a11.024 11.024 0 0 1 8.851 4.261V4.398h6.091v39.897h-6.091v-3.702a11.024 11.024 0 0 1-8.851 4.262c-7.594 0-13.358-6.488-13.358-14.41s5.764-14.396 13.358-14.396m1.106 5.545c-4.931 0-8.195 3.88-8.195 8.85 0 4.973 3.333 8.865 8.195 8.865 4.863 0 8.195-3.879 8.195-8.864 0-4.985-3.264-8.85-8.195-8.85" transform="matrix(1.42346 0 0 1.42346 38.935 5.609)"/></g><g style="fill:#000083;fill-opacity:1;stroke:none"><path style="vector-effect:none;fill:#000083;fill-opacity:1;fill-rule:nonzero" d="M245.949 16.049a11.023 11.023 0 0 1 8.851 4.261V16.61h6.078v27.686h-6.105v-3.702a11.024 11.024 0 0 1-8.851 4.262c-7.594 0-13.358-6.488-13.358-14.41s5.791-14.396 13.385-14.396m1.107 5.545c-4.931 0-8.196 3.88-8.196 8.85 0 4.973 3.333 8.865 8.196 8.865 4.862 0 8.195-3.879 8.195-8.864 0-4.985-3.265-8.85-8.195-8.85" transform="matrix(1.42346 0 0 1.42346 38.935 5.609)"/></g></g><g style="fill:url(#i);fill-rule:evenodd;stroke:none;stroke-width:1;stroke-linecap:square;stroke-linejoin:bevel" transform="translate(-.049) scale(1.96487)"><path style="vector-effect:none;fill:url(#j);fill-rule:nonzero" d="M33.737 54.716c-.479.003-.95-.12-1.366-.355-3.565-2.063-29.967-18.617-30.964-19.122A2.39 2.39 0 0 1 .04 33.327v-23.22A2.513 2.513 0 0 1 1.175 7.95l.19-.109C3.92 6.256 12.47 1.038 13.823.287A2.05 2.05 0 0 1 14.847 0c.338.004.67.088.97.246 0 0 11.964 7.799 13.795 8.495a9.438 9.438 0 0 0 4.097.861 9.178 9.178 0 0 0 4.59-1.12C40.087 7.54 51.52.287 51.642.287c.288-.174.62-.264.956-.26.361.002.715.101 1.024.287 1.558.86 12.157 7.348 12.607 7.635a2.458 2.458 0 0 1 1.188 2.131V33.3a2.363 2.363 0 0 1-1.365 1.912c-.997.546-27.317 17.1-30.95 19.122a2.732 2.732 0 0 1-1.366.382"/></g><g style="fill:url(#k);fill-opacity:1;fill-rule:evenodd;stroke:none;stroke-width:1;stroke-linecap:square;stroke-linejoin:bevel" transform="translate(-.049) scale(1.96487)"><path style="vector-effect:none;fill:url(#l);fill-opacity:1;fill-rule:nonzero" d="M33.6 54.716h.137c.478.003.95-.12 1.365-.355 3.565-2.063 29.954-18.617 30.95-19.122a2.363 2.363 0 0 0 1.366-1.912v-23.22a2.484 2.484 0 0 0-.259-1.133L33.6 27.399v27.317"/></g><g style="fill:url(#m);fill-opacity:1;fill-rule:evenodd;stroke:none;stroke-width:1;stroke-linecap:square;stroke-linejoin:bevel"><path d="M33.6 54.716h.137c.478.003.95-.12 1.365-.355 3.565-2.063 29.954-18.617 30.95-19.122a2.363 2.363 0 0 0 1.366-1.912v-23.22a2.484 2.484 0 0 0-.259-1.133L33.6 27.399v27.317" style="vector-effect:none;fill:url(#n);fill-opacity:1;fill-rule:nonzero" transform="matrix(-1.94394 0 0 1.94394 131.058 .502)"/></g></svg>