<svg xmlns="http://www.w3.org/2000/svg" viewBox="0 0 1000 1000" xml:space="preserve"><path d="M654.5 163.8c.6 36.6 44.2-7.8 55.6-10.3 11.8-6.7 22.9-13.9 37.6-7.5 10.6 4.6 4.9 18.4 14.3 22.7 5.6 3.5 18.8 5.5 25.4 6.2 12.6 1.5-12.9 27-11.4 32.9 3.3 12.9 9.1 27.2 15.2 37.9 1.6 21.4 22.8 38.1 39.5 45.3 0 5.1 32.1 28.6 37.5 34.6 2.7 8.1 14.2 17.8 19.4 24.3 6.8 8.5 18 30.3 27.2 35.8 1.4 25.8-1 60.6 6.2 85.2 6.1 20.7-1.2 42.6 18.5 56.8 7.7 5.6 15.5 12.9 25.1 14.8 3.1 2.1 13 6.1 8.2 9.9-1.1 13.2-12.1-3-11.5 17.3-17.6 1-13.2-7.8-19.8 11.9 9.4 4.1 10.9 23.8 18.5 30.5 8.7 12.1 31.6 31.5 29.9 47.1-5.1 45.7-2.7 94.5-2.7 140.5 0 15.9-1.8 30.2 1.8 45.5 6.1 26-32.7 21.5-47.9 19.7 1.8-10.6 19.5-15.6 23.9-25.9-.5 0 2.6-38.7 2.6-44.3 0-28.5-.7-68.8-13.3-94.9-15-31-24.6-73.9-56-96.4 0-13.6-57.9-69-71.1-65.9-13.6 3.2-17.6 56-17.9 65.5-13.1 4.4-.7 77.5-14 87.3-31.6 23.2-48.7 56.6-68.4 86.9-7.3 11.2-16.7 21.6-22.6 33.8-.7 5.8-6.8 10.9-8.6 16.5-2.9 5.6-2.8 13.5-7.1 17.6-4.4 4.1-10.3-2.1-15.2 3-3.6 3.8-29.2 8-29.2 3.7-3.1 0 9.1-12.4 10.3-14.4 6.4-5.2 21.3-24.7 29.6-24.7 3.4-13.3 18.4-27.3 24.9-38.4 10.2-17.4 19.9-36.5 27-55.1 1.4-15.8 12.9-31.3 13.2-46.5.3-13.4 6.5-29.4 9.9-42.8 1.3-16.5 2.5-31.4 2.5-48.9 0-15.8-10.1-19.2-13.2-32.3-2.4-10.2 9-20.3.9-31.1-6.9-9.1 13.1-60.7 4.1-61.2-9-6-29.4-1.6-39.9-4.5-12-3.4-41.8-5.3-53.5-.4-16 6.7-30.6 18.3-47.8 23.9 0 4.6-33.6 16.9-39.9 19.4-10.1 0-19 8-28.8 10.3-15.3 0-34.4-6.2-39.9 10.7-.9 13.2-7 27.1-7.8 40.4-.8 12.6 2.5 25.1 2.5 36.7 8.1 36 8.9 66.7 7.4 104.6-2.8 11.3-3.7 25.3-3.7 35.8-2.3 10-1.6 21.9-2.5 32.1-5.6-3.1 14.1 7.5 14 7.4 6.4 8.8-1.6 26.4-12.3 25.9-17.1-.8-.8 39.5-6.2 48.2-4.8 14.2-45.1 4.1-34.2-2.5 9.5-13.3 22.9-45.3 11.5-60.5-10.5-14.2-16.9-28.5-28.4-42-3.6-12.7-19.7-17.5-26.8-28 0-11.5-29.2-20.9-29.2-32.9-4.5-1.1-12.2-11.6-15.2-15.2-15.3-11.6-23.2-23.6-18.5-42.8 7.9-32 48-51.8 58.4-83.2 8-10.1 6.3-25 15.2-35.4 22-25.7-20.6-33.8-20.6-53.1-20.4-41.8-93.5-12.8-131-31.3-5.5-6.9-25.2-15.4-33.8-20.2-12.8-2.1-23.5-27.1-35.8-28.4-1.2-8.2-25.5-29-32-35.9-12.7-13.4-30.2-25-40.1-39-13.7-19.4-1.8-42.8-24.3-56.8-20.2-12.6-50.7-7.7-72.9-16.9-10.6-1.9-30.2-3.6-26.8-16.1-.5-9.2 2.3-23.5 10.7-29.6C43 161 72.7 164.5 97.7 161.7c15.8-7.2 102-25.9 99.7 3.2-1.5 19.1 12.3 35.3 12.3 54.4 3.1 12.9 7.7 23.9 13.2 35 0 19 33.8 46.5 47.8 56 23.7 16.2 85.4 11.3 107.5-5.9 20-15.6 34.3-37.6 53.5-53 16.2-13 27.1-16.4 47.4-21.4 22.7-5.6 52 5.8 70-7.4 3.9 0 10.5-28.7 13.2-32.5 13.3-18.9 35 6.1 48.2-12.8 8.5-12.2 7.4-23 14.9-36.3 14.5-25.8 25.5 22.8 29.1 22.8 0 4.7 0 0 0 0zM442.4 562c0 1.9-14.4 26.1-15.6 26.8-7.1 12.4-15.7 20.7-21.4 36.2-6.2 16.9 2.4 38.3 11.5 50.2 6.1 7.9 23.8 38.7 35 38.7 3.3 2.7 23.8 28.4 24.3 22.7 9-13.2-4-57.8-5.4-74.5-6.6-21.6-5.5-44.1-9.9-66.3 0-16.4-1.9-36.9-18.5-33.8 0 1.2 0 0 0 0z"/></svg>