<svg xmlns="http://www.w3.org/2000/svg" class="shopee-svg-icon _1ayx1Y XLYSy4 icon-shopee-logo" width="1000" height="319.701"><g style="fill:#ee4d2d;fill-rule:evenodd"><path d="M35.672 44.954c-.334 2.75-2 4.954-4.583 6.057-1.438.615-3.368.947-4.897.843-2.384-.092-4.623-.671-6.688-1.731-.737-.38-1.837-1.135-2.681-1.844-.214-.179-.24-.294-.098-.494.076-.116.217-.323.529-.78.451-.661.508-.744.558-.822.145-.222.38-.24.611-.059l.043.034.127.099.167.128c2.226 1.744 4.82 2.75 7.437 2.85 3.643-.05 6.262-1.687 6.731-4.202.516-2.767-1.656-5.158-5.907-6.49-1.33-.417-4.69-1.762-5.309-2.125-2.91-1.707-4.27-3.943-4.076-6.705.296-3.829 3.85-6.684 8.34-6.703 2.009-.004 4.013.413 5.938 1.225.681.287 1.898.95 2.319 1.263.242.178.29.385.15.608-.077.13-.205.335-.475.764l-.003.004-.448.714c-.14.214-.306.234-.56.073-2.06-1.384-4.344-2.08-6.855-2.13-3.127.062-5.471 1.923-5.625 4.458-.041 2.29 1.676 3.961 5.386 5.235 7.53 2.42 10.411 5.257 9.869 9.73m-9.3-39.527c4.903 0 8.899 4.652 9.086 10.475h-18.17c.187-5.823 4.182-10.475 9.085-10.475m25.37 11.57c0-.604-.487-1.095-1.087-1.095H38.878c-.288-7.689-5.777-13.82-12.505-13.82-6.729 0-12.217 6.131-12.506 13.82H2.073a1.091 1.091 0 0 0-1.065 1.18H1l1.681 37.062a4.38 4.38 0 0 0 .018.382l.003.078.004.004c.256 2.58 2.127 4.656 4.672 4.752l.006.006h37.412a4.379 4.379 0 0 0 .106 0h.08l.002-.002c2.59-.07 4.686-2.177 4.908-4.787l.001-.002.002-.035a5.697 5.697 0 0 0 .014-.278l1.834-37.208h-.001a.964.964 0 0 0 .001-.057m124.722 24.155c.721-2.351 2.9-3.919 5.444-3.919 2.428 0 4.74 1.649 5.538 3.914l.055.156h-11.083zm13.503 3.406.037.001h.044c.531-.025.951-.477.951-1.028 0-.027 0-.05-.003-.086v-.064c0-5.193-4.07-9.4-9.091-9.4-5.02 0-9.091 4.207-9.091 9.4 0 .387.022.773.068 1.157l.003.02.014.102a9.165 9.165 0 0 0 2.306 4.97l.007.008c1.396 1.537 3.291 2.584 5.394 2.975l.027.005v-.002l.137.023.243.039c2.767.332 5.221-.067 7.3-1.113a9.038 9.038 0 0 0 1.37-.843 6.058 6.058 0 0 0 .458-.383c.469-.483.498-.655.215-1.096a47.963 47.963 0 0 0-1.036-1.58l-.055-.078-.013-.02-.003-.003c-.257-.32-.432-.348-.716-.097-.03.027-.132.105-.15.124-2 1.776-4.73 2.347-7.456 1.776a8.251 8.251 0 0 1-1.42-.518c-1.708-.857-2.918-2.383-3.268-4.15l-.027-.139zm-35.136-3.406c.72-2.351 2.9-3.919 5.444-3.919 2.427 0 4.739 1.649 5.537 3.914l.055.156h-11.083zm13.503 3.406.037.001h.044c.53-.025.95-.477.95-1.028 0-.027 0-.05-.003-.086v-.064c0-5.193-4.07-9.4-9.09-9.4s-9.092 4.207-9.092 9.4c0 .387.023.773.068 1.157l.003.02.014.102a9.165 9.165 0 0 0 2.307 4.97l.007.008c1.396 1.537 3.29 2.584 5.393 2.975l.028.005v-.002l.136.023.244.039c2.767.332 5.22-.067 7.299-1.113a9.038 9.038 0 0 0 1.37-.843 6.058 6.058 0 0 0 .458-.383c.469-.483.498-.655.215-1.096a47.968 47.968 0 0 0-1.036-1.58l-.054-.078-.014-.02-.002-.003c-.256-.32-.432-.348-.716-.097-.03.027-.132.105-.15.124-2 1.776-4.73 2.347-7.456 1.776a8.251 8.251 0 0 1-1.42-.518c-1.708-.857-2.918-2.383-3.267-4.15l-.028-.139zm-30.014 5.178c-3.38 0-6.146-2.681-6.231-6.04v-.317c.084-3.354 2.85-6.035 6.231-6.035 3.443 0 6.234 2.774 6.234 6.196 0 3.422-2.791 6.196-6.234 6.196m.002-15.68a9.54 9.54 0 0 0-6.04 2.141l-.193.158V34.62c0-.463-.1-.564-.567-.564h-2.177c-.474 0-.567.094-.567.564v27.64c0 .454.105.564.567.564h2.177c.463 0 .567-.108.567-.564V50.734l.194.158a9.54 9.54 0 0 0 6.04 2.14c5.27 0 9.544-4.247 9.544-9.488 0-5.24-4.273-9.487-9.545-9.487m-22.415 15.467c-3.45 0-6.246-2.75-6.246-6.143 0-3.392 2.797-6.142 6.246-6.142 3.449 0 6.245 2.75 6.245 6.142 0 3.393-2.796 6.143-6.245 6.143m.002-15.544c-5.282 0-9.563 4.212-9.563 9.406 0 5.195 4.281 9.406 9.563 9.406 5.282 0 9.562-4.211 9.562-9.406 0-5.194-4.28-9.406-9.562-9.406m-21.318.21c-1.928 0-3.794.619-5.341 1.765l-.189.139V23.257c0-.425-.14-.564-.565-.564H86.22c-.46 0-.565.11-.565.564v29.284c0 .443.113.565.565.565h2.278c.423 0 .565-.146.565-.565v-9.565c.024-3.011 2.493-5.441 5.53-5.441 3.045 0 5.517 2.442 5.53 5.463v9.543c0 .484.08.564.565.564h2.273c.482 0 .565-.082.565-.564V42.97c-.018-4.828-4.044-8.78-8.933-8.78M62.846 47.793l-.005.008c-.325.492-.46.7-.537.818-.256.381-.224.551.167.882.913.735 2.086 1.508 2.877 1.895 2.203 1.077 4.581 1.646 7.102 1.698 1.629.082 3.674-.305 5.197-.984 2.756-1.23 4.513-3.627 4.82-6.58.499-4.784-2.614-7.775-10.632-10.185h-.002c-3.736-1.205-5.49-2.807-5.491-5.043.11-2.472 2.402-4.318 5.493-4.433 2.49.006 4.693.667 6.856 2.06.456.276.667.225.973-.173.036-.058.134-.2.544-.79l.001-.002c.383-.55.509-.733.54-.788.259-.486.222-.673-.245-1.004-.46-.33-1.753-1.003-2.493-1.298-2.059-.821-4.187-1.22-6.305-1.179-4.82.105-8.578 3.24-8.826 7.352-.157 2.97 1.35 5.358 4.5 7.124.883.466 4.112 1.687 5.618 2.128 4.285 1.255 6.52 3.563 6.058 6.286-.42 2.475-3.012 4.12-6.65 4.233-2.638-.055-5.297-1.022-7.605-2.756l-.178-.133-.174-.13c-.47-.324-.747-.297-1.034.13l-.569.864" style="fill:#ee4d2d" transform="translate(-5.263 -10.957) scale(5.26316)"/></g></svg>