<svg xmlns="http://www.w3.org/2000/svg" viewBox="0 0 127.5 28.6" style="enable-background:new 0 0 127.5 28.6" xml:space="preserve"><path d="M126.8 3.9h-3c-.4 0-.6.3-.6.6v23c0 .4.3.6.6.6h3c.4 0 .6-.3.6-.6V4.6c.1-.4-.2-.7-.6-.7" style="fill:#503593"/><path d="M15.2 2.4 13 .2c-.3-.3-.7-.3-.9 0L9.9 2.4c-.3.3-.3.7 0 .9l2.2 2.2c.3.3.7.3.9 0l2.2-2.2c.3-.2.3-.7 0-.9" style="fill:#79be43"/><path d="M83.7 24.4H68.6c-1.2 0-2.2-1-2.2-2.2v-1.9c0-1.2 1-2.2 2.2-2.2h12.8c.4 0 .6-.3.6-.6v-2.6c0-.4-.3-.6-.6-.6H68.6c-1.2 0-2.2-1-2.2-2.2v-1.7c0-1.2 1-2.2 2.2-2.2h14.6c.4 0 .6-.3.6-.6v-3c0-.4-.3-.6-.6-.6H62.7c-.4 0-.6.3-.6.6v23c0 .4.3.6.6.6h21c.4 0 .6-.3.6-.6V25c.1-.4-.2-.6-.6-.6" style="fill:#8e278f"/><path d="M46.5 17.5h-6.7c-1.2 0-2.2-1-2.2-2.2v-5.2c0-1.2 1-2.2 2.2-2.2h6.7c2.7 0 4.8 2.2 4.8 4.8s-2.1 4.8-4.8 4.8m6.5-11c-1.6-1.6-3.8-2.6-6.2-2.6H30c-.4 0-.6.3-.6.6v2.6c0 .4.3.6.6.6h1c1.2 0 2.2 1 2.2 2.2v17.5c0 .4.3.6.6.6h3c.4 0 .6-.3.6-.6v-3.8c0-1.4 1.1-2.5 2.5-2.5h6.8c2.3 0 4.5-.9 6.2-2.6 1.6-1.6 2.6-3.8 2.6-6.2s-.8-4.2-2.5-5.8" style="fill:#b92673"/><path d="m24.8 25.5-8.9-8.9c-.3-.3-.3-.7 0-.9l8.9-8.9c.3-.3.3-.7 0-.9l-2-2c-.3-.3-.7-.3-.9 0L13.7 12c-.7.7-1.7.7-2.4 0L3.1 3.8c-.3-.3-.7-.3-.9 0l-2 2c-.3.3-.3.7 0 .9l8.9 8.9c.3.3.3.7 0 .9L.2 25.4c-.3.3-.3.7 0 .9l2 2c.3.3.7.3.9 0l8.2-8.2c.7-.7 1.7-.7 2.4 0l8.2 8.2c.3.3.7.3.9 0l2-2c.2-.2.2-.6 0-.8" style="fill:#e1186f"/><path d="M106.7 16.9h-6.9c-1.2 0-2.2-1-2.2-2.2v-4.6c0-1.2 1-2.2 2.2-2.2h6.9c2.5 0 4.6 2 4.6 4.6 0 2.4-2.1 4.4-4.6 4.4m10.1 10.9c0-.1 0-.2-.1-.3l-5.5-6.5-.3-.4c-.1-.1-.1-.2-.1-.4s.1-.4.3-.5c.7-.4 1.4-.8 2-1.4 1.6-1.6 2.6-3.7 2.6-6s-.9-4.4-2.5-6c-1.6-1.6-3.7-2.5-6-2.5H90.1c-.4 0-.6.3-.6.6V7c0 .4.3.6.6.6h1c1.2 0 2.2 1 2.2 2.2v17.5c0 .4.3.6.6.6h3c.4 0 .6-.3.6-.6v-4.5c0-1.2 1-2.2 2.2-2.2h5c.5 0 1 .2 1.3.6l4.3 5.1 1 1.1c.3.3.7.6 1.2.6h3.6c.5.3.7 0 .7-.2" style="fill:#623996"/></svg>