<svg width="956.941202px" height="705px" viewBox="0 0 956.941202 705" version="1.1" xmlns="http://www.w3.org/2000/svg"
    xmlns:xlink="http://www.w3.org/1999/xlink">
    <defs>
        <linearGradient x1="50%" y1="0%" x2="50%" y2="100%" id="linearGradient-hq-604x7xp-1">
            <stop stop-color="#F7F7F7" stop-opacity="0.05" offset="0%"></stop>
            <stop stop-color="#C8E2FE" stop-opacity="0.1" offset="24.7131774%"></stop>
            <stop stop-color="#C8E2FE" stop-opacity="0.1" offset="82.697771%"></stop>
            <stop stop-color="#FFFFFF" stop-opacity="0.03" offset="100%"></stop>
        </linearGradient>
        <linearGradient x1="50%" y1="0%" x2="50%" y2="100%" id="linearGradient-hq-604x7xp-2">
            <stop stop-color="#F7F7F7" stop-opacity="0.05" offset="0%"></stop>
            <stop stop-color="#F2DAFF" stop-opacity="0.19" offset="24.9180507%"></stop>
            <stop stop-color="#F2DAFF" stop-opacity="0.0501317637" offset="84.5388986%"></stop>
            <stop stop-color="#FCFCFC" stop-opacity="0.01" offset="100%"></stop>
        </linearGradient>
        <linearGradient x1="50%" y1="0%" x2="50%" y2="97.4759615%" id="linearGradient-hq-604x7xp-3">
            <stop stop-color="#F6F6F6" stop-opacity="0.05" offset="0%"></stop>
            <stop stop-color="#F2DAFF" stop-opacity="0.0912904313" offset="28.5702579%"></stop>
            <stop stop-color="#F2DAFF" stop-opacity="0.1" offset="82.0121285%"></stop>
            <stop stop-color="#F8F8F8" stop-opacity="0.01" offset="100%"></stop>
        </linearGradient>
        <linearGradient x1="50%" y1="0%" x2="50%" y2="94.3492125%" id="linearGradient-hq-604x7xp-4">
            <stop stop-color="#FFFFFF" stop-opacity="0.1" offset="0%"></stop>
            <stop stop-color="#C8E2FE" stop-opacity="0.1" offset="24.379917%"></stop>
            <stop stop-color="#C8E2FE" stop-opacity="0.1" offset="84.2083698%"></stop>
            <stop stop-color="#FFFFFF" stop-opacity="0.03" offset="100%"></stop>
        </linearGradient>
        <path
            d="M490.56215,492 C577.546998,492 648.06215,421.484848 648.06215,334.5 C648.06215,247.515152 577.546998,177 490.56215,177 C403.577302,177 333.06215,247.515152 333.06215,334.5 C333.06215,421.484848 403.577302,492 490.56215,492 Z"
            id="path-hq-604x7xp-5"></path>
        <mask id="mask-hq-604x7xp-6" maskContentUnits="userSpaceOnUse" maskUnits="objectBoundingBox" x="0" y="0"
            width="315" height="315" fill="white">
            <use xlink:href="#path-hq-604x7xp-5"></use>
        </mask>
        <path
            d="M490.56215,492 C577.546998,492 648.06215,421.484848 648.06215,334.5 C648.06215,247.515152 577.546998,177 490.56215,177 C403.577302,177 333.06215,247.515152 333.06215,334.5 C333.06215,421.484848 403.577302,492 490.56215,492 Z"
            id="path-hq-604x7xp-7"></path>
        <mask id="mask-hq-604x7xp-8" maskContentUnits="userSpaceOnUse" maskUnits="objectBoundingBox" x="0" y="0"
            width="315" height="315" fill="white">
            <use xlink:href="#path-hq-604x7xp-7"></use>
        </mask>
    </defs>
    <g id="console-LandingPage" stroke="none" stroke-width="1" fill="none" fill-rule="evenodd">
        <line x1="490.870774" y1="287.277442" x2="492.06215" y2="71" id="路径-11" stroke="#000000" stroke-width="5"
            stroke-dasharray="6"></line>
        <line x1="558.279245" y1="302.941506" x2="760.801182" y2="185.619832" id="路径-11" stroke="#000000"
            stroke-width="5" stroke-dasharray="6"></line>
        <polygon id="三角形" fill="url(#linearGradient-hq-604x7xp-1)"
            transform="translate(558.8461, 459.7815) rotate(-30) translate(-558.8461, -459.7815)"
            points="558.846088 325.281458 713.846088 594.281458 403.846088 594.281458"></polygon>
        <polygon id="三角形" fill="url(#linearGradient-hq-604x7xp-2)"
            transform="translate(558.7461, 224.1758) rotate(-150) translate(-558.7461, -224.1758)"
            points="558.746088 89.6757662 713.746088 358.675766 403.746088 358.675766"></polygon>
        <polygon id="三角形" fill="url(#linearGradient-hq-604x7xp-3)"
            transform="translate(423.7753, 456.2811) rotate(-330) translate(-423.7753, -456.2811)"
            points="423.775259 321.781093 578.775259 590.781093 268.775259 590.781093"></polygon>
        <polygon id="三角形" fill="url(#linearGradient-hq-604x7xp-4)"
            transform="translate(423.5461, 223.9222) rotate(-210) translate(-423.5461, -223.9222)"
            points="423.546088 89.4222454 578.546088 358.422245 268.546088 358.422245"></polygon>
        <line x1="223.040213" y1="494.821674" x2="426.009958" y2="377.280669" id="路径-11" stroke="#000000"
            stroke-width="5" stroke-dasharray="6"></line>
        <line x1="491.025086" y1="635.277442" x2="491.025086" y2="402.277442" id="路径-11" stroke="#000000"
            stroke-width="5" stroke-dasharray="6"></line>
        <line x1="424.16427" y1="302.554398" x2="220.885901" y2="185.547945" id="路径-11" stroke="#000000"
            stroke-width="5" stroke-dasharray="6"></line>
        <line x1="759.724026" y1="499.523972" x2="554.047777" y2="377.571917" id="路径-11" stroke="#000000"
            stroke-width="5" stroke-dasharray="6"></line>
        <use id="椭圆形" stroke="#5E5C5C" mask="url(#mask-hq-604x7xp-6)" stroke-width="2" stroke-dasharray="4"
            xlink:href="#path-hq-604x7xp-5"></use>
        <use id="椭圆形" stroke="#727272" mask="url(#mask-hq-604x7xp-8)" stroke-width="6" stroke-dasharray="4"
            xlink:href="#path-hq-604x7xp-7"></use>
        <g id="文件传输点击" transform="translate(151.0622, 143)" fill="#2E8B57" fill-rule="nonzero">
            <path
                d="M16.57,2.94117648 L6.66666668,2.94117648 C4.82571751,2.94117648 3.33333334,4.25798604 3.33333334,5.88235295 L3.33333334,44.117647 C3.33333334,45.742014 4.82571751,47.0588235 6.66666668,47.0588235 L53.3333333,47.0588235 C55.1742825,47.0588235 56.6666667,45.742014 56.6666667,44.117647 L56.6666667,13.3764706 C56.6666667,11.7521037 55.1742825,10.4352941 53.3333333,10.4352941 L27.5466667,10.4352941 C26.4649206,10.4355993 25.4221612,10.0788971 24.6233333,9.43529409 L16.57,2.94117648 Z M6.66666668,0 L17.4766666,0 C17.7260982,0.000644270052 17.9662524,0.0835163282 18.15,0.23235293 L26.8733333,7.26176472 C27.057081,7.41060133 27.2972351,7.49347338 27.5466667,7.49411765 L53.3333333,7.49411765 C57.0152317,7.49411765 60,10.1277368 60,13.3764706 L60,44.117647 C60,47.3663809 57.0152317,50 53.3333333,50 L6.66666668,50 C2.98476834,50 0,47.3663809 0,44.117647 L0,5.88235295 C0,2.63361912 2.98476834,0 6.66666668,0 L6.66666668,0 Z"
                id="形状"></path>
            <path
                d="M36.2178893,23.0374611 L32.1713778,20.1939495 C31.684799,19.8721942 31.4311051,19.3379373 31.5090919,18.7992336 C31.5870786,18.2605299 31.984417,17.8025433 32.5463721,17.6036268 C33.1083273,17.4047103 33.7460595,17.4963107 34.2112176,17.8427563 L42.0521628,23.3537384 C42.6099937,23.7458133 42.8296715,24.4131924 42.5990849,25.0152831 C42.3684984,25.6173738 41.7384916,26.0214158 41.0305845,26.021209 L17.8128957,26.021209 C16.8969831,26.021209 16.1544893,25.3532742 16.1544893,24.529335 C16.1544893,23.7053958 16.8969831,23.0374611 17.8128957,23.0374611 L36.2178893,23.0374611 L36.2178893,23.0374611 Z M22.6289077,31.9887045 L26.6754192,34.8322161 C27.1423025,35.1605411 27.3790088,35.6879934 27.296373,36.2158868 C27.2137373,36.7437802 26.8243138,37.1919151 26.2747947,37.3914835 C25.7252756,37.5910518 25.0991458,37.5117344 24.6322625,37.1834093 L16.7913173,31.6724271 C16.2330025,31.2800155 16.0134751,30.6118721 16.2449304,30.0094689 C16.4763857,29.4070656 17.1076954,29.0034727 17.8162125,29.0049526 L41.0339013,29.0049526 C41.9498139,29.0049526 42.6923077,29.6728914 42.6923077,30.4968306 C42.6923077,31.3207698 41.9498139,31.9887045 41.0339013,31.9887045 L22.6289077,31.9887045 Z"
                id="形状"></path>
            <path
                d="M36.2178893,23.0374611 L32.1713778,20.1939495 C31.684799,19.8721942 31.4311051,19.3379373 31.5090919,18.7992336 C31.5870786,18.2605299 31.984417,17.8025433 32.5463721,17.6036268 C33.1083273,17.4047103 33.7460595,17.4963107 34.2112176,17.8427563 L42.0521628,23.3537384 C42.6099937,23.7458133 42.8296715,24.4131924 42.5990849,25.0152831 C42.3684984,25.6173738 41.7384916,26.0214158 41.0305845,26.021209 L17.8128957,26.021209 C16.8969831,26.021209 16.1544893,25.3532742 16.1544893,24.529335 C16.1544893,23.7053958 16.8969831,23.0374611 17.8128957,23.0374611 L36.2178893,23.0374611 L36.2178893,23.0374611 Z M22.6289077,31.9887045 L26.6754192,34.8322161 C27.1423025,35.1605411 27.3790088,35.6879934 27.296373,36.2158868 C27.2137373,36.7437802 26.8243138,37.1919151 26.2747947,37.3914835 C25.7252756,37.5910518 25.0991458,37.5117344 24.6322625,37.1834093 L16.7913173,31.6724271 C16.2330025,31.2800155 16.0134751,30.6118721 16.2449304,30.0094689 C16.4763857,29.4070656 17.1076954,29.0034727 17.8162125,29.0049526 L41.0339013,29.0049526 C41.9498139,29.0049526 42.6923077,29.6728914 42.6923077,30.4968306 C42.6923077,31.3207698 41.9498139,31.9887045 41.0339013,31.9887045 L22.6289077,31.9887045 Z"
                id="形状"></path>
        </g>
        <g id="配置-(1)" transform="translate(764.0622, 138)" fill="#239B56" fill-rule="nonzero">
            <path
                d="M29.9451421,44.1214028 C22.1731664,44.1214028 15.8501703,37.7865498 15.8501703,30.0000667 C15.8501703,22.2135836 22.1731664,15.8787973 29.9451421,15.8787973 C37.7169846,15.8787973 44.0398474,22.2135836 44.0398474,30.0000667 C44.0398474,30.7369568 43.4435808,31.3344082 42.7080034,31.3344082 C41.9724259,31.3344081 41.3761593,30.7369568 41.3761594,30.0000667 C41.3761594,23.6850954 36.248227,18.5474803 29.9451421,18.5474803 C23.641924,18.5474803 18.5138584,23.6850954 18.5138583,30.0000667 C18.5138583,36.3151047 23.6419239,41.4527198 29.9451421,41.4527198 C30.6806529,41.4527198 31.2769861,42.0501712 31.276986,42.7870613 C31.276986,43.5239514 30.6806529,44.1214028 29.9451421,44.1214028 L29.9451421,44.1214028 Z"
                id="路径"></path>
            <path
                d="M31.4348761,60 C31.0590904,60 30.7007936,59.8409453 30.4483583,59.5620507 C30.195923,59.283156 30.0728488,58.9103899 30.1094916,58.5356936 C30.165096,57.9667971 30.1591028,57.3880932 30.0917781,56.8156607 C29.8503814,54.7639772 28.8526304,52.9281902 27.2824529,51.6465551 C25.7244618,50.3747943 23.7877608,49.8018947 21.8290178,50.0332696 C19.1563399,50.3489748 16.8663007,52.1514032 15.8525011,54.7369568 C15.7071303,55.107837 15.403936,55.3941867 15.0258921,55.51768 C14.6478482,55.6411733 14.2344438,55.5890672 13.8987525,55.3754392 C10.2189341,53.0336032 7.03256396,49.8511319 4.68399021,46.1720855 C4.30028595,45.5709647 4.45644464,44.7737623 5.03852711,44.3626518 C7.32437096,42.7478984 8.53528357,39.9681315 8.19872652,37.1081706 C7.76121577,33.3906952 4.83708567,30.5234622 1.24576832,30.2904862 C0.526439367,30.2438509 -0.0252770323,29.6322555 0.000893716774,28.9104434 C0.181957891,23.9172708 1.61775236,19.0136992 4.1530506,14.7299293 C4.3604455,14.3794796 4.71628381,14.1431606 5.11923125,14.0882703 C5.52217868,14.0333799 5.92807764,14.1659336 6.22133776,14.448183 C7.82547727,15.992283 9.98353068,16.7315082 12.1417839,16.4765823 C16.201311,15.99702 19.1000029,12.1740648 18.6034915,7.95454346 C18.455124,6.6933239 18.0278685,5.52577508 17.3337114,4.48418803 C17.1151194,4.15607372 17.0526215,3.74787933 17.1629987,3.36920802 C17.2733759,2.99053671 17.5453174,2.68019253 17.905805,2.52150514 C21.7083528,0.848374338 25.7584238,0 29.9436104,0 C30.1129544,0 30.2966823,0.00186808186 30.5053822,0.00573767042 C30.8611851,0.0123515839 31.1995482,0.161348799 31.445003,0.419496906 C31.6904577,0.677645013 31.8225872,1.02347132 31.8119212,1.37984256 C31.8093639,1.46041197 31.8080097,1.5410152 31.8078591,1.6216252 C31.8078591,5.8703687 35.133407,9.32691362 39.2211026,9.32691369 C41.701662,9.32691369 44.0073504,8.04474495 45.3888056,5.8969888 C45.5858112,5.59068953 45.8992816,5.37843811 46.2564206,5.30952502 C46.6135597,5.24061193 46.9832927,5.3210333 47.2797577,5.53211313 C50.2301917,7.63250011 52.7539029,10.2199217 54.7806366,13.2226571 C54.9916535,13.5351978 55.0607118,13.9226426 54.9707088,14.2890387 C54.8807058,14.6554347 54.6400585,14.9665166 54.3083646,15.1452431 C51.8367951,16.4773829 50.3014453,19.1002313 50.3014454,21.9903482 C50.3014454,26.2390917 53.6269933,29.6956367 57.7146223,29.6956367 C57.9490268,29.6956367 58.1888254,29.6836277 58.4273586,29.6600765 C59.1589406,29.5874883 59.8113443,30.1234266 59.8836635,30.8568474 C59.955916,31.5902014 59.4211141,32.2434283 58.6891325,32.3158831 C58.3639628,32.3480407 58.0360629,32.3643864 57.7146889,32.3643864 C52.1583023,32.3643864 47.637824,27.7106035 47.637824,21.990415 C47.637824,18.6333452 49.1945498,15.5392074 51.7812572,13.6032113 C50.3444665,11.6850499 48.6621557,9.96450181 46.7775859,8.4858115 C44.8773109,10.7052218 42.1408376,11.9956634 39.2211692,11.9956634 C34.0113284,11.9956634 29.7122692,7.90430542 29.1961795,2.67875728 C26.1402635,2.76008539 23.1691858,3.34085753 20.3364869,4.40986523 C20.808968,5.43237122 21.1169701,6.52334374 21.2490664,7.64230754 C21.9175855,13.3230663 17.9721308,18.475159 12.4539682,19.1270515 C10.061044,19.4097318 7.67384681,18.8039407 5.69392752,17.4469822 C4.03611469,20.65594 3.02557805,24.188876 2.73357125,27.8018058 C6.99034444,28.6601877 10.3101654,32.2575057 10.8443014,36.7957345 C11.2429889,40.1833607 10.0114994,43.4941956 7.59027357,45.7225459 C9.36535529,48.2499889 11.5804782,50.4864786 14.0897389,52.286105 C15.6771638,49.5821954 18.4047804,47.7506782 21.5173663,47.3830005 C24.1982351,47.0662278 26.8433439,47.8456834 28.9651047,49.5776586 C31.0747455,51.2996263 32.4143809,53.759218 32.7372864,56.5032913 C32.7653883,56.7423386 32.7854991,56.9823199 32.7974858,57.2224347 C35.9332459,56.8975892 38.9552665,56.0390739 41.799153,54.6631677 C42.4615456,54.3427923 43.2577886,54.6208691 43.577631,55.2845038 C43.8975399,55.9481386 43.6198504,56.7458746 42.9574577,57.0663834 C39.3618784,58.8059644 35.5081879,59.7923764 31.5033995,59.998332 C31.4804252,59.9993328 31.4576507,60 31.4348761,60 L31.4348761,60 Z"
                id="路径"></path>
            <path
                d="M58.668156,38.2436285 L35.9262537,38.2436285 C35.1906763,38.2436285 34.5944097,37.6461771 34.5944097,36.909287 C34.5944097,36.1723969 35.1906763,35.5749455 35.9262537,35.5749455 L58.668156,35.5749455 C59.4037335,35.5749455 60,36.1723969 60,36.909287 C60,37.6461772 59.4037334,38.2436285 58.668156,38.2436285 Z M58.668156,44.3037406 L35.9262537,44.3037406 C35.1906763,44.3037406 34.5944097,43.7063559 34.5944097,42.9693991 C34.5944097,42.2324422 35.1906763,41.6350576 35.9262537,41.6350576 L58.668156,41.6350576 C59.4037335,41.6350576 60,42.2324423 60,42.9693991 C60,43.7063558 59.4037334,44.3037406 58.668156,44.3037406 Z M58.668156,50.3639194 L35.9262537,50.3639194 C35.1906763,50.3639194 34.5944097,49.766468 34.5944097,49.0295779 C34.5944097,48.2926878 35.1906763,47.6952364 35.9262537,47.6952364 L58.668156,47.6952364 C59.4037335,47.6952364 60,48.2926878 60,49.0295779 C60,49.766468 59.4037334,50.3639194 58.668156,50.3639194 Z"
                id="形状"></path>
        </g>
        <g id="生态" transform="translate(764.0622, 489)" fill="#239B56" fill-rule="nonzero">
            <path
                d="M21.5046855,46.9900168 C22.7574553,47.0201766 23.9281883,46.3690965 24.5634419,45.2889497 C25.1986956,44.2088029 25.1986956,42.8692395 24.5634419,41.7890927 C23.9281883,40.7089459 22.7574553,40.0578658 21.5046855,40.0880256 C19.6310509,40.1331325 18.135662,41.6649058 18.135662,43.5390212 C18.135662,45.4131366 19.6310509,46.9449099 21.5046855,46.9900168 L21.5046855,46.9900168 Z M50.7076165,12.7440608 C51.9409367,12.7440608 53.0805715,12.0861142 53.6972315,11.0180631 C54.3138916,9.95001192 54.3138916,8.63411864 53.6972315,7.56606749 C53.0805715,6.49801634 51.9409367,5.84006972 50.7076165,5.84006972 C48.8010688,5.84006972 47.2555065,7.38558081 47.2555065,9.29206528 C47.2555065,11.1985498 48.8010688,12.7440608 50.7076165,12.7440608 L50.7076165,12.7440608 Z M9.29229623,12.7440608 C10.5256164,12.7440608 11.6652512,12.0861142 12.2819113,11.0180631 C12.8985714,9.95001192 12.8985714,8.63411864 12.2819113,7.56606749 C11.6652512,6.49801634 10.5256164,5.84006972 9.29229623,5.84006972 C7.38574853,5.84006972 5.84018626,7.38558081 5.84018626,9.29206528 C5.84018626,11.1985498 7.38574853,12.7440608 9.29229623,12.7440608 L9.29229623,12.7440608 Z M52.8716855,15.0040579 C50.6252356,15.8556865 48.0881565,15.3109296 46.3893545,13.612184 C44.6905526,11.9134384 44.1457776,9.37644339 44.9974345,7.13006805 C40.5446458,4.20208745 35.3302056,2.64573506 30.0009564,2.65404048 C24.4627799,2.65404048 19.3106156,4.30007171 15.0044783,7.13006805 C15.8561351,9.37644339 15.3113602,11.9134384 13.6125582,13.612184 C11.9137563,15.3109296 9.37667715,15.8556865 7.13022729,15.0040579 C4.20225729,19.4567491 2.64586316,24.6709833 2.6540522,30.0000386 C2.6540522,45.1000192 14.8984749,57.3440034 30.0009564,57.3440034 C45.1014378,57.3440034 57.3458281,45.1020192 57.3458281,30.0000386 C57.3458281,24.4620457 55.6997756,19.3100523 52.8716855,15.0040579 L52.8716855,15.0040579 Z M55.0897562,13.5440598 C58.3025899,18.4302595 60.0099292,24.1522644 59.9999566,30.0000385 C59.9999566,46.5680173 46.5694846,60 29.9989563,60 C13.4344283,60 0,46.5660173 0,30.0000385 C0,23.9240464 1.80605755,18.2700537 4.9101565,13.5460598 C2.59287621,11.1506777 2.62448579,7.33970989 4.98118091,4.98309292 C7.33787604,2.62647595 11.1489702,2.59486743 13.5444318,4.91207087 C18.4305728,1.69863789 24.1527839,-0.0093451227 30.0009564,3.84577813e-05 C36.0771502,3.84577813e-05 41.7293303,1.80607488 46.455481,4.91007089 C48.8509425,2.59286745 52.6620367,2.62447598 55.0187318,4.98109294 C57.375427,7.33770991 57.4070365,11.1486777 55.0897562,13.5440598 Z M27.3888731,45.1760191 C34.6365408,46.4233676 41.7546728,42.371761 44.382553,35.5032979 C47.0104332,28.6348349 44.4144844,20.8668586 38.1850389,16.9581934 C31.9555934,13.0495282 23.8316116,14.0912846 18.7900142,19.4452609 C13.7484168,24.7992373 13.1965743,32.9708619 17.472557,38.9540271 C19.5014502,37.168605 22.4627091,36.9292739 24.7520113,38.3656965 C27.0413135,39.802119 28.1139805,42.5725367 27.3888731,45.1760191 L27.3888731,45.1760191 Z M26.0488304,47.6180159 C24.063775,49.8304466 20.7739104,50.2920624 18.2565909,48.7113804 C15.7392713,47.1306984 14.7259611,43.9670217 15.8565055,41.2180241 C10.3949789,34.3280213 10.6916785,24.5055599 16.5591111,17.9577395 C22.4265436,11.4099191 32.1580379,10.0413167 39.6039792,14.7167919 C47.0499205,19.3922672 50.0444937,28.7518558 46.6953408,36.880961 C43.3461878,45.0100662 34.6274832,49.5441598 26.0488304,47.6180159 L26.0488304,47.6180159 Z"
                id="形状"></path>
        </g>
        <g id="盾牌" transform="translate(465.0622, 0)" fill="#239B56" fill-rule="nonzero">
            <path
                d="M48.3740485,7.4285899 L46.7480343,7.4285899 C32.7236303,7.4285899 26.6260769,1.52380728 26.6260769,1.33336076 L25.2032831,0 L23.7804893,1.33336076 C23.7804893,1.33336076 17.2764325,7.80948294 2.03251778,7.4285899 L0,7.4285899 L0,34.476228 C0,41.5238073 2.43902133,52.0000118 24.390276,59.8095535 L25,60 L25.6097867,59.8095535 C47.5610414,51.8095652 50,41.5238073 50,34.476228 L50,7.4285899 L48.3740485,7.4285899 Z M46.5447511,34.476228 C46.5447511,38.2857462 46.5447511,48.3809988 25.2032831,56.3809871 C4.06503555,48.3809988 4.06503555,38.2857462 4.06503555,34.476228 L4.06503555,11.0476028 C15.8537014,11.0476028 22.5609787,7.04763808 25.4065663,4.95237367 C28.048808,7.04769686 34.9593685,10.8572151 46.7480343,11.0476616 L46.7480343,34.4762868 L46.5447511,34.476228 Z"
                id="形状"></path>
            <path
                d="M23.1707654,16.5714336 L23.1707654,26.0952879 L13.0081765,26.0952879 C11.7886658,26.0952879 10.9756587,26.8571916 10.9756587,28.000047 C10.9756587,29.1429025 11.7886658,29.9048061 13.0081765,29.9048061 L23.1707654,29.9048061 L23.1707654,39.4286604 C23.1707654,40.5715159 23.9837725,41.3334195 25.2032831,41.3334195 C26.4227938,41.3334195 27.2358009,40.5715159 27.2358009,39.4286604 L27.2358009,29.9047473 L37.3983898,29.9047473 C38.6179005,29.9047473 39.4309076,29.1428437 39.4309076,27.9999882 C39.4309076,26.8571328 38.6179005,26.0952291 37.3983898,26.0952291 L27.2358009,26.0952291 L27.2358009,16.5714336 C27.2358009,15.4285781 26.4227938,14.6666745 25.2032831,14.6666745 C23.9837725,14.6666745 23.1707654,15.6190834 23.1707654,16.5714336 Z"
                id="路径"></path>
        </g>
        <g id="安全中心-盾牌" transform="translate(465.0622, 645)" fill="#239B56" fill-rule="nonzero">
            <path
                d="M28.1469749,1.74599268 C32.0125226,5.04618688 36.7134294,7.18047696 41.7154149,7.90629073 C43.8005737,8.22466401 45.90678,8.38000914 48.0154197,8.37095322 C48.9730038,8.37224021 49.7669062,9.12359342 49.834264,10.0923165 C50.0633551,13.2604698 49.924512,16.4286231 49.9800492,19.6214175 C50.0182311,21.800403 50.011289,23.9829085 49.8724459,26.1583738 C49.5010406,31.9772153 48.5569077,37.6693308 46.0056661,42.9636669 C43.6037242,47.9399608 39.9070428,52.1563298 35.3147489,55.1575369 C32.3083898,57.1277354 29.0745301,58.7155148 25.6859813,59.8851256 C25.2509477,60.0382915 24.7777081,60.0382915 24.3426745,59.8851256 C18.6362239,57.8786285 13.4330795,55.0272905 9.20183658,50.5637146 C5.3211725,46.4521557 2.89836076,41.559119 1.54811179,36.0782137 C0.891514484,33.3404062 0.458478818,30.5523857 0.253400051,27.7424505 C-0.1839556,22.2826663 0.0798462404,16.819362 0.0694329817,11.3560576 C0.0770358439,10.9841147 0.103683332,10.6128232 0.149267753,10.2436838 C0.301678268,9.1449248 1.24972071,8.34168718 2.34298843,8.38503392 C4.34749976,8.3753494 6.34865702,8.21769852 8.33059628,7.91333105 C13.2760563,7.18282658 17.9261479,5.08012057 21.7671353,1.83751708 C22.3795793,1.28137534 23.0380375,0.779663667 23.735236,0.337924528 C24.5401627,-0.123715796 25.5274932,-0.111619606 26.3211884,0.369606087 C26.9654328,0.777651132 27.5760252,1.23795201 28.1469749,1.74599268 Z M4.38745277,20.5965047 C4.2836942,23.1799116 4.35560012,25.767499 4.60265956,28.3408794 C4.85304308,31.5820005 5.48940854,34.7804624 6.49786761,37.8664603 C8.00469866,42.4293606 10.7399775,46.473863 14.3945678,49.5428652 C17.4479689,52.0510048 20.8984986,54.0161061 24.5995342,55.3546664 C24.8916785,55.460189 25.2128444,55.4463022 25.4950721,55.3159445 C28.0875511,54.3437047 30.5678182,53.0878017 32.8919372,51.5704833 C37.8812342,48.3558699 41.6317464,43.5023264 43.5169039,37.820698 C45.1483101,33.0227059 45.5613682,28.0381447 45.7140956,23.0359828 C45.8112858,19.7868656 45.6064923,16.5342282 45.6169055,13.2815908 C45.6169055,12.8556502 45.4850045,12.7113232 45.0580621,12.686682 C43.2853815,12.5878007 41.5207719,12.3738051 39.7750829,12.046011 C34.479217,11.0641527 29.5328498,8.68167094 25.4360638,5.13943684 C25.3322067,5.00319974 25.1719812,4.92343388 25.0021791,4.92343388 C24.832377,4.92343388 24.6721515,5.00319974 24.5682945,5.13943684 C22.5354595,6.89259021 20.284289,8.36725611 17.8725869,9.52556908 C13.7871293,11.5039048 9.43786982,12.3769071 4.95323836,12.6585206 C4.53670911,12.686682 4.37703957,12.8063678 4.38051064,13.2428689 C4.39439496,15.6999478 4.38745277,18.1464662 4.38745277,20.5965047 Z"
                id="形状"></path>
            <path
                d="M16.3348998,27.6685269 C16.9899394,27.648609 17.6192582,27.9276686 18.0496119,28.4288837 C19.2644888,29.6644635 20.4793658,30.8930029 21.6907716,32.135623 C22.0378793,32.48764 22.2392018,32.4629989 22.5689541,32.135623 C25.6443284,28.986244 28.7266447,25.8497722 31.8159033,22.7262077 C32.6871436,21.842645 33.6694584,21.3181396 35.2869803,22.483316 C35.6782334,22.7712368 35.9314742,23.2132662 35.9843496,23.7005677 C36.037225,24.1878692 35.8848225,24.6751674 35.5646665,25.0424798 C34.6552443,26.0809301 33.6555741,27.0348962 32.6906147,28.0170237 L23.915732,36.9089739 C22.6834997,38.1551143 21.5449864,38.1551143 20.309283,36.9089739 C18.5320916,35.1101669 16.7444869,33.3184002 14.9846509,31.5055125 C13.7871293,30.2734529 14.0925841,28.4359241 15.5643208,27.8163741 C15.8054625,27.7041451 16.0699979,27.65339 16.3348998,27.6685269 L16.3348998,27.6685269 Z"
                id="路径"></path>
        </g>
        <line x1="824.396934" y1="148.076343" x2="859.666333" y2="127.380306" id="路径-16" stroke="#000000"
            stroke-width="5" stroke-dasharray="4"></line>
        <line x1="100.252637" y1="127.630236" x2="135.810631" y2="147.826413" id="路径-16" stroke="#000000"
            stroke-width="5" stroke-dasharray="4"></line>
        <line x1="100.396934" y1="558.076343" x2="135.666333" y2="537.380306" id="路径-16" stroke="#000000"
            stroke-width="5" stroke-dasharray="4"></line>
        <line x1="824.252637" y1="538.630236" x2="859.810631" y2="558.826413" id="路径-16" stroke="#000000"
            stroke-width="5" stroke-dasharray="4"></line>
        <line x1="0.00111731162" y1="127.978324" x2="97.0011173" y2="127.934972" id="路径-17" stroke="#000000"
            stroke-width="5" stroke-dasharray="4"></line>
        <line x1="859.940084" y1="127.478324" x2="956.940084" y2="127.434972" id="路径-17" stroke="#000000"
            stroke-width="5" stroke-dasharray="4"></line>
        <path d="M859.940084,558.478324 L914.646849,558.453874 L956.940084,558.434972" id="路径-17" stroke="#000000"
            stroke-width="5" stroke-dasharray="4"></path>
        <line x1="2.94008438" y1="557.478324" x2="99.9400844" y2="557.434972" id="路径-17" stroke="#000000"
            stroke-width="5" stroke-dasharray="4"></line>
        <g id="icon_downloadfile" transform="translate(151.0622, 487)" fill="#239B56" fill-rule="nonzero">
            <path
                d="M3.85484474,46.3930285 L56.1451819,46.3930285 L56.1451819,11.6948724 L3.85484474,11.6948724 L3.85484474,46.3930285 Z M58.0708566,50 L1.92636701,50 C0.842195398,49.980656 -0.0196300174,49.1735156 0.000340164833,48.1965143 L0.000340164833,9.89138671 C0.000340164833,8.89618591 0.861219434,8.08790099 1.92917003,8.08790099 L58.0736596,8.08790099 C59.1388072,8.08790099 59.9996789,8.89618591 59.9996789,9.89138671 L59.9996789,48.1965143 C60.0090888,48.6661429 59.8113695,49.1200204 59.4496907,49.4582574 C59.0880119,49.7964944 58.5920141,49.9913715 58.0708566,50 L58.0708566,50 Z"
                id="形状"></path>
            <path
                d="M30.9067903,33.5564536 C30.3856328,33.5478251 29.889635,33.3529481 29.5279562,33.0147111 C29.1662774,32.6764741 28.9685581,32.2225965 28.9783126,31.7529679 L28.9783126,18.7496843 C28.9783126,17.7544835 29.8388397,16.9461985 30.9067903,16.9461985 C31.9719379,16.9461985 32.832465,17.7544835 32.832465,18.7496843 L32.832465,31.7529679 C32.8527873,32.7299693 31.9909619,33.5371097 30.9067903,33.5564536 M35.4560917,11.060874 L31.1562591,7.0346047 C28.8567208,4.85015787 25.6624285,3.61274096 22.3211402,3.61202324 L5.9010493,3.61202324 C4.77423528,3.61202324 3.85484474,4.47082597 3.85484474,5.52664814 L3.85484474,9.8939126 L0.000692308836,9.8939126 L0.000692308836,5.52412225 C0.000692308836,2.47789846 2.64954616,0 5.9010493,0 L22.3211402,0 C26.6882453,0 30.7946695,1.59131094 33.8807945,4.48345542 L38.1806271,8.50972468 L35.4560917,11.060874 Z M41.7320533,39.1310937 L20.0787242,39.1310937 C18.9945526,39.1117497 18.1327272,38.3046094 18.1530495,37.327608 C18.1530495,36.3324072 19.0135766,35.5241223 20.0787242,35.5241223 L41.7320533,35.5241223 C42.7972009,35.5241223 43.6605311,36.3324072 43.6605311,37.327608 C43.6702855,37.7972366 43.4725662,38.2511141 43.1108874,38.5893511 C42.7492087,38.9275882 42.2532108,39.1224652 41.7320533,39.1310937"
                id="形状"></path>
            <path
                d="M30.9067903,34.2712808 C30.6903247,34.2714172 30.4834077,34.1909838 30.3349742,34.0490023 L22.5537908,26.7643344 C22.3230176,26.5437935 22.2542302,26.2230378 22.3772006,25.9408942 C22.497886,25.6638682 22.7925739,25.4801777 23.1228039,25.4761303 L38.6851706,25.4761303 C39.013124,25.4761303 39.3046381,25.6579944 39.430774,25.9408942 C39.5569099,26.2237939 39.4868344,26.5471079 39.2541837,26.7643344 L31.4786064,34.0490023 C31.3302668,34.1896067 31.1248784,34.2698393 30.9095933,34.2712808"
                id="路径"></path>
        </g>
        <g id="features-(1)" transform="translate(437.0622, 291)" fill-rule="nonzero">
            <path
                d="M35.3815114,4.93095081 L10.4835529,4.93095081 C4.70243583,4.93095081 0,9.64184368 0,15.4305006 L0,40.3664509 C0,46.1551079 4.70243583,50.8660008 10.4835529,50.8660008 L35.3815114,50.8660008 C41.1613489,50.8660008 45.8650645,46.1563895 45.8650645,40.3664509 L45.8650645,15.4305006 C45.8637849,9.64184368 41.161349,4.93095081 35.3815114,4.93095081 Z M37.3124233,39.8023104 C37.3110771,41.1856735 36.1922914,42.3067743 34.811785,42.3081233 L11.0532791,42.3081233 C9.6727727,42.3067743 8.55398699,41.1856735 8.55264081,39.8023104 L8.55264081,15.9946414 C8.55398699,14.6112783 9.6727727,13.4901775 11.0532791,13.4888285 L34.811785,13.4888285 C36.1922914,13.4901775 37.3110771,14.6112783 37.3124233,15.9946414 L37.3124233,39.8023104 L37.3124233,39.8023104 Z"
                id="形状" fill="#239B56"></path>
            <path
                d="M79.9203023,9.29208142 C79.4524923,8.82052049 78.8158204,8.55616029 78.1522729,8.55794512 C77.4890404,8.55594058 76.8526667,8.8203596 76.3854645,9.29208142 L59.5843009,26.126788 C58.6088634,27.1063619 58.6094098,28.6924885 59.585522,29.6713874 L76.3842435,46.5048704 C77.3293089,47.4518914 78.9764579,47.4518914 79.9190813,46.5048704 L96.7202448,29.6701639 C97.6950102,28.6903116 97.6944641,27.1047421 96.7190239,26.1255644 L79.9203023,9.29208142 Z"
                id="路径" fill="#A9E9C4"></path>
            <path
                d="M103.017784,20.536258 L85.8901186,3.05019649 C83.9813924,1.09070449 81.3839716,-0.00763684484 78.6770283,3.99735598e-05 C75.9707784,-0.00720818328 73.374047,1.09057353 71.465183,3.04892555 L54.3350274,20.5349872 C50.3599848,24.5941834 50.3599848,31.2002265 54.3350274,35.2606936 L71.4639381,52.7467551 C73.3729794,54.705767 75.9701948,55.8040215 78.6770283,55.796906 C81.3834581,55.8038235 83.9802149,54.7055734 85.8888736,52.7467551 L103.017784,35.2606936 C106.994072,31.2014973 106.994072,24.5954542 103.017784,20.536258 L103.017784,20.536258 Z M96.7202448,29.6701639 L79.9190813,46.5048704 C78.9764579,47.4506678 77.3293089,47.4518914 76.3842435,46.5048704 L59.585522,29.6713874 C58.6094098,28.6924885 58.6088634,27.1063619 59.5843009,26.126788 L76.3854645,9.29208142 C76.8567762,8.81857094 77.4843778,8.55795656 78.1522729,8.55795656 C78.8201681,8.55795656 79.4477696,8.81857084 79.9203023,9.29208142 L96.7190239,26.1255644 C97.6958357,27.1031739 97.6958357,28.6937778 96.7202448,29.6701639 L96.7202448,29.6701639 Z M35.3815114,60.064951 L10.4835529,60.064951 C4.70243583,60.064951 0,64.7745684 0,70.5632326 L0,95.4992146 C0,101.28916 4.70243583,105.998778 10.4835529,105.998778 L35.3815114,105.998778 C41.1613489,105.998778 45.8650645,101.289161 45.8650645,95.4992146 L45.8650645,70.5632326 C45.8637849,64.7745684 41.161349,60.064951 35.3815114,60.064951 Z M36.2629183,93.8958714 C36.2615721,95.2792345 35.1427864,96.4003353 33.76228,96.4016843 L10.0037742,96.4016843 C8.62326775,96.4003353 7.50448204,95.2792345 7.50313586,93.8958714 L7.50313586,70.0882024 C7.50448204,68.7048393 8.62326775,67.5837385 10.0037742,67.5823895 L33.76228,67.5823895 C35.1427864,67.5837385 36.2615721,68.7048393 36.2629183,70.0882024 L36.2629183,93.8958714 L36.2629183,93.8958714 Z M91.6507572,60.064951 L66.7527987,60.064951 C60.9729612,60.064951 56.2692458,64.7745623 56.2692458,70.5645009 L56.2692458,95.5004512 C56.2692458,101.289108 60.9716816,106.000001 66.7527987,106.000001 L91.6507572,106.000001 C97.4305947,106.000001 102.13431,101.29039 102.13431,95.5004512 L102.13431,70.5632193 C102.13431,64.7745624 97.4305948,60.064951 91.6507572,60.064951 L91.6507572,60.064951 Z M93.581669,94.9350871 C93.5803229,96.3184502 92.4615372,97.439551 91.0810307,97.4409 L67.3225249,97.4409 C65.9420185,97.439551 64.8232328,96.3184502 64.8218866,94.9350871 L64.8218866,71.127418 C64.8232328,69.744055 65.9420185,68.6229542 67.3225249,68.6216052 L91.0810307,68.6216052 C92.4615372,68.6229542 93.5803229,69.744055 93.581669,71.127418 L93.581669,94.9350871 L93.581669,94.9350871 Z"
                id="形状" fill="#239B56"></path>
        </g>
    </g>
</svg>