<svg width="975.061033px" height="719px" viewBox="0 0 975.061033 719" version="1.1" xmlns="http://www.w3.org/2000/svg"
    xmlns:xlink="http://www.w3.org/1999/xlink">
    <defs>
        <linearGradient x1="50%" y1="0%" x2="50%" y2="100%" id="linearGradient-eutmcpxo8e-1">
            <stop stop-color="#F7F7F7" stop-opacity="0.05" offset="0%"></stop>
            <stop stop-color="#FFFFFF" stop-opacity="0.74" offset="31.5750656%"></stop>
            <stop stop-color="#FFFFFF" stop-opacity="0.03" offset="100%"></stop>
        </linearGradient>
        <linearGradient x1="50%" y1="0%" x2="50%" y2="100%" id="linearGradient-eutmcpxo8e-2">
            <stop stop-color="#FDFDFD" stop-opacity="0.05" offset="0%"></stop>
            <stop stop-color="#788FF6" stop-opacity="0.1" offset="24.1231425%"></stop>
            <stop stop-color="#788FF6" stop-opacity="0.0501317637" offset="76.2784091%"></stop>
            <stop stop-color="#FCFCFC" stop-opacity="0.01" offset="100%"></stop>
        </linearGradient>
        <linearGradient x1="50%" y1="0%" x2="50%" y2="97.4759615%" id="linearGradient-eutmcpxo8e-3">
            <stop stop-color="#F6F6F6" stop-opacity="0.05" offset="0%"></stop>
            <stop stop-color="#8EA1F6" stop-opacity="0.0912904313" offset="28.5702579%"></stop>
            <stop stop-color="#8EA1F6" stop-opacity="0.1" offset="69.5913462%"></stop>
            <stop stop-color="#F8F8F8" stop-opacity="0.01" offset="100%"></stop>
        </linearGradient>
        <linearGradient x1="50%" y1="0%" x2="50%" y2="94.3492125%" id="linearGradient-eutmcpxo8e-4">
            <stop stop-color="#FFFFFF" stop-opacity="0.1" offset="0%"></stop>
            <stop stop-color="#FFFFFF" stop-opacity="0.736614948" offset="32.0667614%"></stop>
            <stop stop-color="#FFFFFF" stop-opacity="0.03" offset="100%"></stop>
        </linearGradient>
        <path
            d="M486.061033,507 C573.045881,507 643.561033,436.484848 643.561033,349.5 C643.561033,262.515152 573.045881,192 486.061033,192 C399.076185,192 328.561033,262.515152 328.561033,349.5 C328.561033,436.484848 399.076185,507 486.061033,507 Z"
            id="path-eutmcpxo8e-5"></path>
        <mask id="mask-eutmcpxo8e-6" maskContentUnits="userSpaceOnUse" maskUnits="objectBoundingBox" x="0" y="0"
            width="315" height="315" fill="white">
            <use xlink:href="#path-eutmcpxo8e-5"></use>
        </mask>
    </defs>
    <g id="console-LandingPage" stroke="none" stroke-width="1" fill="none" fill-rule="evenodd">
        <line x1="486.369657" y1="302.277442" x2="487.369657" y2="72.2774423" id="路径-11" stroke="#000000"
            stroke-dasharray="6"></line>
        <line x1="553.778128" y1="317.941506" x2="756.300064" y2="200.619832" id="路径-11" stroke="#000000"
            stroke-dasharray="6"></line>
        <polygon id="三角形" fill="url(#linearGradient-eutmcpxo8e-1)"
            transform="translate(554.345, 474.7815) rotate(-30) translate(-554.345, -474.7815)"
            points="554.344971 340.281458 709.344971 609.281458 399.344971 609.281458"></polygon>
        <polygon id="三角形" fill="url(#linearGradient-eutmcpxo8e-2)"
            transform="translate(554.245, 239.1758) rotate(-150) translate(-554.245, -239.1758)"
            points="554.244971 104.675766 709.244971 373.675766 399.244971 373.675766"></polygon>
        <polygon id="三角形" fill="url(#linearGradient-eutmcpxo8e-3)"
            transform="translate(419.2741, 471.2811) rotate(-330) translate(-419.2741, -471.2811)"
            points="419.274142 336.781093 574.274142 605.781093 264.274142 605.781093"></polygon>
        <polygon id="三角形" fill="url(#linearGradient-eutmcpxo8e-4)"
            transform="translate(419.045, 238.9222) rotate(-210) translate(-419.045, -238.9222)"
            points="419.044971 104.422245 574.044971 373.422245 264.044971 373.422245"></polygon>
        <line x1="218.539096" y1="509.821674" x2="421.508841" y2="392.280669" id="路径-11" stroke="#000000"
            stroke-dasharray="6"></line>
        <line x1="486.523969" y1="650.277442" x2="486.523969" y2="417.277442" id="路径-11" stroke="#000000"
            stroke-dasharray="6"></line>
        <line x1="419.663153" y1="317.554398" x2="216.384784" y2="200.547945" id="路径-11" stroke="#000000"
            stroke-dasharray="6"></line>
        <line x1="755.222909" y1="514.523972" x2="549.54666" y2="392.571917" id="路径-11" stroke="#000000"
            stroke-dasharray="6"></line>
        <use id="椭圆形" stroke="#5E5C5C" mask="url(#mask-eutmcpxo8e-6)" stroke-width="2" stroke-dasharray="4"
            xlink:href="#path-eutmcpxo8e-5"></use>
        <g id="文件传输点击" transform="translate(155.561, 160)" fill="#2E8B57" fill-rule="nonzero">
            <path
                d="M14.3606667,2.35294118 L5.77777779,2.35294118 C4.18228851,2.35294118 2.88888889,3.40638883 2.88888889,4.70588236 L2.88888889,35.2941176 C2.88888889,36.5936112 4.18228851,37.6470588 5.77777779,37.6470588 L46.2222222,37.6470588 C47.8177115,37.6470588 49.1111111,36.5936112 49.1111111,35.2941176 L49.1111111,10.7011765 C49.1111111,9.40168295 47.8177115,8.3482353 46.2222222,8.3482353 L23.8737778,8.3482353 C22.9362645,8.34847944 22.0325397,8.06311766 21.3402222,7.54823527 L14.3606667,2.35294118 Z M5.77777779,0 L15.1464444,0 C15.3626184,0.000515416042 15.570752,0.0668130626 15.73,0.185882344 L23.2902222,5.80941178 C23.4494702,5.92848106 23.6576038,5.99477871 23.8737778,5.99529412 L46.2222222,5.99529412 C49.4132008,5.99529412 52,8.10218942 52,10.7011765 L52,35.2941176 C52,37.8931047 49.4132008,40 46.2222222,40 L5.77777779,40 C2.58679923,40 0,37.8931047 0,35.2941176 L0,4.70588236 C0,2.1068953 2.58679923,0 5.77777779,0 L5.77777779,0 Z"
                id="形状"></path>
            <path
                d="M31.3888374,18.4299689 L27.8818608,16.1551596 C27.4601591,15.8977554 27.2402911,15.4703498 27.3078796,15.0393869 C27.3754681,14.6084239 27.7198281,14.2420346 28.2068559,14.0829014 C28.6938836,13.9237682 29.2465849,13.9970486 29.649722,14.274205 L36.4452078,18.6829907 C36.9286612,18.9966506 37.1190486,19.5305539 36.9192069,20.0122265 C36.7193653,20.493899 36.1733594,20.8171327 35.5598399,20.8169672 L15.4378429,20.8169672 C14.644052,20.8169672 14.0005574,20.2826194 14.0005574,19.623468 C14.0005574,18.9643167 14.644052,18.4299689 15.4378429,18.4299689 L31.3888374,18.4299689 L31.3888374,18.4299689 Z M19.61172,25.5909636 L23.1186966,27.8657729 C23.5233289,28.1284329 23.7284743,28.5503947 23.6568566,28.9727095 C23.585239,29.3950242 23.2477386,29.7535321 22.7714887,29.9131868 C22.2952388,30.0728414 21.7525931,30.0093875 21.3479609,29.7467274 L14.552475,25.3379417 C14.0686021,25.0240124 13.8783451,24.4894977 14.0789397,24.0075751 C14.2795343,23.5256525 14.8266694,23.2027782 15.4407175,23.2039621 L35.5627145,23.2039621 C36.3565054,23.2039621 37,23.7383131 37,24.3974645 C37,25.0566158 36.3565054,25.5909636 35.5627145,25.5909636 L19.61172,25.5909636 Z"
                id="形状"></path>
            <path
                d="M31.3888374,18.4299689 L27.8818608,16.1551596 C27.4601591,15.8977554 27.2402911,15.4703498 27.3078796,15.0393869 C27.3754681,14.6084239 27.7198281,14.2420346 28.2068559,14.0829014 C28.6938836,13.9237682 29.2465849,13.9970486 29.649722,14.274205 L36.4452078,18.6829907 C36.9286612,18.9966506 37.1190486,19.5305539 36.9192069,20.0122265 C36.7193653,20.493899 36.1733594,20.8171327 35.5598399,20.8169672 L15.4378429,20.8169672 C14.644052,20.8169672 14.0005574,20.2826194 14.0005574,19.623468 C14.0005574,18.9643167 14.644052,18.4299689 15.4378429,18.4299689 L31.3888374,18.4299689 L31.3888374,18.4299689 Z M19.61172,25.5909636 L23.1186966,27.8657729 C23.5233289,28.1284329 23.7284743,28.5503947 23.6568566,28.9727095 C23.585239,29.3950242 23.2477386,29.7535321 22.7714887,29.9131868 C22.2952388,30.0728414 21.7525931,30.0093875 21.3479609,29.7467274 L14.552475,25.3379417 C14.0686021,25.0240124 13.8783451,24.4894977 14.0789397,24.0075751 C14.2795343,23.5256525 14.8266694,23.2027782 15.4407175,23.2039621 L35.5627145,23.2039621 C36.3565054,23.2039621 37,23.7383131 37,24.3974645 C37,25.0566158 36.3565054,25.5909636 35.5627145,25.5909636 L19.61172,25.5909636 Z"
                id="形状"></path>
        </g>
        <g id="配置-(1)" transform="translate(768.561, 153)" fill="#239B56" fill-rule="nonzero">
            <path
                d="M24.9542851,36.7678357 C18.4776386,36.7678357 13.2084753,31.4887915 13.2084753,25.0000556 C13.2084753,18.5113197 18.4776386,13.2323311 24.9542851,13.2323311 C31.4308205,13.2323311 36.6998728,18.5113197 36.6998728,25.0000556 C36.6998728,25.6141307 36.202984,26.1120069 35.5900028,26.1120068 C34.9770216,26.1120068 34.4801328,25.6141307 34.4801328,25.0000556 C34.4801328,19.7375795 30.2068558,15.4562336 24.9542851,15.4562336 C19.7016033,15.4562336 15.4282153,19.7375795 15.4282153,25.0000556 C15.4282153,30.2625873 19.7016033,34.5439332 24.9542851,34.5439332 C25.5672107,34.5439332 26.0641551,35.0418094 26.064155,35.6558844 C26.064155,36.2699595 25.5672107,36.7678357 24.9542851,36.7678357 L24.9542851,36.7678357 Z"
                id="路径"></path>
            <path
                d="M26.1957301,50 C25.8825754,50 25.5839947,49.8674544 25.3736319,49.6350422 C25.1632692,49.40263 25.0607073,49.0919916 25.091243,48.7797447 C25.13758,48.3056642 25.1325856,47.823411 25.0764817,47.3463839 C24.8753178,45.6366476 24.0438587,44.1068251 22.7353774,43.0387959 C21.4370515,41.9789952 19.823134,41.5015789 18.1908482,41.6943913 C15.9636166,41.957479 14.0552506,43.4595027 13.2104175,45.6141307 C13.0892752,45.9231975 12.8366133,46.1618222 12.5215767,46.2647333 C12.2065402,46.3676444 11.8620365,46.3242227 11.5822938,46.1461993 C8.51577843,44.1946693 5.86046996,41.5426099 3.90332517,38.476738 C3.58357163,37.9758039 3.71370387,37.3114686 4.19877259,36.9688765 C6.10364247,35.6232487 7.11273631,33.3067762 6.8322721,30.9234755 C6.46767981,27.8255793 4.03090472,25.4362185 1.03814027,25.2420718 C0.438699473,25.2032091 -0.0210641936,24.6935462 0.000744763978,24.0920362 C0.151631576,19.931059 1.34812697,15.8447494 3.4608755,12.2749411 C3.63370458,11.9828996 3.93023651,11.7859671 4.26602604,11.7402252 C4.60181557,11.6944833 4.9400647,11.8049447 5.18444813,12.0401525 C6.52123106,13.3269025 8.3196089,13.9429235 10.1181532,13.7304853 C13.5010925,13.33085 15.9166691,10.145054 15.5029096,6.62878621 C15.37927,5.57776992 15.0232237,4.60481257 14.4447595,3.73682336 C14.2625995,3.46339476 14.2105179,3.12323277 14.3024989,2.80767335 C14.3944799,2.49211392 14.6210978,2.23349377 14.9215041,2.10125429 C18.090294,0.706978615 21.4653532,0 24.9530087,0 C25.0941287,0 25.2472352,0.00155673488 25.4211518,0.00478139202 C25.7176542,0.0102929866 25.9996235,0.134457332 26.2041691,0.349580755 C26.4087148,0.564704178 26.5188227,0.852892764 26.5099344,1.1498688 C26.5078032,1.21700997 26.5066747,1.28417933 26.5065492,1.35135433 C26.5065492,4.89197392 29.2778392,7.77242802 32.6842522,7.77242807 C34.751385,7.77242807 36.672792,6.70395413 37.8240047,4.91415734 C37.988176,4.65890794 38.2494013,4.48203176 38.5470172,4.42460419 C38.8446331,4.36717661 39.1527439,4.43419442 39.3997981,4.61009428 C41.8584931,6.36041676 43.9615858,8.5166014 45.6505305,11.0188809 C45.8263779,11.2793315 45.8839265,11.6022022 45.808924,11.9075322 C45.7339215,12.2128623 45.5333821,12.4720971 45.2569705,12.6210359 C43.1973293,13.7311524 41.9178711,15.9168594 41.9178712,18.3252902 C41.9178712,21.8659098 44.6891611,24.7463639 48.0955186,24.7463639 C48.2908557,24.7463639 48.4906878,24.7363564 48.6894655,24.7167304 C49.2991171,24.6562402 49.8427869,25.1028555 49.9030529,25.7140395 C49.9632634,26.3251679 49.5175951,26.8695236 48.9076105,26.9299026 C48.6366357,26.9567006 48.3633857,26.970322 48.0955741,26.970322 C43.4652519,26.970322 39.6981866,23.0921696 39.6981866,18.3253458 C39.6981866,15.5277877 40.9954582,12.9493395 43.1510477,11.3360094 C41.953722,9.73754156 40.5517964,8.30375151 38.9813216,7.07150959 C37.3977591,8.92101813 35.1173646,9.99638614 32.6843077,9.99638614 C28.3427737,9.99638614 24.7602243,6.58692118 24.3301496,2.23229773 C21.7835529,2.30007115 19.3076549,2.78404794 16.9470724,3.67488769 C17.3408067,4.52697602 17.5974751,5.43611978 17.7075553,6.36858962 C18.2646545,11.1025553 14.9767757,15.3959659 10.3783068,15.9392096 C8.38420335,16.1747765 6.39487234,15.6699506 4.7449396,14.5391518 C3.36342891,17.2132833 2.52131504,20.1573967 2.27797604,23.1681715 C5.82528703,23.8834897 8.59180452,26.8812547 9.03691786,30.6631121 C9.36915744,33.4861339 8.34291616,36.245163 6.32522798,38.1021216 C7.80446274,40.2083241 9.65039851,42.0720655 11.7414491,43.5717542 C13.0643032,41.3184962 15.337317,39.7922319 17.9311386,39.4858337 C20.165196,39.2218565 22.3694533,39.8714028 24.1375872,41.3147155 C25.8956213,42.7496886 27.0119841,44.7993483 27.281072,47.0860761 C27.3044902,47.2852822 27.3212493,47.4852666 27.3312381,47.6853622 C29.9443716,47.4146577 32.4627221,46.6992283 34.8326275,45.5526397 C35.3846214,45.2856603 36.0481572,45.5173909 36.3146925,46.0704198 C36.5812833,46.6234488 36.3498753,47.2882289 35.7978814,47.5553195 C32.8015654,49.0049704 29.5901566,49.8269803 26.2528329,49.99861 C26.2336877,49.999444 26.2147089,50 26.1957301,50 L26.1957301,50 Z"
                id="路径"></path>
            <path
                d="M48.89013,31.8696904 L29.9385448,31.8696904 C29.3255635,31.8696904 28.8286747,31.3718142 28.8286747,30.7577392 C28.8286747,30.1436641 29.3255635,29.6457879 29.9385448,29.6457879 L48.89013,29.6457879 C49.5031112,29.6457879 50,30.1436641 50,30.7577392 C50,31.3718143 49.5031112,31.8696904 48.89013,31.8696904 Z M48.89013,36.9197838 L29.9385448,36.9197838 C29.3255635,36.9197838 28.8286747,36.4219632 28.8286747,35.8078325 C28.8286747,35.1937019 29.3255635,34.6958813 29.9385448,34.6958813 L48.89013,34.6958813 C49.5031112,34.6958813 50,35.1937019 50,35.8078325 C50,36.4219632 49.5031112,36.9197838 48.89013,36.9197838 Z M48.89013,41.9699328 L29.9385448,41.9699328 C29.3255635,41.9699328 28.8286747,41.4720566 28.8286747,40.8579816 C28.8286747,40.2439065 29.3255635,39.7460303 29.9385448,39.7460303 L48.89013,39.7460303 C49.5031112,39.7460303 50,40.2439065 50,40.8579816 C50,41.4720567 49.5031112,41.9699328 48.89013,41.9699328 Z"
                id="形状"></path>
        </g>
        <g id="生态" transform="translate(768.561, 507)" fill="#239B56" fill-rule="nonzero">
            <path
                d="M17.9205713,39.1583465 C18.9645461,39.1834797 19.9401569,38.640913 20.4695349,37.7407906 C20.998913,36.8406683 20.998913,35.7243655 20.4695349,34.8242432 C19.9401569,33.9241209 18.9645461,33.3815541 17.9205713,33.4066873 C16.3592091,33.4442764 15.1130517,34.7207541 15.1130517,36.2825169 C15.1130517,37.8442797 16.3592091,39.1207574 17.9205713,39.1583465 L17.9205713,39.1583465 Z M42.2563471,10.6200505 C43.2841139,10.6200505 44.2338096,10.0717616 44.747693,9.18171904 C45.2615764,8.29167643 45.2615764,7.19509871 44.747693,6.30505611 C44.2338096,5.4150135 43.2841139,4.86672467 42.2563471,4.86672467 C40.6675573,4.86672467 39.3795888,6.15465054 39.3795888,7.74338757 C39.3795888,9.3321246 40.6675573,10.6200505 42.2563471,10.6200505 L42.2563471,10.6200505 Z M7.74358019,10.6200505 C8.77134698,10.6200505 9.72104266,10.0717616 10.2349261,9.18171904 C10.7488095,8.29167643 10.7488095,7.19509871 10.2349261,6.30505611 C9.72104266,5.4150135 8.77134698,4.86672467 7.74358019,4.86672467 C6.15479044,4.86672467 4.86682188,6.15465054 4.86682188,7.74338757 C4.86682188,9.3321246 6.15479044,10.6200505 7.74358019,10.6200505 L7.74358019,10.6200505 Z M44.0597379,12.5033813 C42.1876964,13.2130718 40.0734638,12.7591078 38.6577955,11.3434864 C37.2421271,9.9278651 36.788148,7.81370267 37.497862,5.94172325 C33.7872048,3.50173947 29.441838,2.20477917 25.000797,2.21170035 C20.3856499,2.21170035 16.0921797,3.58339302 12.5037319,5.94172325 C13.213446,7.81370267 12.7594668,9.9278651 11.3437985,11.3434864 C9.92813022,12.7591078 7.81389762,13.2130718 5.94185608,12.5033813 C3.50188107,16.2139572 2.20488596,20.5591523 2.21171016,25.0000316 C2.21171016,37.5833485 12.4153958,47.7866685 25.000797,47.7866685 C37.5845315,47.7866685 47.7881901,37.5850152 47.7881901,25.0000316 C47.7881901,20.3850377 46.4164797,16.09171 44.0597379,12.5033813 L44.0597379,12.5033813 Z M45.9081302,11.2867163 C48.5854916,15.3585493 50.0082743,20.1268866 49.9999638,25.000032 C49.9999638,38.8066803 38.8079038,49.999999 24.9991303,49.999999 C11.1953569,49.999999 0,38.8050136 0,25.000032 C0,19.9367049 1.50504796,15.2250444 4.09179709,11.2883829 C2.16073018,9.29223122 2.18707149,6.11642478 4.15098409,4.15257735 C6.1148967,2.18872992 9.29080854,2.16238948 11.2870265,4.0933923 C15.3588107,1.41553155 20.1273199,-0.00778760209 25.000797,3.2048151e-05 C30.0642918,3.2048151e-05 34.7744419,1.50506237 38.7129008,4.09172565 C40.7091187,2.16072283 43.8850306,2.18706327 45.8489432,4.1509107 C47.8128558,6.11475813 47.8391971,9.29056457 45.9081302,11.2867163 Z M22.8240609,37.6466818 C28.863784,38.6861389 34.7955607,35.3098001 36.9854609,29.586081 C39.175361,23.8623619 37.0120703,17.3890485 31.8208657,14.1318275 C26.6296611,10.8746066 19.8596763,11.7427369 15.6583452,16.2043838 C11.457014,20.6660306 10.9971453,27.4757176 14.5604642,32.4616886 C16.2512085,30.9738368 18.7189243,30.7743943 20.6266761,31.9714131 C22.5344279,33.1684318 23.4283171,35.4771132 22.8240609,37.6466818 L22.8240609,37.6466818 Z M21.7073587,39.6816791 C20.0531458,41.5253713 17.311592,41.9100511 15.2138257,40.5928161 C13.1160594,39.2755812 12.2716342,36.639184 13.2137546,34.3483527 C8.66248246,28.6066838 8.90973209,20.4212995 13.7992592,14.9647826 C18.6887864,9.50826575 26.7983649,8.36776374 33.003316,12.263993 C39.2082671,16.1602223 41.7037447,23.9598793 38.912784,30.7341335 C36.1218232,37.5083877 28.856236,41.286799 21.7073587,39.6816791 L21.7073587,39.6816791 Z"
                id="形状"></path>
        </g>
        <g id="盾牌" transform="translate(463.561, 0)" fill="#239B56" fill-rule="nonzero">
            <path
                d="M40.6342007,6.19049159 L39.2683488,6.19049159 C27.4878494,6.19049159 22.3659046,1.2698394 22.3659046,1.11113397 L21.1707578,0 L19.975611,1.11113397 C19.975611,1.11113397 14.5122033,6.50790245 1.70731493,6.19049159 L0,6.19049159 L0,28.73019 C0,34.6031727 2.04877792,43.3333431 20.4878319,49.8412946 L21,50 L21.5122208,49.8412946 C39.9512748,43.1746377 42,34.6031727 42,28.73019 L42,6.19049159 L40.6342007,6.19049159 Z M39.097591,28.73019 C39.097591,31.9047885 39.097591,40.317499 21.1707578,46.9841559 C3.41462986,40.317499 3.41462986,31.9047885 3.41462986,28.73019 L3.41462986,9.20633568 C13.3171092,9.20633568 18.9512221,5.87303173 21.3415157,4.12697806 C23.5609987,5.87308072 29.3658695,9.04767923 39.2683488,9.20638466 L39.2683488,28.730239 L39.097591,28.73019 Z"
                id="形状"></path>
            <path
                d="M19.4634429,13.809528 L19.4634429,21.7460733 L10.9268682,21.7460733 C9.90247929,21.7460733 9.21955332,22.380993 9.21955332,23.3333725 C9.21955332,24.2857521 9.90247929,24.9206718 10.9268682,24.9206718 L19.4634429,24.9206718 L19.4634429,32.857217 C19.4634429,33.8095966 20.1463689,34.4445163 21.1707578,34.4445163 C22.1951468,34.4445163 22.8780728,33.8095966 22.8780728,32.857217 L22.8780728,24.9206228 L31.4146474,24.9206228 C32.4390364,24.9206228 33.1219624,24.2857031 33.1219624,23.3333235 C33.1219624,22.380944 32.4390364,21.7460243 31.4146474,21.7460243 L22.8780728,21.7460243 L22.8780728,13.809528 C22.8780728,12.8571485 22.1951468,12.2222288 21.1707578,12.2222288 C20.1463689,12.2222288 19.4634429,13.0159029 19.4634429,13.809528 Z"
                id="路径"></path>
        </g>
        <g id="安全中心-盾牌" transform="translate(464.561, 669)" fill="#239B56" fill-rule="nonzero">
            <path
                d="M24.7693379,1.4549939 C28.1710199,4.20515573 32.3078179,5.9837308 36.7095651,6.58857561 C38.5445048,6.85388667 40.3979664,6.98334095 42.2535693,6.97579435 C43.0962433,6.97686684 43.7948775,7.60299451 43.8541523,8.41026375 C44.0557525,11.0503915 43.9335706,13.6905192 43.9824433,16.3511813 C44.0160434,18.1670025 44.0099343,19.9857571 43.8877524,21.7986449 C43.5609157,26.6476795 42.7300788,31.391109 40.4849861,35.8030557 C38.3712773,39.9499673 35.1181977,43.4636082 31.076979,45.9646141 C28.431383,47.6064461 25.5855865,48.9295956 22.6036635,49.9042713 C22.220834,50.0319096 21.8043831,50.0319096 21.4215535,49.9042713 C16.399877,48.2321904 11.8211099,45.8560754 8.09761619,42.1364288 C4.6826318,38.7101297 2.55055747,34.6325991 1.36233837,30.0651781 C0.784532746,27.7836718 0.40346136,25.4603214 0.222992045,23.1187087 C-0.161880928,18.5688886 0.0702646915,14.016135 0.0611010239,9.46338136 C0.0677915426,9.15342888 0.0912413321,8.84401933 0.131355623,8.53640317 C0.265476876,7.62077067 1.09975422,6.95140599 2.06182982,6.98752826 C3.82579979,6.97945783 5.58681818,6.8480821 7.33092473,6.59444254 C11.6829296,5.98568882 15.7750102,4.23343381 19.1550791,1.53126423 C19.6940298,1.06781279 20.273473,0.649719722 20.8870077,0.281603774 C21.5953432,-0.103096496 22.464194,-0.0930163385 23.1626458,0.308005072 C23.7295809,0.64804261 24.2669022,1.03162667 24.7693379,1.4549939 Z M3.86095844,17.1637539 C3.76965089,19.316593 3.8329281,21.4729159 4.05034041,23.6173995 C4.27067791,26.3183338 4.83067952,28.9837187 5.7181235,31.5553836 C7.04413482,35.3578005 9.45118017,38.7282192 12.6672196,41.285721 C15.3542126,43.3758373 18.3906788,45.0134217 21.6475901,46.1288887 C21.9046771,46.2168242 22.1873031,46.2052518 22.4356634,46.0966205 C24.7170449,45.2864206 26.89968,44.2398348 28.9449047,42.9754028 C33.3354861,40.2965582 36.6359369,36.2519386 38.2948754,31.5172484 C39.7305129,27.5189216 40.094004,23.3651206 40.2284042,19.1966523 C40.3139315,16.4890547 40.1337132,13.7785235 40.1428768,11.0679923 C40.1428768,10.7130418 40.026804,10.5927693 39.6510946,10.572235 C38.0911357,10.4898339 36.5382793,10.3115043 35.0020729,10.0383425 C30.341711,9.22012728 25.9889078,7.23472578 22.3837361,4.28286403 C22.2923419,4.16933311 22.1513435,4.10286156 22.0019176,4.10286156 C21.8524918,4.10286156 21.7114934,4.16933311 21.6200991,4.28286403 C19.8312044,5.74382517 17.8501743,6.97271343 15.7278765,7.93797424 C12.1326738,9.58658735 8.30532545,10.3140892 4.35884976,10.5487672 C3.99230402,10.572235 3.85179482,10.6719731 3.85484936,11.0357241 C3.86706757,13.0832898 3.86095844,15.1220551 3.86095844,17.1637539 Z"
                id="形状"></path>
            <path
                d="M14.3747118,23.0571057 C14.9511467,23.0405075 15.5049472,23.2730572 15.8836584,23.6907364 C16.9527502,24.7203862 18.0218419,25.7441691 19.087879,26.7796859 C19.3933338,27.0730334 19.5704976,27.052499 19.8606796,26.7796859 C22.567009,24.1552033 25.2794474,21.5414769 27.9979949,18.9385064 C28.7646864,18.2022041 29.6291234,17.7651164 31.0525427,18.7360967 C31.3968454,18.9760307 31.6196973,19.3443885 31.6662277,19.7504731 C31.712758,20.1565577 31.5786438,20.5626395 31.2969065,20.8687332 C30.4966149,21.7341084 29.6169052,22.5290802 28.7677409,23.3475198 L21.0458442,30.7574783 C19.9614797,31.7959285 18.959588,31.7959285 17.872169,30.7574783 C16.3082406,29.2584724 14.7351485,27.7653335 13.1864928,26.2545938 C12.1326738,25.2278774 12.401474,23.6966034 13.6966023,23.1803117 C13.908807,23.0867876 14.1415982,23.0444917 14.3747118,23.0571057 L14.3747118,23.0571057 Z"
                id="路径"></path>
        </g>
        <line x1="825.895817" y1="154.076343" x2="861.165216" y2="133.380306" id="路径-16" stroke="#000000"
            stroke-dasharray="4"></line>
        <line x1="110.75152" y1="134.630236" x2="146.309513" y2="154.826413" id="路径-16" stroke="#000000"
            stroke-dasharray="4"></line>
        <line x1="112.895817" y1="579.076343" x2="148.165216" y2="558.380306" id="路径-16" stroke="#000000"
            stroke-dasharray="4"></line>
        <line x1="826.75152" y1="552.630236" x2="862.309513" y2="572.826413" id="路径-16" stroke="#000000"
            stroke-dasharray="4"></line>
        <line x1="861.469484" y1="133.684972" x2="944.530516" y2="133.228324" id="路径-17" stroke="#000000"
            stroke-dasharray="4"></line>
        <line x1="14.5" y1="134.978324" x2="111.5" y2="134.934972" id="路径-17" stroke="#000000" stroke-dasharray="4">
        </line>
        <line x1="0" y1="578.956648" x2="113.061033" y2="578.956648" id="路径-17" stroke="#000000" stroke-dasharray="4">
        </line>
        <line x1="862" y1="572.456648" x2="975.061033" y2="572.456648" id="路径-17" stroke="#000000" stroke-dasharray="4">
        </line>
        <g id="icon_downloadfile" transform="translate(155.561, 514)" fill="#239B56" fill-rule="nonzero">
            <path
                d="M3.21237062,37.1144228 L46.7876516,37.1144228 L46.7876516,9.35589795 L3.21237062,9.35589795 L3.21237062,37.1144228 Z M48.3923805,40 L1.60530585,40 C0.701829498,39.9845248 -0.0163583479,39.3388125 0.000283470694,38.5572114 L0.000283470694,7.91310937 C0.000283470694,7.11694872 0.717682861,6.47032079 1.6076417,6.47032079 L48.3947164,6.47032079 C49.2823394,6.47032079 49.9997324,7.11694872 49.9997324,7.91310937 L49.9997324,38.5572114 C50.007574,38.9329143 49.8428079,39.2960163 49.5414089,39.5666059 C49.24001,39.8371956 48.8266785,39.9930972 48.3923805,40 L48.3923805,40 Z"
                id="形状"></path>
            <path
                d="M25.7556586,26.8451629 C25.3213606,26.8382601 24.9080291,26.6823585 24.6066301,26.4117689 C24.3052311,26.1411793 24.1404651,25.7780772 24.1485938,25.4023743 L24.1485938,14.9997474 C24.1485938,14.2035868 24.8656997,13.5569588 25.7556586,13.5569588 C26.6432816,13.5569588 27.3603875,14.2035868 27.3603875,14.9997474 L27.3603875,25.4023743 C27.3773228,26.1839754 26.6591349,26.8296877 25.7556586,26.8451629 M29.5467431,8.84869917 L25.9635492,5.62768376 C24.0472673,3.88012629 21.3853571,2.89019276 18.6009501,2.88961859 L4.91754109,2.88961859 C3.9785294,2.88961859 3.21237062,3.57666077 3.21237062,4.42131851 L3.21237062,7.91513008 L0.00057692403,7.91513008 L0.00057692403,4.4192978 C0.00057692403,1.98231877 2.20795514,0 4.91754109,0 L18.6009501,0 C22.2402044,0 25.6622246,1.27304875 28.2339954,3.58676433 L31.8171892,6.80777974 L29.5467431,8.84869917 Z M34.7767111,31.304875 L16.7322702,31.304875 C15.8287938,31.2893998 15.110606,30.6436875 15.1275413,29.8620864 C15.1275413,29.0659257 15.8446472,28.4192978 16.7322702,28.4192978 L34.7767111,28.4192978 C35.6643341,28.4192978 36.3837759,29.0659257 36.3837759,29.8620864 C36.3919046,30.2377893 36.2271385,30.6008913 35.9257395,30.8714809 C35.6243405,31.1420705 35.211009,31.2979722 34.7767111,31.304875"
                id="形状"></path>
            <path
                d="M25.7556586,27.4170246 C25.5752706,27.4171338 25.4028398,27.352787 25.2791452,27.2392018 L18.7948257,21.4114675 C18.6025147,21.2350348 18.5451918,20.9784302 18.6476671,20.7527153 C18.7482383,20.5310946 18.9938115,20.3841421 19.2690032,20.3809043 L32.2376422,20.3809043 C32.5109367,20.3809043 32.753865,20.5263956 32.8589783,20.7527153 C32.9640915,20.9790351 32.9056953,21.2376863 32.7118197,21.4114675 L26.232172,27.2392018 C26.1085557,27.3516853 25.9373987,27.4158714 25.7579944,27.4170246"
                id="路径"></path>
        </g>
        <g id="features-(1)" transform="translate(436.561, 303)" fill-rule="nonzero">
            <path
                d="M32.1697196,4.74487577 L9.53189801,4.74487577 C4.27556756,4.74487577 0,9.0728881 0,14.3910686 L0,37.3003351 C0,42.6185156 4.27556756,46.946528 9.53189801,46.946528 L32.1697196,46.946528 C37.4248866,46.946528 41.7016177,42.6196931 41.7016177,37.3003351 L41.7016177,14.3910686 C41.7004544,9.0728881 37.4248867,4.74487577 32.1697196,4.74487577 Z M34.5524033,37.3003351 C34.5511206,38.6314958 33.4851078,39.7102909 32.1697196,39.711589 L9.53189801,39.711589 C8.21650983,39.7102909 7.15049703,38.6314958 7.14921435,37.3003351 L7.14921435,14.3910686 C7.15049703,13.0599079 8.21650983,11.9811128 9.53189801,11.9798147 L32.1697196,11.9798147 C33.4851078,11.9811128 34.5511206,13.0599079 34.5524033,14.3910686 L34.5524033,37.3003351 L34.5524033,37.3003351 Z"
                id="形状" fill="#239B56"></path>
            <path
                d="M76.1504767,7.94143542 C75.7047331,7.48766924 75.098093,7.23328491 74.4658449,7.23500238 C73.833897,7.23307348 73.2275409,7.48751443 72.7823765,7.94143542 L56.7737206,24.1408701 C55.8442944,25.083479 55.844815,26.6097517 56.7748841,27.5517111 L72.7812131,43.7499683 C73.6817,44.6612527 75.2511532,44.6612527 76.1493132,43.7499683 L92.1579691,27.5505337 C93.086755,26.607657 93.0862346,25.0819203 92.1568057,24.1396926 L76.1504767,7.94143542 Z"
                id="路径" fill="#A9E9C4"></path>
            <path
                d="M97.213028,19.0251971 L81.206699,2.82576259 C79.4229358,1.01045029 76.9955664,-0.00707492468 74.4658449,3.70322996e-05 C71.9367713,-0.0066778041 69.5100462,1.01032897 67.7261542,2.82458517 L51.7174984,19.0240198 C48.0026991,22.7845398 48.0026991,28.9045093 51.7174984,32.6662066 L67.7249908,48.8656412 C69.5090485,50.6805087 71.9362259,51.6979534 74.4658449,51.6913615 C76.9950865,51.69777 79.4218354,50.6803293 81.2055355,48.8656412 L97.213028,32.6662066 C100.928991,28.9056866 100.928991,22.7857171 97.213028,19.0251971 L97.213028,19.0251971 Z M92.1579691,27.5505337 L76.1493132,43.7499683 C75.2511532,44.6600753 73.6817,44.6612527 72.7812131,43.7499683 L56.7748841,27.5517111 C55.844815,26.6097517 55.8442944,25.083479 56.7737206,24.1408701 L72.7823765,7.94143542 C73.2314565,7.48579326 73.8294542,7.23501339 74.4658449,7.23501339 C75.1022356,7.23501339 75.7002332,7.48579316 76.1504767,7.94143542 L92.1568057,24.1396926 C93.0875415,25.0804113 93.0875415,26.6109923 92.1579691,27.5505337 L92.1579691,27.5505337 Z M32.1697196,57.7983478 L9.53189801,57.7983478 C4.27556756,57.7983478 0,62.1251828 0,67.4433632 L0,90.3526298 C0,95.6719877 4.27556756,99.9988227 9.53189801,99.9988227 L32.1697196,99.9988227 C37.4248866,99.9988227 41.7016177,95.6719878 41.7016177,90.3526298 L41.7016177,67.4433632 C41.7004544,62.1251828 37.4248867,57.7983478 32.1697196,57.7983478 Z M34.5524033,90.3526298 C34.5511206,91.6837905 33.4851078,92.7625856 32.1697196,92.7638836 L9.53189801,92.7638836 C8.21650983,92.7625856 7.15049703,91.6837905 7.14921435,90.3526298 L7.14921435,67.4433632 C7.15049703,66.1122026 8.21650983,65.0334074 9.53189801,65.0321094 L32.1697196,65.0321094 C33.4851078,65.0334074 34.5511206,66.1122026 34.5524033,67.4433632 L34.5524033,90.3526298 L34.5524033,90.3526298 Z M85.7847557,57.7983478 L63.146934,57.7983478 C57.8917671,57.7983478 53.615036,62.1251827 53.615036,67.4445407 L53.615036,90.3538072 C53.615036,95.6719877 57.8906036,100 63.146934,100 L85.7847557,100 C91.0399227,100 95.3166538,95.6731651 95.3166538,90.3538072 L95.3166538,67.4433632 C95.3166538,62.1251828 91.0399227,57.7983478 85.7847557,57.7983478 L85.7847557,57.7983478 Z M88.1674393,90.3526298 C88.1661566,91.6837905 87.1001438,92.7625856 85.7847557,92.7638836 L63.146934,92.7638836 C61.8315459,92.7625856 60.7655331,91.6837905 60.7642504,90.3526298 L60.7642504,67.4433632 C60.7655331,66.1122026 61.8315459,65.0334074 63.146934,65.0321094 L85.7847557,65.0321094 C87.1001438,65.0334074 88.1661566,66.1122026 88.1674393,67.4433632 L88.1674393,90.3526298 L88.1674393,90.3526298 Z"
                id="形状" fill="#239B56"></path>
        </g>
    </g>
</svg>