<?xml version="1.0" standalone="no"?><!DOCTYPE svg PUBLIC "-//W3C//DTD SVG 1.1//EN" "http://www.w3.org/Graphics/SVG/1.1/DTD/svg11.dtd"><svg t="1645512069206" class="icon" viewBox="0 0 1024 1024" version="1.1" xmlns="http://www.w3.org/2000/svg" p-id="6821" xmlns:xlink="http://www.w3.org/1999/xlink" width="128" height="128"><defs><style type="text/css">@font-face { font-family: feedback-iconfont; src: url("//at.alicdn.com/t/font_1031158_u69w8yhxdu.woff2?t=1630033759944") format("woff2"), url("//at.alicdn.com/t/font_1031158_u69w8yhxdu.woff?t=1630033759944") format("woff"), url("//at.alicdn.com/t/font_1031158_u69w8yhxdu.ttf?t=1630033759944") format("truetype"); }
</style></defs><path d="M98.348373 813.44c9.642667 0.426667 19.370667 1.706667 28.458667 5.12v-0.128l1.365333 0.512 119.893334-116.906667 4.352 5.845334c6.229333 8.533333 12.8 16.213333 19.797333 23.893333l2.56 2.901333c1.834667 1.834667 3.285333 3.669333 5.12 5.546667l13.909333 13.866667 3.285334 2.986666 2.986666 2.56a318.506667 318.506667 0 0 0 198.613334 75.818667 320.725333 320.725333 0 0 0 171.093333-44.373333l9.216 9.557333c10.666667 11.349333 21.632 22.741333 32.256 34.133333a378.069333 378.069333 0 0 1-214.058667 59.733334 377.045333 377.045333 0 0 1-233.088-88.021334l0.426667-0.682666-76.928 75.818666A95.872 95.872 0 1 1 0.001707 909.226667a95.829333 95.829333 0 0 1 95.829333-95.829334h2.474667zM831.148373 319.018667a376.96 376.96 0 0 1 54.613334 205.994666 375.04 375.04 0 0 1-94.208 239.701334l0.426666 0.426666 47.232 50.176c19.029333-2.56 38.058667 4.010667 51.285334 17.92a59.477333 59.477333 0 0 1-2.218667 83.925334 59.477333 59.477333 0 0 1-83.925333-2.218667 59.008 59.008 0 0 1-15.018667-52.053333 14365.44 14365.44 0 0 0-83.2-88.32l-4.693333-5.12 5.461333-4.394667c14.293333-11.349333 27.477333-23.808 39.594667-37.76a316.928 316.928 0 0 0 80.213333-203.776 317.44 317.44 0 0 0-39.552-162.688l43.946667-41.813333zM163.329707 94.976c16.853333-0.256 32.64 6.4 44.373333 18.432 13.226667 13.909333 18.773333 33.365333 15.061333 52.053333L313.601707 260.693333l-5.461334 4.437334a295.381333 295.381333 0 0 0-39.594666 37.76 319.701333 319.701333 0 0 0-41.045334 366.805333l-43.605333 42.496a373.888 373.888 0 0 1-54.954667-207.061333c1.877333-88.234667 36.266667-173.482667 94.037334-239.872L172.929707 213.077333a59.776 59.776 0 0 1-51.328-17.92 59.562667 59.562667 0 0 1 2.218666-83.968c9.258667-8.704 21.205333-14.293333 33.877334-15.786666 1.877333-0.256 3.84-0.298667 5.674666-0.426667zM928.129707 18.858667a95.914667 95.914667 0 1 1-29.866667 186.965333l-0.085333 0.085333-1.408-0.512-130.133334 123.52-4.352-5.888a306.346667 306.346667 0 0 0-22.741333-26.752l-1.450667-1.834666-11.349333-11.349334-5.12-4.394666-3.285333-2.986667-2.56-2.133333-3.285334-2.986667a318.208 318.208 0 0 0-197.12-74.752 317.269333 317.269333 0 0 0-170.837333 44.373333l-41.813333-43.605333a377.173333 377.173333 0 0 1 214.058666-59.733333 375.210667 375.210667 0 0 1 233.130667 88.32h0.725333l86.186667-81.792A95.872 95.872 0 0 1 928.300373 18.901333zM510.29504 232.874667c10.837333 0 21.632 0.853333 32.426667 2.133333 154.624 19.413333 264.192 160.512 245.162666 315.178667a282.709333 282.709333 0 0 1-315.178666 245.205333 282.709333 282.709333 0 0 1-245.248-315.178667c18.432-143.488 139.008-246.826667 282.794666-247.338666z m-4.266667 121.173333c-62.549333 4.949333-107.861333 52.309333-109.482666 115.2 1.152 44.928 24.106667 82.773333 64.213333 103.466667l-21.845333 102.4h146.048l-21.76-102.4c39.893333-21.632 63.573333-57.429333 64.213333-103.381334-0.853333-64.938667-51.114667-113.834667-115.456-115.456l-5.973333 0.170667z m2.218667-0.682667h-0.426667 0.426667z" p-id="6822" data-spm-anchor-id="a313x.7781069.0.i10" class="selected" fill="#239b56"></path></svg>