<svg t="1703674697320" class="icon" viewBox="0 0 1024 1024" version="1.1" xmlns="http://www.w3.org/2000/svg"
    p-id="27259" width="200" height="200">
    <path
        d="M514.1 926c78.5 0 151.9-21.9 214.4-59.8L928.1 926l-82-166.6c51.5-69 82-154.7 82-247.4 0-228.6-185.4-414-414-414s-414 185.4-414 414 185.4 414 414 414zM361.9 424.1c0.9-33.5 4.9-59 11.9-76.5s18.2-33.1 33.5-46.8c15.4-13.7 32.5-23.9 51.3-30.4s38.8-9.8 59.7-9.8c42.4 0 77.6 12.5 105.8 37.4 28.2 24.9 42.3 58.1 42.3 99.5 0 18.6-3.6 35.5-10.8 50.6-7.2 15.1-22.6 34-46.1 56.6s-39.1 38.6-46.8 48.2c-7.7 9.5-13.5 20.9-17.5 34.2s-5.7 31.1-5.2 53.4h-61.5c0-26.1 2.1-46.9 6.3-62.5s10.5-29.2 18.9-40.9c8.4-11.6 23.5-28.8 45.4-51.3 21.9-22.6 36-39 42.3-49.2 6.3-10.2 9.4-25.5 9.4-45.7 0-20.3-7.2-38.2-21.6-53.8-14.4-15.6-35.4-23.4-62.9-23.4-61.9 0-92.9 36.8-92.9 110.3h-61.5v0.1z m182.9 344.3h-67.7v-71.2h67.7v71.2z"
        fill="#2c2c2c" p-id="27260"></path>
</svg>