<svg t="1703673225121" class="icon" viewBox="0 0 1024 1024" version="1.1" xmlns="http://www.w3.org/2000/svg"
    p-id="21403" width="200" height="200">
    <path
        d="M876 300.8H680v-83.9c0-46.3-37.7-83.9-84-83.9H148c-46.3 0-84 37.6-84 83.9v335.7c0 46.3 37.7 83.9 84 83.9h28v142.1l177.8-142.1H456v28c0 46.3 37.7 83.9 84 83.9h75.9L792 891V748.4h84c46.3 0 84-37.6 84-83.9V384.8c0-46.3-37.7-84-84-84z m-420 84v195.8H334.2L232 662.2v-81.7h-84c-15.4 0-28-12.5-28-28V216.9c0-15.4 12.6-28 28-28h448c15.4 0 28 12.5 28 28v83.9h-84c-46.3 0-84 37.7-84 84z m448 279.7c0 15.4-12.6 28-28 28H736v81.2l-100.4-81.2H540c-15.4 0-28-12.6-28-28V384.8c0-15.4 12.6-28 28-28h336c15.4 0 28 12.5 28 28v279.7z"
        fill="#ffffff" p-id="21404"></path>
</svg>