<svg t="1703674386094" class="icon" viewBox="0 0 1024 1024" version="1.1" xmlns="http://www.w3.org/2000/svg"
    p-id="24277" width="200" height="200">
    <path
        d="M618.666667 789.333333a85.333333 85.333333 0 1 1-85.12 91.733334l-0.213334-6.4v-42.666667a42.666667 42.666667 0 0 1 37.674667-42.368l4.992-0.298667h42.666667z m-234.666667-256a106.666667 106.666667 0 0 1 106.453333 99.669334L490.666667 640v213.333333a106.666667 106.666667 0 0 1-213.12 6.997334L277.333333 853.333333v-213.333333A106.666667 106.666667 0 0 1 384 533.333333z m234.666667 320H597.333333v21.333334a21.333333 21.333333 0 1 0 21.333334-21.333334zM384 597.333333a42.666667 42.666667 0 0 0-42.666667 42.666667v213.333333a42.666667 42.666667 0 0 0 85.333334 0v-213.333333a42.666667 42.666667 0 0 0-42.666667-42.666667z m469.333333-64a106.666667 106.666667 0 0 1 6.997334 213.12L853.333333 746.666667h-213.333333a106.666667 106.666667 0 0 1-6.997333-213.12L640 533.333333h213.333333z m-661.333333 0a42.666667 42.666667 0 0 1 42.368 37.674667l0.298667 4.992v42.666667a85.333333 85.333333 0 1 1-91.733334-85.12l6.4-0.213334h42.666667zM853.333333 597.333333h-213.333333a42.666667 42.666667 0 0 0 0 85.333334h213.333333a42.666667 42.666667 0 0 0 0-85.333334zM170.666667 597.333333h-21.333334a21.333333 21.333333 0 1 0 21.333334 21.333334V597.333333z m213.333333-320a106.666667 106.666667 0 0 1 6.997333 213.12L384 490.666667H170.666667a106.666667 106.666667 0 0 1-6.997334-213.12L170.666667 277.333333h213.333333z m490.666667 42.666667a85.333333 85.333333 0 0 1 6.4 170.453333l-6.4 0.213334h-42.666667a42.666667 42.666667 0 0 1-42.368-37.674667L789.333333 448v-42.666667a85.333333 85.333333 0 0 1 85.333334-85.333333z m-234.666667-256a106.666667 106.666667 0 0 1 106.453333 99.669333L746.666667 170.666667v213.333333a106.666667 106.666667 0 0 1-213.12 6.997333L533.333333 384V170.666667A106.666667 106.666667 0 0 1 640 64zM384 341.333333H170.666667a42.666667 42.666667 0 0 0 0 85.333334h213.333333a42.666667 42.666667 0 0 0 0-85.333334z m490.666667 42.666667a21.333333 21.333333 0 0 0-21.333334 21.333333v21.333334h21.333334a21.333333 21.333333 0 0 0 0-42.666667zM640 128a42.666667 42.666667 0 0 0-42.666667 42.666667v213.333333a42.666667 42.666667 0 0 0 85.333334 0V170.666667a42.666667 42.666667 0 0 0-42.666667-42.666667zM405.333333 64a85.333333 85.333333 0 0 1 85.12 78.933333l0.213334 6.4v42.666667a42.666667 42.666667 0 0 1-37.674667 42.368L448 234.666667h-42.666667a85.333333 85.333333 0 0 1 0-170.666667z m0 64a21.333333 21.333333 0 0 0 0 42.666667h21.333334v-21.333334a21.333333 21.333333 0 0 0-21.333334-21.333333z"
        fill="#ffffff" p-id="24278"></path>
</svg>