<svg t="1704705216458" class="icon" viewBox="0 0 1024 1024" version="1.1" xmlns="http://www.w3.org/2000/svg"
    p-id="42426" width="2rem" height="2rem">
    <path
        d="M437.527273 297.890909c-20.945455-11.636364-48.872727-11.636364-69.818182 0-20.945455 11.636364-34.909091 34.909091-34.909091 60.509091v307.2c0 25.6 13.963636 48.872727 34.909091 60.509091 11.636364 6.981818 23.272727 9.309091 34.909091 9.309091s23.272727-2.327273 34.909091-9.309091l267.636363-153.6c20.945455-11.636364 34.909091-34.909091 34.909091-60.509091s-13.963636-48.872727-34.909091-60.509091l-267.636363-153.6z m242.036363 235.054546l-267.636363 153.6c-11.636364 6.981818-20.945455 2.327273-23.272728 0-4.654545-2.327273-11.636364-6.981818-11.636363-20.945455V358.4c0-11.636364 6.981818-18.618182 11.636363-20.945455 2.327273-2.327273 6.981818-2.327273 11.636364-2.327272 2.327273 0 6.981818 0 11.636364 2.327272l267.636363 153.6c11.636364 6.981818 11.636364 16.290909 11.636364 20.945455s0 13.963636-11.636364 20.945455z"
        fill="#239b56" p-id="42427"></path>
    <path
        d="M923.927273 209.454545c-6.981818-9.309091-23.272727-11.636364-32.581818-4.654545-9.309091 6.981818-11.636364 23.272727-4.654546 32.581818C947.2 316.509091 977.454545 411.927273 977.454545 512c0 256-209.454545 465.454545-465.454545 465.454545S46.545455 768 46.545455 512 256 46.545455 512 46.545455c100.072727 0 195.490909 30.254545 274.618182 90.763636 9.309091 6.981818 25.6 4.654545 32.581818-4.654546s4.654545-25.6-4.654545-32.581818C726.109091 34.909091 621.381818 0 512 0 230.4 0 0 230.4 0 512s230.4 512 512 512 512-230.4 512-512c0-109.381818-34.909091-214.109091-100.072727-302.545455z"
        fill="#239b56" p-id="42428"></path>
</svg>