<svg t="1704781083261" class="icon" viewBox="0 0 1024 1024" version="1.1" xmlns="http://www.w3.org/2000/svg" p-id="3166"
    width="200" height="200">
    <path
        d="M28.444444 483.555556l227.555556-199.111112 455.111111 28.444445 28.444445 455.111111-199.111112 227.555556s0.028444-170.638222-170.666666-341.333334-341.333333-170.666667-341.333334-170.666666z"
        fill="#df1313" p-id="3167"></path>
    <path
        d="M27.676444 995.555556s-1.024-226.958222 84.906667-312.888889C198.485333 596.736 426.666667 602.652444 426.666667 602.652444S426.638222 824.888889 341.304889 910.222222c-85.333333 85.333333-313.628444 85.333333-313.628445 85.333334z"
        fill="#f27609" p-id="3168"></path>
    <path d="M255.971556 881.777778a113.777778 113.777778 0 1 0 0-227.555556 113.777778 113.777778 0 0 0 0 227.555556z"
        fill="#FFD74D" p-id="3169"></path>
    <path
        d="M1023.971556 0s-284.444444 0-625.777778 284.444444c-170.666667 142.222222-170.666667 398.222222-113.777778 455.111112s312.888889 56.888889 455.111111-113.777778c284.444444-341.333333 284.444444-625.777778 284.444445-625.777778z"
        fill="#36C5F0" p-id="3170" data-spm-anchor-id="a313x.search_index.0.i10.1af63a81YhvqC5" class="selected"></path>
    <path
        d="M767.971556 142.222222a113.664 113.664 0 0 0-103.566223 67.128889 112.924444 112.924444 0 0 1 127.146667 23.096889 113.095111 113.095111 0 0 1 23.125333 127.089778 113.578667 113.578667 0 0 0 33.735111-183.978667A113.777778 113.777778 0 0 0 768 142.222222z"
        fill="#FFFFFF" p-id="3171"></path>
    <path
        d="M227.555556 796.444444s0-113.777778 28.444444-142.222222 369.806222-312.860444 398.222222-284.444444c28.416 28.416-256.028444 369.777778-284.472889 398.222222S227.555556 796.444444 227.555556 796.444444z"
        fill="#df1313" p-id="3172"></path>
</svg>