<svg t="1704705499264" class="icon" viewBox="0 0 1024 1024" version="1.1" xmlns="http://www.w3.org/2000/svg"
    p-id="44464" width="200" height="200">
    <path
        d="M878.778182 636.276364a133.12 133.12 0 0 0-165.236364 196.421818A377.483636 377.483636 0 0 1 378.88 884.363636l46.545455-11.636363a23.272727 23.272727 0 0 0 16.756363-28.392728 23.738182 23.738182 0 0 0-28.392727-16.756363l-112.64 28.858182-5.12 2.327272h-3.258182a12.567273 12.567273 0 0 0-3.258182 3.723637l-2.792727 2.792727a17.687273 17.687273 0 0 0 0 4.654545 19.083636 19.083636 0 0 0 0 3.723637 13.498182 13.498182 0 0 0 0 6.050909v3.258182l30.254545 113.570909a23.272727 23.272727 0 0 0 22.341819 17.221818h6.050909a23.272727 23.272727 0 0 0 16.756363-28.392727l-20.945454-63.767273a422.632727 422.632727 0 0 0 153.6 29.323636 418.909091 418.909091 0 0 0 252.276363-85.178181 130.792727 130.792727 0 0 0 75.869091 24.66909 133.12 133.12 0 0 0 55.854546-254.138181z m-55.854546 207.592727a86.574545 86.574545 0 0 1-59.578181-24.203636 83.781818 83.781818 0 0 1-26.996364-62.37091 86.574545 86.574545 0 0 1 86.574545-86.574545 93.090909 93.090909 0 0 1 36.305455 7.912727 87.04 87.04 0 0 1-36.305455 165.701818zM298.356364 756.829091a133.585455 133.585455 0 0 0-133.12-133.12 125.672727 125.672727 0 0 0-29.323637 3.258182 372.363636 372.363636 0 0 1-12.101818-93.090909A367.243636 367.243636 0 0 1 284.858182 228.072727l-15.825455 58.181818a23.272727 23.272727 0 0 0 16.756364 28.392728 12.567273 12.567273 0 0 0 6.050909 0 22.807273 22.807273 0 0 0 22.341818-17.221818L344.436364 186.181818v-3.258182a22.341818 22.341818 0 0 0 0-5.585454v-3.723637a22.807273 22.807273 0 0 0 0-5.12l-2.792728-2.792727a12.567273 12.567273 0 0 0-3.258181-3.723636l-5.12-2.792727H325.818182l-111.709091-31.185455a22.807273 22.807273 0 0 0-27.927273 16.756364 23.272727 23.272727 0 0 0 16.290909 28.392727L260.654545 186.181818A413.789091 413.789091 0 0 0 93.090909 645.12a133.12 133.12 0 1 0 165.236364 207.127273 134.050909 134.050909 0 0 0 40.029091-95.418182z m-133.12 87.04a86.574545 86.574545 0 0 1-35.374546-166.167273 84.712727 84.712727 0 0 1 35.374546-7.447273 86.574545 86.574545 0 0 1 86.574545 86.574546 85.643636 85.643636 0 0 1-26.065454 61.905454l16.290909 19.083637-16.290909-16.756364a85.643636 85.643636 0 0 1-60.509091 22.807273zM985.367273 468.247273a23.738182 23.738182 0 0 0-33.047273 0l-40.96 42.356363a418.909091 418.909091 0 0 0-283.461818-372.363636A133.12 133.12 0 0 0 361.658182 139.636364a127.069091 127.069091 0 0 0 0 16.290909l23.272727-2.792728 22.341818-6.516363V139.636364a86.574545 86.574545 0 0 1 173.149091 0V150.341818a86.109091 86.109091 0 0 1-171.287273 0l-22.807272 2.792727-23.272728 2.792728a132.654545 132.654545 0 0 0 257.396364 30.254545 372.363636 372.363636 0 0 1 243.898182 325.818182l-43.287273-42.821818a23.272727 23.272727 0 0 0-33.047273 33.047273l82.85091 81.92 3.723636 2.327272h4.189091a18.152727 18.152727 0 0 0 8.378182 0 19.083636 19.083636 0 0 0 8.843636 0 10.705455 10.705455 0 0 0 4.654545-3.258182h3.258182l81.92-84.247272a23.738182 23.738182 0 0 0-0.465454-30.72z"
        fill="#239b56" p-id="44465"></path>
</svg>