<svg t="1704705575916" class="icon" viewBox="0 0 1025 1024" version="1.1" xmlns="http://www.w3.org/2000/svg"
    p-id="46963" width="200" height="200">
    <path
        d="M852.255 322.528c0-65.712-53.442-119.172-119.132-119.172-65.711 0-119.171 53.461-119.171 119.172 0 65.69 53.46 119.132 119.171 119.132C798.813 441.66 852.255 388.217 852.255 322.528zM801.935 322.553c0 37.942-30.869 68.811-68.812 68.811-37.964 0-68.851-30.869-68.851-68.811 0-37.965 30.886-68.852 68.851-68.852C771.066 253.701 801.935 284.588 801.935 322.553z"
        p-id="46964" fill="#239b56"></path>
    <path
        d="M1021.905 40.751l-0.842-6.791-6.838-0.284c-12.267-0.509-24.382-0.767-36.007-0.767-86.79 0-168.182 13.548-241.91 40.269-59.076 21.41-113.379 51.273-161.401 88.757-71.787 56.035-107.4 111.497-116.092 126.169l-168.014 21.019L42.324 557.61l243.649 0c-3.286 67.805 12.286 120.663 46.338 157.203 45.252 48.56 111.951 55.81 147.681 55.81 7.315 0 13.461-0.293 18.057-0.621L498.049 991.09l270.026-248.559L768.075 595.908c66.683-49.787 121.513-109.535 163.006-177.636 33.736-55.371 58.766-116.336 74.395-181.204C1032.094 126.591 1022.334 44.204 1021.905 40.751zM709.63 591.844l0 133.51-153.111 134.47 0-98.691c0-27.767-22.847-50.357-50.929-50.357-2.153 0-14.174 1.402-25.597 1.402-44.742 0-79.152-12.588-102.276-37.414-25.257-27.116-36.634-69.198-32.902-121.704 0.967-13.792-3.946-27.567-13.48-37.793-9.54-10.233-22.947-16.102-36.783-16.102L183.466 499.165 317.96 364.672l152.091-19.062c16.077-1.985 30.302-11.686 38.022-25.895 5.076-9.171 127.185-222.971 457.649-228.224-0.696 92.773-27.065 305.992-235.611 459.79C717.287 560.744 709.63 575.908 709.63 591.844z"
        p-id="46965" fill="#239b56"></path>
    <path
        d="M242.325 696.294c-24.879-44.079-24.358-82.709-24.351-83.078l0.429-17.049L0 766.072l132.946 22.13L44.695 923.239l181.519-46.792 44.229 110.606L437.39 820.088l-14.037-3.358C337.849 796.275 275.251 754.628 242.325 696.294zM188.355 810.215c9.456-14.196 10.984-32.138 4.087-47.996-6.875-15.806-20.994-26.886-37.749-29.636l-13.533-2.255 37.999-29.537c12.287 27.803 29.561 53.445 51.45 76.349 26.682 27.922 59.684 51.039 98.229 68.828l-37.048 37.048-13.945-34.84c-7.559-18.906-26.441-31.609-46.986-31.609-4.042 0-8.078 0.49-12.014 1.462l-42.831 10.683L188.355 810.215z"
        p-id="46966" fill="#239b56"></path>
</svg>