<svg t="1704705479683" class="icon" viewBox="0 0 1024 1024" version="1.1" xmlns="http://www.w3.org/2000/svg"
    p-id="43391" width="200" height="200">
    <path
        d="M511.972 0.5c-218.106 0-404.299 136.562-477.843 328.821l79.097 0c21.456-46.774 51.28-89.855 88.754-127.331 82.806-82.811 192.897-128.419 309.992-128.419 117.111 0 227.216 45.608 310.031 128.421C904.82 284.805 950.429 394.9 950.429 512c0 117.108-45.608 227.209-128.422 310.018-82.813 82.807-192.922 128.411-310.035 128.411-117.099 0-227.19-45.604-309.994-128.409-37.477-37.477-67.301-80.562-88.761-127.341L34.125 694.679C107.666 886.95 293.862 1023.5 511.976 1023.5c282.498 0 511.524-228.999 511.524-511.5C1023.5 229.529 794.474 0.5 511.972 0.5zM399.796 667.009l51.669 51.669L658.143 512 451.465 305.322l-51.671 51.67 118.475 118.472L0.5 475.464l0 73.072 517.769 0L399.796 667.009z"
        fill="#239b56" p-id="43392"></path>
</svg>