<svg t="1705044279882" class="icon" viewBox="0 0 1024 1024" version="1.1" xmlns="http://www.w3.org/2000/svg"
    p-id="11393" width="200" height="200">
    <path
        d="M874.4 394.2c-6.5-100.8-19.1-187.6-19.6-191.3-1.6-10.9-9.1-20-19.4-23.8L522.2 65.8c-6.6-2.4-13.9-2.4-20.5 0l-313 113.4c-10.4 3.8-17.8 12.9-19.4 23.8-0.5 3.6-13.2 90.5-19.6 191.3-3.8 59.6-4.6 111.6-2.4 154.6 2.9 57.3 11.1 98.3 25 125.6 20.5 40.1 79.8 97.9 181.3 176.8 72.7 56.5 140.9 103.1 141.6 103.6 5.1 3.5 11 5.2 16.9 5.2 5.9 0 11.8-1.7 16.9-5.2 0.7-0.5 68.9-47.1 141.6-103.6 101.4-79 160.7-136.8 181.2-176.9 13.9-27.2 22.1-68.3 25-125.5 2.2-43 1.4-95-2.4-154.7z m-648.2-165l226.5-82v306.7h-246c0.6-17 1.5-35.4 2.7-55.4 4.7-72.4 12.8-138.8 16.8-169.3z m407.6 574.7c-49.3 38.4-96.5 72.1-121.2 89.3V513.5h305.2c-1.2 82.7-11.9 118.6-19.6 133.7-9 17.9-42.5 61.9-164.4 156.7z"
        fill="#239b56" p-id="11394"></path>
</svg>