<svg t="1705396299960" class="icon" viewBox="0 0 1024 1024" version="1.1" xmlns="http://www.w3.org/2000/svg" p-id="1672"
    width="200" height="200">
    <path
        d="M842.666667 311.466667H561.066667c-29.866667 0-57.6-12.8-78.933334-34.133334l-91.733333-98.133333c-12.8-12.8-29.866667-21.333333-46.933333-21.333333H181.333333c-36.266667 0-64 27.733333-64 64v578.133333c0 36.266667 27.733333 64 64 64h661.333334c36.266667 0 64-27.733333 64-64V375.466667c0-34.133333-27.733333-64-64-64zM471.466667 684.8c12.8 10.666667 14.933333 32 2.133333 44.8-10.666667 12.8-32 14.933333-44.8 2.133333l-76.8-68.266666c-10.666667-8.533333-12.8-23.466667-8.533333-36.266667 4.266667-12.8 17.066667-21.333333 29.866666-21.333333h277.333334c17.066667 0 32 14.933333 32 32s-14.933333 32-32 32h-192l12.8 14.933333z m209.066666-134.4c-4.266667 12.8-17.066667 21.333333-29.866666 21.333333h-277.333334c-17.066667 0-32-14.933333-32-32s14.933333-32 32-32h192l-12.8-10.666666c-12.8-10.666667-14.933333-32-4.266666-44.8 10.666667-12.8 32-14.933333 44.8-2.133334l76.8 68.266667c12.8 4.266667 14.933333 19.2 10.666666 32z"
        fill="#239b56" p-id="1673"></path>
    <path
        d="M842.666667 279.466667H561.066667c-21.333333 0-40.533333-8.533333-55.466667-23.466667l-91.733333-98.133333c-19.2-19.2-42.666667-29.866667-70.4-29.866667H181.333333C128 128 85.333333 170.666667 85.333333 224v578.133333C85.333333 853.333333 128 896 181.333333 896h661.333334c53.333333 0 96-42.666667 96-96V375.466667c0-51.2-42.666667-96-96-96zM874.666667 800c0 17.066667-14.933333 32-32 32h-661.333334c-17.066667 0-32-12.8-32-32v-576C149.333333 204.8 164.266667 192 181.333333 192h162.133334c8.533333 0 17.066667 4.266667 23.466666 10.666667l91.733334 98.133333c25.6 27.733333 61.866667 44.8 102.4 44.8h281.6c17.066667 0 32 14.933333 32 32v422.4z"
        fill="#239b56" p-id="1674"></path>
</svg>