<svg xmlns="http://www.w3.org/2000/svg" width="224" height="1035" fill="none">
    <path
        d="M517.5 1035c16.746 0 30.322-13.58 30.322-30.32V883.389c0-16.746-13.576-30.323-30.322-30.323-185.03 0-335.566-150.534-335.566-335.566 0-185.033 150.536-335.566 335.566-335.566 185.031 0 335.567 150.533 335.566 335.566 0 16.746 13.577 30.322 30.323 30.322h121.291c16.74 0 30.32-13.576 30.32-30.322C1035 232.57 802.447 0 517.5 0 232.57 0 0 232.551 0 517.5 0 802.43 232.554 1035 517.5 1035Z"
        fill="url(#a)" opacity=".18" />
    <defs>
        <linearGradient id="a" x1="517.5" y1="0" x2="517.5" y2="1035" gradientUnits="userSpaceOnUse">
            <stop stop-color="#339e61" />
            <stop offset="1" stop-color="#2f985d" />
        </linearGradient>
    </defs>
</svg>