<svg t="1705047353424" class="icon" viewBox="0 0 1024 1024" version="1.1" xmlns="http://www.w3.org/2000/svg"
    p-id="21052" width="200" height="200">
    <path
        d="M824.253 298.06A141.008 141.008 0 0 0 714.236 392.9a120.016 120.016 0 0 1-81.587 78.906l-57.524 15.962a119.354 119.354 0 0 1-128.75-45.025l-0.452-0.602c-26.623-36.984-28.912-85.532-7.378-125.678a213.981 213.981 0 0 0-19.878-233.106C347.923-7.507 215.83-27.083 121.533 39.476a214.282 214.282 0 0 0-48.247 304.483 217.655 217.655 0 0 0 209.704 83.544c45.266-7.53 90.954 10.24 117.607 47.254l9.788 13.552a117.366 117.366 0 0 1 10.692 119.384l-25.359 52.976a117.155 117.155 0 0 1-83.032 64.811 140.887 140.887 0 0 0-108.12 95.983c-21.684 68.516 13.251 143.176 79.93 171.065 74.45 31.11 159.32-5.662 187.388-80.021A139.26 139.26 0 0 0 458.241 787.1a116.221 116.221 0 0 1-6.746-113.541l28.611-59.632a118.66 118.66 0 0 1 75.353-63.005l96.585-26.834c37.225-10.33 77.611-3.011 107.668 21.142a142.032 142.032 0 0 0 118.059 28.34c78.183-16.293 127.636-93.874 108.03-171.576-17.86-70.895-89.026-116.703-161.548-103.964"
        fill="#239b56" p-id="21053"></path>
</svg>