<?xml version="1.0" standalone="no"?><!DOCTYPE svg PUBLIC "-//W3C//DTD SVG 1.1//EN" "http://www.w3.org/Graphics/SVG/1.1/DTD/svg11.dtd"><svg t="1645512736891" class="icon" viewBox="0 0 1024 1024" version="1.1" xmlns="http://www.w3.org/2000/svg" p-id="2459" data-spm-anchor-id="a313x.7781069.0.i7" xmlns:xlink="http://www.w3.org/1999/xlink" width="128" height="128"><defs><style type="text/css">@font-face { font-family: feedback-iconfont; src: url("//at.alicdn.com/t/font_1031158_u69w8yhxdu.woff2?t=1630033759944") format("woff2"), url("//at.alicdn.com/t/font_1031158_u69w8yhxdu.woff?t=1630033759944") format("woff"), url("//at.alicdn.com/t/font_1031158_u69w8yhxdu.ttf?t=1630033759944") format("truetype"); }
</style></defs><path d="M441.856 80.896V103.424c-0.512 32.768-4.096 71.168-7.68 83.456-8.192 9.216-38.4 31.232-65.536 47.616l-1.024 0.512-1.024 0.512c-6.656 4.608-13.824 8.704-20.992 12.8 0-6.656 0-13.824 0.512-22.016v-3.072c0-38.4 4.608-73.216 9.728-83.456 10.24-11.776 43.008-34.304 68.096-48.64l1.024-0.512 1.024-0.512c4.608-2.56 10.24-6.144 15.872-9.216m35.84-70.656c-19.968 0-79.36 36.864-79.36 36.864S336.384 81.92 314.88 109.056c-21.504 26.624-20.48 112.128-20.48 115.2 0 3.072-4.096 93.184 16.896 93.696h0.512c22.016 0 82.432-39.424 82.432-39.424s70.656-41.984 83.968-66.56c13.824-24.064 14.336-108.032 14.336-108.032s2.048-84.992-10.752-92.672c-1.024-0.512-2.56-1.024-4.096-1.024z" fill="#239b56" p-id="2460" data-spm-anchor-id="a313x.7781069.0.i5" class="selected"></path><path d="M514.56 723.456c-12.288 0-56.32-19.456-89.088-37.376-20.48-10.752-41.472-24.064-54.272-33.28 11.776-9.216 31.744-21.504 51.2-32.256 23.04-13.824 65.536-35.84 86.528-39.424h2.048c19.968 0 65.024 20.992 91.136 35.84l2.048 1.024c28.672 14.848 45.056 26.112 53.248 33.28-11.776 9.216-34.304 23.04-56.32 34.304-31.744 18.432-74.24 37.888-86.528 37.888z" fill="#239b56" p-id="2461" data-spm-anchor-id="a313x.7781069.0.i12" class="selected"></path><path d="M512 606.72c12.288 0.512 48.64 15.872 77.824 32.768 0.512 0 1.024 0.512 2.56 1.536 7.168 3.584 13.312 7.168 18.944 10.24-7.168 4.096-14.336 8.192-21.504 11.776l-1.024 0.512-1.024 0.512c-27.648 15.872-61.44 31.232-73.728 33.792-12.8-2.56-48.128-18.432-77.312-34.304-6.144-3.072-12.8-7.168-18.944-10.752 5.632-3.072 11.264-6.656 16.384-9.728l1.024-0.512 1.024-0.512c24.576-14.848 60.416-32.256 75.776-35.328m-0.512-51.2c-2.048 0-4.608 0-6.656 0.512-34.304 5.632-94.72 42.496-94.72 42.496s-72.704 39.936-72.192 55.296c0.512 15.36 75.264 54.784 75.264 54.784s73.728 40.448 101.376 40.448 98.816-40.96 98.816-40.96 65.536-34.304 75.264-52.736c9.728-18.432-71.168-59.392-73.728-60.416-2.048-1.536-68.096-39.424-103.424-39.424z" fill="#239b56" p-id="2462" data-spm-anchor-id="a313x.7781069.0.i6" class="selected"></path><path d="M318.464 560.128c-2.56-14.336-3.584-39.936-2.56-63.488 0-47.104 6.144-89.6 14.848-100.352C344.064 379.904 384 353.28 406.528 340.992c19.456-11.776 40.448-23.04 53.76-29.184 2.048 15.36 3.072 39.936 2.56 62.976-0.512 37.888-4.608 84.992-10.752 96.256-6.144 10.752-43.52 38.4-74.752 56.832-22.016 13.824-45.056 26.624-58.88 32.256z" fill="#239b56" p-id="2463" data-spm-anchor-id="a313x.7781069.0.i11" class="selected"></path><path d="M437.248 352.256v22.528c-0.512 32.768-4.096 71.168-7.68 83.456-8.192 9.216-38.4 31.232-65.536 47.616l-1.024 0.512-1.024 0.512c-6.656 4.608-13.824 8.704-20.992 12.8 0-7.168 0-14.848 0.512-22.016v-2.56c0-38.4 4.608-73.216 9.728-83.456 10.752-12.288 43.008-34.304 68.096-48.64l1.024-0.512 1.024-0.512c4.608-3.072 10.24-6.656 15.872-9.728m35.84-70.656c-19.968 0-79.36 36.864-79.36 36.864s-61.44 34.816-83.456 61.952c-21.504 26.624-20.48 112.128-20.48 115.2 0 3.072-4.096 93.184 16.896 93.696h0.512c22.016 0 82.432-39.424 82.432-39.424s70.656-41.984 83.968-66.56c13.824-24.064 14.336-108.032 14.336-108.032s2.048-84.992-10.752-92.672c-1.024-0.512-2.56-1.024-4.096-1.024zM819.2 225.28c5.632 3.072 11.264 6.656 16.384 9.728l1.024 0.512 1.024 0.512c25.088 14.336 57.856 36.352 68.096 48.64 5.12 9.728 9.728 44.032 9.728 83.968v2.56c0.512 7.68 0.512 15.36 0 22.016-7.168-4.096-14.336-8.704-20.992-12.8l-1.024-0.512-1.024-0.512c-27.136-16.384-57.344-38.4-65.536-47.616-4.096-12.288-7.68-50.688-7.68-83.968V225.28m-35.84-70.656c-2.048 0-3.072 0.512-4.608 1.024-13.312 7.68-10.752 92.672-10.752 92.672s0.512 83.968 14.336 108.032c13.824 24.064 84.48 66.56 84.48 66.56s60.416 39.424 82.432 39.424h0.512c20.992-1.024 16.896-91.136 16.896-93.696 0-3.072 1.024-88.576-19.968-115.2-21.504-26.624-83.456-61.952-83.456-61.952s-59.904-36.864-79.872-36.864z" fill="#239b56" p-id="2464" data-spm-anchor-id="a313x.7781069.0.i4" class="selected"></path><path d="M705.536 560.128c-14.336-6.144-37.376-18.432-57.856-31.744-32.256-19.456-69.632-46.592-75.776-57.344-6.144-10.752-10.752-58.368-11.264-95.744-0.512-23.552 0.512-48.128 2.56-63.488 13.312 6.144 34.304 16.896 53.248 28.672 23.04 13.312 63.488 39.424 76.8 56.32 8.704 10.752 14.848 52.736 14.336 98.304v1.536c1.536 24.064 0.512 49.152-2.048 63.488z" fill="#239b56" p-id="2465" data-spm-anchor-id="a313x.7781069.0.i10" class="selected"></path><path d="M586.752 352.256c5.632 3.072 11.264 6.656 16.384 9.728l1.024 0.512 1.024 0.512c25.088 14.336 57.856 36.352 68.096 48.64 5.12 9.728 9.728 44.032 9.728 83.968v2.048c0.512 7.168 0.512 14.848 0.512 22.016-7.168-4.096-14.336-8.704-20.992-12.8l-1.024-0.512-1.024-0.512c-27.136-16.384-57.344-38.4-65.536-47.616-4.096-12.288-7.68-50.688-8.192-83.968v-22.016m-35.84-70.656c-2.048 0-3.072 0.512-4.608 1.024-12.8 7.68-10.752 92.672-10.752 92.672s1.024 83.968 14.336 108.032c13.824 24.064 83.968 66.56 83.968 66.56s60.416 39.424 82.432 39.424h0.512c20.992-1.024 16.896-91.136 16.896-93.696 0-3.072 1.024-88.576-19.968-115.2-22.016-26.624-83.456-61.952-83.456-61.952S570.88 281.6 550.912 281.6zM582.144 80.896c5.632 3.072 11.264 6.656 16.384 9.728l1.024 0.512 1.024 0.512c25.088 14.336 57.856 36.352 68.096 48.64 5.12 9.728 9.728 45.056 9.728 83.968v2.56c0.512 8.192 0.512 15.36 0.512 22.016-7.168-4.096-14.336-8.704-20.992-12.8l-1.024-0.512-1.024-0.512c-27.136-16.384-57.344-38.4-65.536-47.616-4.096-12.288-7.68-50.688-8.192-83.456v-1.024-22.016m-35.84-70.656c-1.536 0-3.072 0.512-4.096 1.024-13.312 7.68-10.752 92.672-10.752 92.672s0.512 83.968 14.336 108.032c13.312 24.064 83.968 66.56 83.968 66.56s60.416 39.424 82.432 39.424h0.512c20.992-0.512 16.896-91.136 16.896-93.696s1.024-88.576-20.48-115.2c-21.504-27.136-83.456-61.952-83.456-61.952S566.272 10.24 546.304 10.24zM200.192 496.64v22.528c-0.512 32.768-4.096 71.168-7.68 83.456-8.704 9.728-38.4 31.232-65.536 47.616l-1.024 0.512-1.024 0.512c-6.656 4.608-13.824 8.704-20.992 12.8V638.976c0-38.4 4.608-73.216 9.728-83.456 10.752-12.288 43.008-34.304 68.096-48.64l1.024-0.512 1.024-0.512c5.12-2.56 10.752-6.144 16.384-9.216m35.84-70.144c-19.968 0-79.36 36.864-79.36 36.864s-61.44 34.816-83.456 61.952c-21.504 26.624-20.48 112.128-20.48 115.2 0 3.072-4.096 93.184 16.896 94.208h0.512c21.504 0 82.432-39.424 82.432-39.424s70.656-42.496 83.968-66.048c13.312-24.064 14.336-108.032 14.336-108.032s2.048-84.992-10.752-92.672c-1.024-2.048-2.56-2.048-4.096-2.048zM751.104 735.744c9.216 0.512 39.424 10.752 77.312 32.256l0.512 0.512 1.024 0.512 1.024 0.512c5.632 3.072 12.288 6.656 18.944 10.24-7.168 4.096-14.336 8.192-21.504 11.776l-1.024 0.512-1.024 0.512c-27.648 15.872-61.44 31.232-73.728 33.792-12.8-2.56-48.128-18.432-77.312-34.304-6.144-3.584-12.8-7.168-18.944-10.752 5.632-3.072 11.264-6.656 16.384-9.728l1.024-0.512 1.024-0.512c25.088-14.336 60.928-31.744 76.288-34.816m-0.512-51.2c-2.56 0-4.608 0-6.656 0.512-34.304 5.632-94.72 42.496-94.72 42.496s-72.704 39.936-72.192 55.296c0.512 15.36 75.776 54.784 75.776 54.784s73.728 40.448 101.376 40.448 99.328-40.96 99.328-40.96 65.536-34.304 75.264-52.736c9.728-18.432-71.168-59.392-73.728-60.416-3.584-1.536-69.12-39.424-104.448-39.424zM204.8 225.28v22.528c-0.512 32.768-4.096 71.168-8.192 83.456-8.192 9.728-38.4 31.232-65.536 47.616l-1.024 0.512-1.024 0.512c-6.656 4.608-13.824 8.704-20.992 12.8 0-7.168 0-14.848 0.512-22.016v-3.072c0-39.424 4.608-73.728 9.728-83.456 10.24-11.776 43.008-34.304 68.096-48.128l1.024-0.512 1.024-0.512c5.12-3.072 10.752-6.656 16.384-9.728m35.84-70.656c-19.968 0-79.36 36.864-79.36 36.864s-61.952 34.816-83.456 61.952c-21.504 26.624-20.48 112.64-20.48 115.2 0 3.072-4.096 93.184 16.896 93.696h0.512c22.016 0 82.432-39.424 82.432-39.424s70.656-41.984 83.968-66.56c13.312-24.064 14.336-108.032 14.336-108.032s2.048-84.48-10.752-92.672c-1.024-0.512-2.56-1.024-4.096-1.024zM823.808 496.64c5.632 3.072 11.264 6.656 16.384 9.728l1.024 0.512 1.024 0.512c25.088 14.336 57.856 36.864 68.096 48.64 6.144 12.288 10.24 54.272 9.728 82.944V642.56c0.512 7.68 0.512 15.36 0.512 22.016-7.168-4.096-14.336-8.704-20.992-12.8l-1.024-0.512-1.024-0.512c-27.136-16.384-57.344-38.4-65.536-47.616-4.096-12.288-7.68-50.688-8.192-83.968V496.64m-35.84-70.144c-1.536 0-3.072 0.512-4.096 1.024-12.8 8.192-10.752 92.672-10.752 92.672s1.024 83.968 14.336 108.032c13.312 24.064 83.968 66.56 83.968 66.56s60.928 39.424 82.432 39.424h0.512c20.992-1.024 16.896-91.136 16.896-94.208 0-3.072 1.024-88.576-20.48-115.2-21.504-27.136-83.456-61.952-83.456-61.952s-59.392-36.352-79.36-36.352z" fill="#239b56" p-id="2466" data-spm-anchor-id="a313x.7781069.0.i2" class="selected"></path><path d="M269.824 742.4c9.216 0.512 39.424 10.752 77.312 32.256l1.024 0.512h0.512l2.048 1.024c7.168 3.584 13.312 7.168 18.944 10.24L348.16 798.72l-1.024 0.512-1.024 0.512c-27.136 15.872-61.44 31.232-73.728 33.792-12.8-2.56-48.128-18.432-77.312-34.304-6.144-3.584-12.8-7.168-18.944-10.752 5.632-3.072 11.264-6.656 16.384-9.728l1.024-0.512 1.024-0.512c24.576-14.848 59.904-32.256 75.264-35.328m-0.512-51.2c-2.56 0-4.608 0-6.656 0.512-33.792 5.632-94.72 42.496-94.72 42.496s-72.704 39.936-72.192 55.296c0.512 15.36 75.264 54.784 75.264 54.784s73.728 40.448 101.376 40.448 98.816-40.96 98.816-40.96 65.536-34.304 75.264-53.248c9.216-18.432-71.168-59.392-73.728-60.416-2.048-1.024-68.096-38.912-103.424-38.912z" fill="#239b56" p-id="2467" data-spm-anchor-id="a313x.7781069.0.i8" class="selected"></path><path d="M508.928 871.424c9.216 0.512 39.424 10.752 77.312 32.256l1.536 1.024 1.024 0.512h0.512c7.168 3.584 13.824 7.168 19.456 10.752-7.168 4.096-14.336 8.192-21.504 11.776l-1.024 0.512-1.024 0.512c-27.648 15.872-61.44 31.232-73.728 33.792-12.8-2.56-48.128-18.432-77.312-34.304-6.144-3.584-12.8-7.168-18.944-10.752 5.632-3.584 11.264-6.656 16.384-9.728l1.024-0.512 1.024-0.512c24.064-14.848 59.392-32.256 75.264-35.328m-0.512-51.2c-2.56 0-4.608 0-6.656 0.512-34.304 5.632-94.72 42.496-94.72 42.496s-72.704 39.936-72.192 55.296c0.512 15.36 75.264 54.784 75.264 54.784s73.728 40.448 101.376 40.448 98.816-40.96 98.816-40.96 65.536-34.304 75.264-52.736c9.728-18.432-71.168-59.392-73.728-60.928-2.048-1.024-67.584-38.912-103.424-38.912z" fill="#239b56" p-id="2468" data-spm-anchor-id="a313x.7781069.0.i9" class="selected"></path></svg>