<svg t="1704347663521" class="icon" viewBox="0 0 1024 1024" version="1.1" xmlns="http://www.w3.org/2000/svg"
    p-id="47192" width="200" height="200">
    <path
        d="M512 0C228.430769 0 0 228.430769 0 512s228.430769 512 512 512 512-228.430769 512-512S795.569231 0 512 0z m248.123077 366.276923c-3.938462 3.938462-3.938462 7.876923-7.876923 7.876923-7.876923 7.876923-15.753846 11.815385-23.630769 15.753846-3.938462 0-3.938462 3.938462-3.938462 7.876923 3.938462 43.323077-3.938462 86.646154-19.692308 129.969231-27.569231 74.830769-86.646154 133.907692-157.538461 169.353846-59.076923 35.446154-129.969231 47.261538-192.984616 31.507693-31.507692-3.938462-59.076923-15.753846-82.707692-31.507693l-3.938461-3.938461c0-3.938462 3.938462-7.876923 7.876923-7.876923 19.692308 0 39.384615-3.938462 59.076923-11.815385 19.692308-7.876923 39.384615-19.692308 55.138461-31.507692l3.938462-3.938462c0-3.938462 0-7.876923-3.938462-7.876923-15.753846-3.938462-27.569231-11.815385-39.384615-19.692308-15.753846-7.876923-27.569231-23.630769-35.446154-39.384615v-3.938461c0-3.938462 3.938462-7.876923 7.876923-7.876924h11.815385c3.938462 0 3.938462 0 3.938461-3.938461 3.938462-3.938462 0-7.876923-3.938461-11.815385-15.753846-7.876923-27.569231-19.692308-39.384616-31.507692-15.753846-15.753846-23.630769-35.446154-23.630769-55.138462v-3.938461c0-3.938462 7.876923-3.938462 7.876923-3.938462 3.938462 0 7.876923 3.938462 11.815385 3.938462h7.876923c3.938462 0 3.938462 0 7.876923-3.938462s3.938462-7.876923 0-11.815384c-15.753846-15.753846-27.569231-35.446154-31.507692-59.076923-3.938462-19.692308 0-43.323077 7.876923-63.015385v-3.938461c-7.876923 3.938462-3.938462 3.938462 0 7.876923 27.569231 27.569231 55.138462 51.2 90.584615 70.892307 39.384615 19.692308 82.707692 31.507692 126.030769 31.507693 3.938462 0 7.876923-3.938462 7.876923-7.876923 0-23.630769 7.876923-102.4 78.769231-122.092308 35.446154-11.815385 78.769231-3.938462 106.338462 27.569231 0 0 3.938462 3.938462 7.876923 3.938461 7.876923 0 15.753846-3.938462 27.569231-3.938461 7.876923-3.938462 15.753846-3.938462 23.630769-7.876923h7.876923c3.938462 0 3.938462 7.876923 3.938461 11.815384-3.938462 7.876923-11.815385 15.753846-19.692307 23.630769l-3.938462 3.938462c-3.938462 0-3.938462 3.938462-3.938461 7.876923s3.938462 7.876923 7.876923 7.876923 7.876923 0 15.753846-3.938461h7.876923c-3.938462-3.938462-3.938462 3.938462-7.876923 3.938461z"
        fill="#ffffff" p-id="47193"></path>
</svg>