<svg t="1704695956119" class="icon" viewBox="0 0 1024 1024" version="1.1" xmlns="http://www.w3.org/2000/svg" p-id="2787"
    width="200" height="200">
    <path
        d="M512 0C229.2224 0 0 229.2224 0 512s229.2224 512 512 512 512-229.2224 512-512S794.7776 0 512 0z m236.544 443.392a109.056 109.056 0 0 1-7.3216 18.944h0.1024l-0.4096 0.8192c-21.504 45.9264-77.6192 136.0896-77.6192 136.0896l-0.256-0.6144-16.384 28.5696h79.0016l-150.9376 200.4992 34.304-136.3968h-62.1568l21.5552-90.2144c-17.408 4.1984-38.0928 9.984-62.5664 17.8688 0 0-33.0752 19.3536-95.3344-37.2736 0 0-41.984-36.9664-17.6128-46.1824 10.3424-3.9424 50.2272-8.96 81.6128-13.1584 42.496-5.7344 68.5568-8.8064 68.5568-8.8064s-130.816 1.9456-161.792-2.9184c-31.0784-4.864-70.4-56.6272-78.848-102.144 0 0-12.9024-24.9344 27.904-13.1584 40.8576 11.8272 209.92 46.08 209.92 46.08s-219.8528-67.3792-234.496-83.8656c-14.6432-16.384-43.0592-89.7536-39.424-134.8096 0 0 1.6384-11.264 13.2096-8.192 0 0 162.56 74.24 273.7152 114.8928 111.1552 40.704 207.8208 61.3376 195.328 114.0224z"
        fill="#ffffff" p-id="2788"></path>
</svg>