<svg t="1703666190431" class="icon" viewBox="0 0 1024 1024" version="1.1" xmlns="http://www.w3.org/2000/svg"
    p-id="15922" width="200" height="200">
    <path
        d="M443.392 786.062222c0-8.049778-0.284444-29.411556-0.455111-57.742222-94.435556 20.508444-114.346667-45.511111-114.346667-45.511111-15.445333-39.196444-37.688889-49.635556-37.688889-49.635556-30.833778-21.048889 2.304-20.650667 2.304-20.650666 34.076444 2.389333 52.024889 34.986667 52.024889 34.986666 30.264889 51.882667 79.445333 36.892444 98.787556 28.216889 3.072-21.959111 11.861333-36.920889 21.560889-45.397333-75.377778-8.561778-154.652444-37.688889-154.652445-167.765333 0-37.063111 13.226667-67.356444 34.958222-91.107556-3.498667-8.590222-15.132444-43.093333 3.328-89.827556 0 0 28.501333-9.130667 93.354667 34.787556a325.12 325.12 0 0 1 84.963556-11.406222c28.842667 0.113778 57.884444 3.896889 84.992 11.406222 64.824889-43.918222 93.269333-34.787556 93.269333-34.787556 18.517333 46.734222 6.855111 81.237333 3.384889 89.827556 21.76 23.751111 34.872889 54.044444 34.872889 91.107556 0 130.417778-79.36 159.089778-154.993778 167.509333 12.202667 10.467556 23.04 31.203556 23.04 62.862222 0 45.368889-0.398222 82.005333-0.398222 93.127111 0 9.073778-168.305778 8.988444-168.305778 0z"
        p-id="15923"></path>
    <path
        d="M512 1024c282.766222 0 512-229.233778 512-512S794.766222 0 512 0 0 229.233778 0 512s229.233778 512 512 512z m0-28.444444C244.935111 995.555556 28.444444 779.064889 28.444444 512S244.935111 28.444444 512 28.444444s483.555556 216.490667 483.555556 483.555556-216.490667 483.555556-483.555556 483.555556z"
        p-id="15924"></path>
</svg>