<?xml version="1.0" standalone="no"?><!DOCTYPE svg PUBLIC "-//W3C//DTD SVG 1.1//EN" "http://www.w3.org/Graphics/SVG/1.1/DTD/svg11.dtd"><svg t="1645512481201" class="icon" viewBox="0 0 1024 1024" version="1.1" xmlns="http://www.w3.org/2000/svg" p-id="19007" xmlns:xlink="http://www.w3.org/1999/xlink" width="128" height="128"><defs><style type="text/css">@font-face { font-family: feedback-iconfont; src: url("//at.alicdn.com/t/font_1031158_u69w8yhxdu.woff2?t=1630033759944") format("woff2"), url("//at.alicdn.com/t/font_1031158_u69w8yhxdu.woff?t=1630033759944") format("woff"), url("//at.alicdn.com/t/font_1031158_u69w8yhxdu.ttf?t=1630033759944") format("truetype"); }
</style></defs><path d="M673.4 774.5L552.8 816c-28.8 9.9-60.1 8.7-88.1-3.5L362.4 768c-62.7-27.2-135-22.4-193.5 12.8L65.1 843.4l46.4 77.1L215.3 858c33.6-20.3 75.2-23 111.2-7.4l102.3 44.5c48.6 21.1 103.1 23.3 153.2 6l120.6-41.5c28.8-9.9 60-8.7 88 3.4l122.9 53.3 35.8-82.6-122.9-53.3c-48.6-21-102.9-23.1-153-5.9zM924.1 383c-22.6-53.5-55.1-101.6-96.3-142.9-41.3-41.3-89.3-73.7-142.9-96.3-55.5-23.5-114.3-35.3-175-35.3s-119.6 11.9-175 35.3c-53.5 22.6-101.6 55.1-142.9 96.3S118.3 329.4 95.6 383c-23.5 55.5-35.3 114.3-35.3 175 0 26.8 2.4 53.6 7 79.7l6.6 37.1h145.9c24.9 0 45-20.1 45-45s-20.1-45-45-45h-68.6c-0.7-8.9-1-17.8-1-26.7 0-72.2 21.4-139.5 58.1-195.8l31.4 31.4c17.6 17.6 46.1 17.6 63.6 0 17.6-17.6 17.6-46.1 0-63.6l-36.7-36.7c53.3-49 121.4-82.1 196.8-91.9-0.3 2.1-0.5 4.3-0.5 6.5v54c0 24.9 20.1 45 45 45s45-20.1 45-45v-54c0-2.4-0.2-4.7-0.5-7 178.4 21.1 317.1 173.2 317.1 357 0 8.9-0.3 17.9-1 26.7h-68.6c-24.9 0-45 20.1-45 45s20.1 45 45 45h145.9l6.6-37.1c4.7-26.1 7-52.9 7-79.7 0.1-60.6-11.8-119.5-35.3-174.9z" p-id="19008" data-spm-anchor-id="a313x.7781069.0.i26" class="selected" fill="#239b56"></path><path d="M718.5 396.5c-17.6-17.6-46.1-17.6-63.6 0L517.2 534.2c-5.2-1-10.6-1.6-16.1-1.6-44.9 0-81.3 36.4-81.3 81.3s36.4 81.3 81.3 81.3 81.3-36.4 81.3-81.3c0-5.5-0.6-10.9-1.6-16.1l137.7-137.7c17.6-17.5 17.6-46 0-63.6z" p-id="19009" data-spm-anchor-id="a313x.7781069.0.i28" class="selected" fill="#239b56"></path></svg>