<?xml version="1.0" standalone="no"?><!DOCTYPE svg PUBLIC "-//W3C//DTD SVG 1.1//EN" "http://www.w3.org/Graphics/SVG/1.1/DTD/svg11.dtd"><svg t="1645511844806" class="icon" viewBox="0 0 1024 1024" version="1.1" xmlns="http://www.w3.org/2000/svg" p-id="3809" xmlns:xlink="http://www.w3.org/1999/xlink" width="128" height="128"><defs><style type="text/css">@font-face { font-family: feedback-iconfont; src: url("//at.alicdn.com/t/font_1031158_u69w8yhxdu.woff2?t=1630033759944") format("woff2"), url("//at.alicdn.com/t/font_1031158_u69w8yhxdu.woff?t=1630033759944") format("woff"), url("//at.alicdn.com/t/font_1031158_u69w8yhxdu.ttf?t=1630033759944") format("truetype"); }
</style></defs><path d="M512 61.44c78.6432 0 151.01952 16.03584 221.24544 51.44576 3.6864 1.8432 8.8064 4.7104 15.40096 8.62208 29.7984 17.6128 38.54336 54.31296 19.53792 81.96096a60.0064 60.0064 0 0 1-6.12352 7.51616l-99.10272 103.424c-13.23008 13.80352-35.0208 17.28512-52.46976 8.35584-15.2576-7.7824-25.88672-12.61568-31.88736-14.47936-20.84864-6.43072-42.63936-9.46176-66.60096-9.46176s-45.75232 3.03104-66.60096 9.46176c-6.02112 1.8432-16.65024 6.67648-31.88736 14.47936-17.44896 8.92928-39.23968 5.44768-52.46976-8.35584l-99.1232-103.424c-23.47008-24.51456-21.0944-62.01344 5.3248-83.78368 2.51904-2.08896 5.24288-3.9936 8.0896-5.69344 6.59456-3.8912 11.73504-6.7584 15.42144-8.62208C360.98048 77.47584 433.3568 61.44 512 61.44z m0 901.12c-78.66368 0-151.01952-16.03584-221.24544-51.44576-3.6864-1.8432-8.82688-4.7104-15.42144-8.62208a63.7952 63.7952 0 0 1-8.0896-5.69344c-26.4192-21.77024-28.79488-59.26912-5.3248-83.7632l99.1232-103.424c13.23008-13.824 35.0208-17.3056 52.46976-8.37632 15.23712 7.7824 25.86624 12.61568 31.88736 14.47936 20.84864 6.43072 42.63936 9.46176 66.60096 9.46176s45.75232-3.03104 66.60096-9.46176c6.00064-1.8432 16.62976-6.67648 31.88736-14.47936 17.44896-8.92928 39.23968-5.44768 52.46976 8.35584l99.1232 103.424c2.2528 2.3552 4.3008 4.87424 6.10304 7.51616 19.00544 27.648 10.26048 64.32768-19.53792 81.96096-6.57408 3.8912-11.71456 6.7584-15.40096 8.62208C663.01952 946.52416 590.6432 962.56 512 962.56z m450.56-450.56c0 78.66368-16.03584 151.01952-51.44576 221.24544-1.8432 3.6864-4.7104 8.82688-8.62208 15.42144-1.69984 2.8672-3.60448 5.57056-5.69344 8.0896-21.77024 26.4192-59.26912 28.79488-83.7632 5.3248l-103.424-99.1232c-13.824-13.23008-17.3056-35.0208-8.37632-52.46976 7.7824-15.23712 12.61568-25.86624 14.47936-31.88736 6.43072-20.84864 9.46176-42.63936 9.46176-66.60096s-3.03104-45.75232-9.46176-66.60096c-1.8432-6.00064-6.67648-16.62976-14.47936-31.88736-8.92928-17.44896-5.44768-39.23968 8.35584-52.46976l103.424-99.1232c2.3552-2.2528 4.87424-4.3008 7.51616-6.10304 27.648-19.00544 64.32768-10.26048 81.96096 19.53792 3.8912 6.57408 6.7584 11.71456 8.62208 15.40096C946.52416 360.98048 962.56 433.3568 962.56 512zM61.44 512c0-78.6432 16.03584-151.01952 51.44576-221.24544 1.8432-3.6864 4.7104-8.8064 8.62208-15.40096 17.6128-29.7984 54.31296-38.54336 81.96096-19.53792 2.6624 1.82272 5.16096 3.87072 7.51616 6.12352l103.424 99.10272c13.80352 13.23008 17.28512 35.0208 8.35584 52.46976-7.7824 15.2576-12.61568 25.88672-14.47936 31.88736-6.43072 20.84864-9.46176 42.63936-9.46176 66.60096s3.03104 45.75232 9.46176 66.60096c1.8432 6.02112 6.67648 16.65024 14.47936 31.88736 8.92928 17.44896 5.44768 39.23968-8.35584 52.46976l-103.424 99.1232c-24.51456 23.47008-62.01344 21.0944-83.78368-5.3248a63.7952 63.7952 0 0 1-5.69344-8.0896c-3.8912-6.59456-6.7584-11.73504-8.62208-15.42144C77.47584 663.01952 61.44 590.6432 61.44 512z" p-id="3810" data-spm-anchor-id="a313x.7781069.0.i0" class="selected" fill="#239b56"></path></svg>