<svg t="1669961418997" class="icon" viewBox="0 0 1024 1024" version="1.1" xmlns="http://www.w3.org/2000/svg" p-id="18179" width="21" height="21"><path d="M456 456H260c-108.25 0-196-87.75-196-196S151.75 64 260 64s196 87.75 196 196v196zM764 456H568V260c0-108.25 87.75-196 196-196s196 87.75 196 196-87.75 196-196 196zM260 960c-108.25 0-196-87.75-196-196s87.75-196 196-196h196v196c0 108.25-87.75 196-196 196zM764 960c-108.25 0-196-87.75-196-196V568h196c108.25 0 196 87.75 196 196s-87.75 196-196 196z" fill="#ff680a" p-id="18180"></path></svg>