<?xml version="1.0" encoding="UTF-8"?>
<svg width="1440px" height="925px" viewBox="0 0 1440 925" version="1.1" xmlns="http://www.w3.org/2000/svg" xmlns:xlink="http://www.w3.org/1999/xlink" style="background: #242526;">
    <title>wallpaper</title>
    <defs>
        <linearGradient x1="50%" y1="0%" x2="50%" y2="100%" id="linearGradient-1">
            <stop stop-color="#242527" offset="0%"></stop>
            <stop stop-color="#27282C" stop-opacity="0" offset="100%"></stop>
            <stop stop-color="#27282C" stop-opacity="0" offset="100%"></stop>
        </linearGradient>
        <linearGradient x1="50%" y1="0%" x2="50%" y2="62.8539117%" id="linearGradient-2">
            <stop stop-color="#3AC249" offset="0%"></stop>
            <stop stop-color="#27282C" stop-opacity="0" offset="100%"></stop>
            <stop stop-color="#3AC249" stop-opacity="0" offset="100%"></stop>
        </linearGradient>
        <linearGradient x1="50%" y1="0%" x2="50%" y2="66.2358949%" id="linearGradient-3">
            <stop stop-color="#202124" offset="0%"></stop>
            <stop stop-color="#27282C" stop-opacity="0" offset="100%"></stop>
            <stop stop-color="#27282C" stop-opacity="0" offset="100%"></stop>
        </linearGradient>
        <linearGradient x1="50%" y1="-18.3670335%" x2="50%" y2="135.586185%" id="linearGradient-4">
            <stop stop-color="#3AC249" stop-opacity="0.0692198427" offset="0%"></stop>
            <stop stop-color="#3AC249" offset="100%"></stop>
        </linearGradient>
        <linearGradient x1="50%" y1="0%" x2="50%" y2="67.3447121%" id="linearGradient-5">
            <stop stop-color="#3AC249" stop-opacity="0.140133304" offset="0%"></stop>
            <stop stop-color="#3AC249" stop-opacity="0.104458042" offset="100%"></stop>
        </linearGradient>
        <linearGradient x1="50%" y1="0%" x2="50%" y2="100%" id="linearGradient-6">
            <stop stop-color="#3AC249" stop-opacity="0.747650787" offset="0%"></stop>
            <stop stop-color="#3AC249" stop-opacity="0.158080201" offset="100%"></stop>
        </linearGradient>
        <linearGradient x1="50%" y1="-18.3670335%" x2="50%" y2="135.586185%" id="linearGradient-7">
            <stop stop-color="#3AC249" stop-opacity="0.0692198427" offset="0%"></stop>
            <stop stop-color="#3AC249" offset="100%"></stop>
        </linearGradient>
        <linearGradient x1="50%" y1="0%" x2="50%" y2="67.3447121%" id="linearGradient-8">
            <stop stop-color="#3AC249" stop-opacity="0.140133304" offset="0%"></stop>
            <stop stop-color="#3AC249" stop-opacity="0.104458042" offset="100%"></stop>
        </linearGradient>
        <linearGradient x1="50%" y1="0%" x2="50%" y2="100%" id="linearGradient-9">
            <stop stop-color="#3AC249" stop-opacity="0.747650787" offset="0%"></stop>
            <stop stop-color="#3AC249" stop-opacity="0.158080201" offset="100%"></stop>
        </linearGradient>
        <linearGradient x1="50%" y1="-18.3670335%" x2="50%" y2="135.586185%" id="linearGradient-10">
            <stop stop-color="#3AC249" stop-opacity="0.0692198427" offset="0%"></stop>
            <stop stop-color="#3AC249" offset="100%"></stop>
        </linearGradient>
        <linearGradient x1="50%" y1="0%" x2="50%" y2="67.3447121%" id="linearGradient-11">
            <stop stop-color="#3AC249" stop-opacity="0.140133304" offset="0%"></stop>
            <stop stop-color="#3AC249" stop-opacity="0.104458042" offset="100%"></stop>
        </linearGradient>
        <linearGradient x1="50%" y1="0%" x2="50%" y2="100%" id="linearGradient-12">
            <stop stop-color="#3AC249" stop-opacity="0.747650787" offset="0%"></stop>
            <stop stop-color="#3AC249" stop-opacity="0.158080201" offset="100%"></stop>
        </linearGradient>
        <linearGradient x1="50%" y1="-18.3670335%" x2="50%" y2="135.586185%" id="linearGradient-13">
            <stop stop-color="#3AC249" stop-opacity="0.0692198427" offset="0%"></stop>
            <stop stop-color="#3AC249" offset="100%"></stop>
        </linearGradient>
        <linearGradient x1="50%" y1="0%" x2="50%" y2="67.3447121%" id="linearGradient-14">
            <stop stop-color="#3AC249" stop-opacity="0.140133304" offset="0%"></stop>
            <stop stop-color="#3AC249" stop-opacity="0.104458042" offset="100%"></stop>
        </linearGradient>
        <linearGradient x1="50%" y1="0%" x2="50%" y2="100%" id="linearGradient-15">
            <stop stop-color="#3AC249" stop-opacity="0.747650787" offset="0%"></stop>
            <stop stop-color="#3AC249" stop-opacity="0.158080201" offset="100%"></stop>
        </linearGradient>
        <linearGradient x1="50%" y1="-18.3670335%" x2="50%" y2="135.586185%" id="linearGradient-16">
            <stop stop-color="#3AC249" stop-opacity="0.0692198427" offset="0%"></stop>
            <stop stop-color="#3AC249" offset="100%"></stop>
        </linearGradient>
        <linearGradient x1="50%" y1="0%" x2="50%" y2="67.3447121%" id="linearGradient-17">
            <stop stop-color="#3AC249" stop-opacity="0.140133304" offset="0%"></stop>
            <stop stop-color="#3AC249" stop-opacity="0.104458042" offset="100%"></stop>
        </linearGradient>
        <linearGradient x1="50%" y1="0%" x2="50%" y2="100%" id="linearGradient-18">
            <stop stop-color="#3AC249" stop-opacity="0.747650787" offset="0%"></stop>
            <stop stop-color="#3AC249" stop-opacity="0.158080201" offset="100%"></stop>
        </linearGradient>
        <linearGradient x1="50%" y1="32.3218056%" x2="50%" y2="135.586185%" id="linearGradient-19">
            <stop stop-color="#3AC249" stop-opacity="0" offset="0%"></stop>
            <stop stop-color="#3AC249" stop-opacity="0.697115385" offset="100%"></stop>
        </linearGradient>
        <linearGradient x1="50%" y1="-5.55111512e-15%" x2="50%" y2="160.80528%" id="linearGradient-20">
            <stop stop-color="#3AC249" stop-opacity="0.140133304" offset="0%"></stop>
            <stop stop-color="#3AC249" stop-opacity="0.104458042" offset="100%"></stop>
        </linearGradient>
        <linearGradient x1="50%" y1="0%" x2="50%" y2="100%" id="linearGradient-21">
            <stop stop-color="#3AC249" stop-opacity="0.747650787" offset="0%"></stop>
            <stop stop-color="#3AC249" stop-opacity="0.158080201" offset="100%"></stop>
        </linearGradient>
        <linearGradient x1="50%" y1="-18.3670335%" x2="50%" y2="135.586185%" id="linearGradient-22">
            <stop stop-color="#3AC249" stop-opacity="0.0692198427" offset="0%"></stop>
            <stop stop-color="#3AC249" offset="100%"></stop>
        </linearGradient>
        <linearGradient x1="50%" y1="0%" x2="50%" y2="67.3447121%" id="linearGradient-23">
            <stop stop-color="#3AC249" stop-opacity="0.140133304" offset="0%"></stop>
            <stop stop-color="#3AC249" stop-opacity="0.104458042" offset="100%"></stop>
        </linearGradient>
        <linearGradient x1="50%" y1="0%" x2="50%" y2="100%" id="linearGradient-24">
            <stop stop-color="#3AC249" stop-opacity="0.747650787" offset="0%"></stop>
            <stop stop-color="#3AC249" stop-opacity="0.158080201" offset="100%"></stop>
        </linearGradient>
        <linearGradient x1="50%" y1="-18.3670335%" x2="50%" y2="135.586185%" id="linearGradient-25">
            <stop stop-color="#3AC249" stop-opacity="0.0692198427" offset="0%"></stop>
            <stop stop-color="#3AC249" offset="100%"></stop>
        </linearGradient>
        <linearGradient x1="50%" y1="0%" x2="50%" y2="67.3447121%" id="linearGradient-26">
            <stop stop-color="#3AC249" stop-opacity="0.140133304" offset="0%"></stop>
            <stop stop-color="#3AC249" stop-opacity="0.104458042" offset="100%"></stop>
        </linearGradient>
        <linearGradient x1="50%" y1="0%" x2="50%" y2="100%" id="linearGradient-27">
            <stop stop-color="#3AC249" stop-opacity="0.747650787" offset="0%"></stop>
            <stop stop-color="#3AC249" stop-opacity="0.158080201" offset="100%"></stop>
        </linearGradient>
        <linearGradient x1="50%" y1="-18.3670335%" x2="50%" y2="135.586185%" id="linearGradient-28">
            <stop stop-color="#3AC249" stop-opacity="0.0692198427" offset="0%"></stop>
            <stop stop-color="#3AC249" offset="100%"></stop>
        </linearGradient>
        <linearGradient x1="50%" y1="0%" x2="50%" y2="67.3447121%" id="linearGradient-29">
            <stop stop-color="#3AC249" stop-opacity="0.140133304" offset="0%"></stop>
            <stop stop-color="#3AC249" stop-opacity="0.104458042" offset="100%"></stop>
        </linearGradient>
        <linearGradient x1="50%" y1="0%" x2="50%" y2="100%" id="linearGradient-30">
            <stop stop-color="#3AC249" stop-opacity="0.747650787" offset="0%"></stop>
            <stop stop-color="#3AC249" stop-opacity="0.158080201" offset="100%"></stop>
        </linearGradient>
    </defs>
    <g id="wallpaper" stroke="none" stroke-width="1" fill="none" fill-rule="evenodd">
        <rect fill="#242526" opacity="0" x="0" y="0" width="1440" height="925"></rect>
        <rect id="矩形" x="0" y="0" width="1440" height="925"></rect>
        <path d="M269.5,-754.689596 L2600.32574,1135 L-2061.32574,1135 L269.5,-754.689596 Z" id="三角形备份-6" stroke="#54B75C" stroke-width="30" opacity="0.0309012277"></path>
        <polygon id="三角形备份" fill="url(#linearGradient-1)" opacity="0" points="1190.5 371 2093.38079 1103 287.619205 1103"></polygon>
        <polygon id="三角形备份-2" fill="url(#linearGradient-2)" opacity="0" points="741.5 656 1442.09603 1224 40.9039735 1224"></polygon>
        <polygon id="三角形" fill="url(#linearGradient-3)" opacity="0" points="383.5 517 1286.38079 1249 -519.380795 1249"></polygon>
        <g id="编组" opacity="0.528622582" transform="translate(478.203756, 281.398418) rotate(23.000000) translate(-478.203756, -281.398418) translate(291.025963, 175.263818)">
            <path d="M187,-2.84217094e-14 L374,192 L0,192 L187,-2.84217094e-14 Z M187,22.8785047 L44.5654206,169.121495 L329.434579,169.121495 L187,22.8785047 Z" id="形状结合" fill="url(#linearGradient-4)" opacity="0.558198475"></path>
            <path d="M186.149016,48.2503208 L69.0017772,168.274861 L43.6490164,168.274861 L186.149016,22.2748607 L328.649016,168.274861 L303.296256,168.274861 L186.149016,48.2503208 Z" id="形状结合" fill="url(#linearGradient-5)"></path>
            <rect id="矩形" fill="url(#linearGradient-6)" x="0.355586036" y="191.269199" width="374" height="21"></rect>
        </g>
        <g id="编组备份-2" opacity="0.288806734" transform="translate(138.024455, 146.845767) rotate(147.000000) translate(-138.024455, -146.845767) translate(14.712761, 82.902466)">
            <path d="M123.623389,0 L246.623389,116 L0.623389063,116 L123.623389,0 Z M123.623389,13.8224299 L29.9364732,102.17757 L217.310305,102.17757 L123.623389,13.8224299 Z" id="形状结合" fill="url(#linearGradient-7)" opacity="0.558198475"></path>
            <path d="M123.329358,28.2731321 L46.0532839,100.61669 L29.3293575,100.61669 L123.329358,12.6166904 L217.329358,100.61669 L200.605431,100.61669 L123.329358,28.2731321 Z" id="形状结合" fill="url(#linearGradient-8)"></path>
            <rect id="矩形" fill="url(#linearGradient-9)" x="5.68434189e-14" y="114.886603" width="246" height="13"></rect>
        </g>
        <g id="编组备份-2" opacity="0.288806734" transform="translate(0.024455, 419.845767) rotate(147.000000) translate(-0.024455, -419.845767) translate(-250.206575, 356.174785)">
            <path d="M250.96206,-1.13686838e-13 L500.46206,116 L1.46205963,116 L250.96206,-1.13686838e-13 Z M250.96206,13.8224299 L60.92234,102.17757 L441.001779,102.17757 L250.96206,13.8224299 Z" id="形状结合" fill="url(#linearGradient-10)" opacity="0.558198475"></path>
            <path d="M250.668028,28.2731321 L94.0606661,100.61669 L60.1680281,100.61669 L250.668028,12.6166904 L441.168028,100.61669 L407.27539,100.61669 L250.668028,28.2731321 Z" id="形状结合" fill="url(#linearGradient-11)"></path>
            <rect id="矩形" fill="url(#linearGradient-12)" x="1.13686838e-13" y="114.341964" width="499" height="13"></rect>
        </g>
        <g id="编组备份-2" opacity="0.288806734" transform="translate(1329.024455, 588.845767) rotate(147.000000) translate(-1329.024455, -588.845767) translate(1078.793425, 525.174785)">
            <path d="M250.96206,-1.13686838e-13 L500.46206,116 L1.46205963,116 L250.96206,-1.13686838e-13 Z M250.96206,13.8224299 L60.92234,102.17757 L441.001779,102.17757 L250.96206,13.8224299 Z" id="形状结合" fill="url(#linearGradient-10)" opacity="0.558198475"></path>
            <path d="M250.668028,28.2731321 L94.0606661,100.61669 L60.1680281,100.61669 L250.668028,12.6166904 L441.168028,100.61669 L407.27539,100.61669 L250.668028,28.2731321 Z" id="形状结合" fill="url(#linearGradient-11)"></path>
            <rect id="矩形" fill="url(#linearGradient-12)" x="1.13686838e-13" y="114.341964" width="499" height="13"></rect>
        </g>
        <g id="编组备份-2" opacity="0.288806734" transform="translate(737.024455, 146.845767) rotate(147.000000) translate(-737.024455, -146.845767) translate(613.712761, 82.902466)">
            <path d="M123.623389,0 L246.623389,116 L0.623389063,116 L123.623389,0 Z M123.623389,13.8224299 L29.9364732,102.17757 L217.310305,102.17757 L123.623389,13.8224299 Z" id="形状结合" fill="url(#linearGradient-7)" opacity="0.558198475"></path>
            <path d="M123.329358,28.2731321 L46.0532839,100.61669 L29.3293575,100.61669 L123.329358,12.6166904 L217.329358,100.61669 L200.605431,100.61669 L123.329358,28.2731321 Z" id="形状结合" fill="url(#linearGradient-8)"></path>
            <rect id="矩形" fill="url(#linearGradient-9)" x="5.68434189e-14" y="114.886603" width="246" height="13"></rect>
        </g>
        <g id="编组备份-2" opacity="0.288806734" transform="translate(1208.524455, 821.845767) rotate(147.000000) translate(-1208.524455, -821.845767) translate(1055.793425, 758.174785)">
            <path d="M153.46206,-5.68434189e-14 L305.46206,116 L1.46205963,116 L153.46206,-5.68434189e-14 Z M153.46206,13.8224299 L37.6863587,102.17757 L269.237761,102.17757 L153.46206,13.8224299 Z" id="形状结合" fill="url(#linearGradient-13)" opacity="0.558198475"></path>
            <path d="M152.748693,28.0008126 L56.9756867,100.344371 L36.2486928,100.344371 L152.748693,12.3443709 L269.248693,100.344371 L248.521699,100.344371 L152.748693,28.0008126 Z" id="形状结合" fill="url(#linearGradient-14)"></path>
            <rect id="矩形" fill="url(#linearGradient-15)" x="5.68434189e-14" y="114.341964" width="304" height="13"></rect>
        </g>
        <g id="编组备份-2" opacity="0.288806734" transform="translate(638.551153, 46.635190) rotate(147.000000) translate(-638.551153, -46.635190) translate(228.828845, -73.833471)">
            <path d="M410.944616,0 L819.444616,219 L2.44461627,219 L410.944616,0 Z M410.944616,26.0957944 L99.79742,192.904206 L722.091813,192.904206 L410.944616,26.0957944 Z" id="形状结合" fill="url(#linearGradient-16)" opacity="0.558198475"></path>
            <path d="M409.245563,53.1418194 L152.343723,189.608077 L96.7455631,189.608077 L409.245563,23.608077 L721.745563,189.608077 L666.147404,189.608077 L409.245563,53.1418194 Z" id="形状结合" fill="url(#linearGradient-17)"></path>
            <rect id="矩形" fill="url(#linearGradient-18)" x="1.13686838e-13" y="216.937322" width="817" height="24"></rect>
        </g>
        <g id="编组备份-4" opacity="0.377092634" transform="translate(920.638993, 223.718287) rotate(-167.000000) translate(-920.638993, -223.718287) translate(749.485474, 147.267326)">
            <path d="M171,-1.42108547e-14 L342,137 L5.68434189e-14,137 L171,-1.42108547e-14 Z M171,16.3247664 L40.7523364,120.675234 L301.247664,120.675234 L171,16.3247664 Z" id="形状结合" fill-opacity="0.47" fill="url(#linearGradient-19)" opacity="0.558198475"></path>
            <path d="M171.224951,35.6553517 L64.3537854,121.97437 L41.2249511,121.97437 L171.224951,16.9743701 L301.224951,121.97437 L278.096117,121.97437 L171.224951,35.6553517 Z" id="形状结合" fill-opacity="0.38" fill="url(#linearGradient-20)"></path>
            <rect id="矩形" fill-opacity="0.29" fill="url(#linearGradient-21)" x="0.307037974" y="137.901923" width="342" height="15"></rect>
        </g>
        <g id="编组备份-4" opacity="0.377092634" transform="translate(822.638993, 437.718287) rotate(-167.000000) translate(-822.638993, -437.718287) translate(651.485474, 361.267326)">
            <path d="M171,-1.42108547e-14 L342,137 L5.68434189e-14,137 L171,-1.42108547e-14 Z M171,16.3247664 L40.7523364,120.675234 L301.247664,120.675234 L171,16.3247664 Z" id="形状结合" fill-opacity="0.47" fill="url(#linearGradient-19)" opacity="0.558198475"></path>
            <path d="M171.224951,35.6553517 L64.3537854,121.97437 L41.2249511,121.97437 L171.224951,16.9743701 L301.224951,121.97437 L278.096117,121.97437 L171.224951,35.6553517 Z" id="形状结合" fill-opacity="0.38" fill="url(#linearGradient-20)"></path>
            <rect id="矩形" fill-opacity="0.29" fill="url(#linearGradient-21)" x="0.307037974" y="137.901923" width="342" height="15"></rect>
        </g>
        <g id="编组备份-4" opacity="0.377092634" transform="translate(683.638993, 542.718287) rotate(-167.000000) translate(-683.638993, -542.718287) translate(512.485474, 466.267326)">
            <path d="M171,-1.42108547e-14 L342,137 L5.68434189e-14,137 L171,-1.42108547e-14 Z M171,16.3247664 L40.7523364,120.675234 L301.247664,120.675234 L171,16.3247664 Z" id="形状结合" fill-opacity="0.47" fill="url(#linearGradient-19)" opacity="0.558198475"></path>
            <path d="M171.224951,35.6553517 L64.3537854,121.97437 L41.2249511,121.97437 L171.224951,16.9743701 L301.224951,121.97437 L278.096117,121.97437 L171.224951,35.6553517 Z" id="形状结合" fill-opacity="0.38" fill="url(#linearGradient-20)"></path>
            <rect id="矩形" fill-opacity="0.29" fill="url(#linearGradient-21)" x="0.307037974" y="137.901923" width="342" height="15"></rect>
        </g>
        <g id="编组备份-3" opacity="0.556012835" transform="translate(1208.284898, 390.030434) rotate(228.000000) translate(-1208.284898, -390.030434) translate(1073.961036, 269.993666)">
            <path d="M134,8.52651283e-14 L268,217 L-1.13686838e-13,217 L134,8.52651283e-14 Z M134,25.8574766 L31.9345794,191.142523 L236.065421,191.142523 L134,25.8574766 Z" id="形状结合" fill="url(#linearGradient-22)" opacity="0.558198475"></path>
            <path d="M134.216788,53.3057055 L49.9529842,188.949877 L31.7167878,188.949877 L134.216788,23.9498773 L236.716788,188.949877 L218.480592,188.949877 L134.216788,53.3057055 Z" id="形状结合" fill="url(#linearGradient-23)"></path>
            <rect id="矩形" fill="url(#linearGradient-24)" x="0.647723364" y="216.073536" width="268" height="24"></rect>
        </g>
        <g id="编组备份-3" opacity="0.556012835" transform="translate(975.572193, 570.449138) rotate(228.000000) translate(-975.572193, -570.449138) translate(668.243748, 454.008839)">
            <path d="M305,-5.68434189e-14 L610,211 L2.27373675e-13,211 L305,-5.68434189e-14 Z M305,25.1425234 L72.6869159,185.857477 L537.313084,185.857477 L305,25.1425234 Z" id="形状结合" fill="url(#linearGradient-25)" opacity="0.558198475"></path>
            <path d="M308.048095,51.3282437 L116.502083,182.861986 L75.0480948,182.861986 L308.048095,22.861986 L541.048095,182.861986 L499.594107,182.861986 L308.048095,51.3282437 Z" id="形状结合" fill="url(#linearGradient-26)"></path>
            <rect id="矩形" fill="url(#linearGradient-27)" x="4.65689054" y="209.8806" width="610" height="23"></rect>
        </g>
        <g id="编组备份" opacity="0.433733259" transform="translate(1136.140968, 95.367929) rotate(-27.000000) translate(-1136.140968, -95.367929) translate(846.548765, -27.376413)">
            <path d="M289.5,0 L579,221 L-5.68434189e-14,221 L289.5,0 Z M289.5,26.3341121 L68.9929907,194.665888 L510.007009,194.665888 L289.5,26.3341121 Z" id="形状结合" fill="url(#linearGradient-28)" opacity="0.558198475"></path>
            <path d="M290.164011,57.2890643 L108.894073,195.399494 L69.6640113,195.399494 L290.164011,27.3994938 L510.664011,195.399494 L471.43395,195.399494 L290.164011,57.2890643 Z" id="形状结合" fill="url(#linearGradient-29)"></path>
            <rect id="矩形" fill="url(#linearGradient-30)" x="0.184405633" y="221.488682" width="579" height="24"></rect>
        </g>
        <g id="编组备份" opacity="0.433733259" transform="translate(230.140968, 471.367929) rotate(-27.000000) translate(-230.140968, -471.367929) translate(-59.451235, 348.623587)">
            <path d="M289.5,0 L579,221 L-5.68434189e-14,221 L289.5,0 Z M289.5,26.3341121 L68.9929907,194.665888 L510.007009,194.665888 L289.5,26.3341121 Z" id="形状结合" fill="url(#linearGradient-28)" opacity="0.558198475"></path>
            <path d="M290.164011,57.2890643 L108.894073,195.399494 L69.6640113,195.399494 L290.164011,27.3994938 L510.664011,195.399494 L471.43395,195.399494 L290.164011,57.2890643 Z" id="形状结合" fill="url(#linearGradient-29)"></path>
            <rect id="矩形" fill="url(#linearGradient-30)" x="0.184405633" y="221.488682" width="579" height="24"></rect>
        </g>
    </g>
</svg>